<svg xmlns="http://www.w3.org/2000/svg" xmlns:xlink="http://www.w3.org/1999/xlink" width="1348.212" height="906.505" viewBox="0 0 1348.212 906.505">
  <defs>
    <filter id="Rectangle_5508" x="441.799" y="0" width="463.646" height="463.646" filterUnits="userSpaceOnUse">
      <feOffset input="SourceAlpha"/>
      <feGaussianBlur stdDeviation="15" result="blur"/>
      <feFlood flood-opacity="0.102"/>
      <feComposite operator="in" in2="blur"/>
      <feComposite in="SourceGraphic"/>
    </filter>
    <filter id="Rectangle_5510" x="0" y="0" width="463.646" height="463.646" filterUnits="userSpaceOnUse">
      <feOffset input="SourceAlpha"/>
      <feGaussianBlur stdDeviation="15" result="blur-2"/>
      <feFlood flood-opacity="0.102"/>
      <feComposite operator="in" in2="blur-2"/>
      <feComposite in="SourceGraphic"/>
    </filter>
    <filter id="Rectangle_5511" x="883.599" y="0" width="463.646" height="463.646" filterUnits="userSpaceOnUse">
      <feOffset input="SourceAlpha"/>
      <feGaussianBlur stdDeviation="15" result="blur-3"/>
      <feFlood flood-opacity="0.102"/>
      <feComposite operator="in" in2="blur-3"/>
      <feComposite in="SourceGraphic"/>
    </filter>
    <filter id="Rectangle_5512" x="0.968" y="442.859" width="463.646" height="463.646" filterUnits="userSpaceOnUse">
      <feOffset input="SourceAlpha"/>
      <feGaussianBlur stdDeviation="15" result="blur-4"/>
      <feFlood flood-opacity="0.102"/>
      <feComposite operator="in" in2="blur-4"/>
      <feComposite in="SourceGraphic"/>
    </filter>
    <filter id="Rectangle_5513" x="442.767" y="442.859" width="463.646" height="463.646" filterUnits="userSpaceOnUse">
      <feOffset input="SourceAlpha"/>
      <feGaussianBlur stdDeviation="15" result="blur-5"/>
      <feFlood flood-opacity="0.102"/>
      <feComposite operator="in" in2="blur-5"/>
      <feComposite in="SourceGraphic"/>
    </filter>
    <filter id="Rectangle_5514" x="884.566" y="442.859" width="463.646" height="463.646" filterUnits="userSpaceOnUse">
      <feOffset input="SourceAlpha"/>
      <feGaussianBlur stdDeviation="15" result="blur-6"/>
      <feFlood flood-opacity="0.102"/>
      <feComposite operator="in" in2="blur-6"/>
      <feComposite in="SourceGraphic"/>
    </filter>
  </defs>
  <g id="Group_885" data-name="Group 885" transform="translate(-8.032 -3690.354)">
    <g id="Group_657" data-name="Group 657">
      <g transform="matrix(1, 0, 0, 1, 8.03, 3690.35)" filter="url(#Rectangle_5508)">
        <rect id="Rectangle_5508-2" data-name="Rectangle 5508" width="373.646" height="373.646" transform="translate(486.8 45)" fill="#fff"/>
      </g>
      <g id="Group_193" data-name="Group 193" transform="translate(563.502 3866.122)">
        <path id="Path_2014" data-name="Path 2014" d="M-1250.312,242.6a22.484,22.484,0,0,1-22.418,22.419H-1321.3c-12.33,0-30.732-5.716-40.892-12.7l-46.749-32.14c-10.16-6.986-8.386-12.7,3.944-12.7h132.271a22.484,22.484,0,0,1,22.418,22.418Z" transform="translate(1415.543 -207.48)" fill="#ebebeb"/>
      </g>
      <g id="Group_196" data-name="Group 196" transform="translate(634.948 3829.878)">
        <g id="Group_194" data-name="Group 194" transform="translate(3.737 3.737)">
          <rect id="Rectangle_5509" data-name="Rectangle 5509" width="85.939" height="85.939" rx="13.195" fill="#fff"/>
        </g>
        <g id="Group_195" data-name="Group 195">
          <path id="Path_2015" data-name="Path 2015" d="M-1252.976,172.289a7.481,7.481,0,0,1,7.473,7.472v63.52a7.481,7.481,0,0,1-7.473,7.473H-1316.5a7.482,7.482,0,0,1-7.473-7.473v-63.52a7.481,7.481,0,0,1,7.473-7.472h63.519m0-7.473H-1316.5a14.946,14.946,0,0,0-14.947,14.946v63.52a14.946,14.946,0,0,0,14.947,14.946h63.519a14.945,14.945,0,0,0,14.946-14.946v-63.52a14.945,14.945,0,0,0-14.946-14.946Z" transform="translate(1331.442 -164.816)" fill="#a75d8b"/>
        </g>
      </g>
      <g id="Group_199" data-name="Group 199" transform="translate(607.016 3955.615)">
        <g id="Group_197" data-name="Group 197" transform="translate(24.578)">
          <path id="Path_2016" data-name="Path 2016" d="M-1332.745,319.849a4.125,4.125,0,0,1-1.016-.1v2.407c0,.433-.268.658-.807.658s-.822-.224-.822-.658V314.2c0-.508,0-.9.748-1.105a7.086,7.086,0,0,1,1.7-.179c2.362,0,4.067,1.061,4.067,3.423C-1328.872,318.742-1330.623,319.849-1332.745,319.849Zm-.119-1.405c1.449,0,2.3-.733,2.3-2.048,0-1.465-1.032-2.062-2.377-2.062a5.39,5.39,0,0,0-.822.074v3.947A4.82,4.82,0,0,0-1332.864,318.443Z" transform="translate(1335.391 -312.837)" fill="#999"/>
          <path id="Path_2017" data-name="Path 2017" d="M-1314.882,313.605v8.551c0,.433-.269.658-.807.658s-.823-.224-.823-.658v-3.707h-4.425v3.707c0,.433-.268.658-.807.658s-.822-.224-.822-.658v-8.551c0-.433.269-.658.822-.658s.807.225.807.658V317h4.425v-3.394c0-.433.269-.658.823-.658S-1314.882,313.172-1314.882,313.605Z" transform="translate(1333.461 -312.842)" fill="#999"/>
          <path id="Path_2018" data-name="Path 2018" d="M-1303.416,312.824c2.855,0,4.725,1.958,4.725,5.038s-1.869,5.039-4.725,5.039-4.723-1.958-4.723-5.039S-1306.271,312.824-1303.416,312.824Zm0,8.657c1.824,0,3.035-1.377,3.035-3.619s-1.211-3.618-3.035-3.618-3.034,1.376-3.034,3.618S-1305.239,321.481-1303.416,321.481Z" transform="translate(1331.29 -312.824)" fill="#999"/>
          <path id="Path_2019" data-name="Path 2019" d="M-1288.4,322.169c0,.433-.268.658-.821.658s-.823-.224-.823-.658v-7.683h-2.376c-.434,0-.657-.24-.657-.733,0-.478.223-.718.657-.718h6.4c.433,0,.658.24.658.718,0,.494-.225.733-.658.733h-2.377Z" transform="translate(1329.024 -312.856)" fill="#999"/>
          <path id="Path_2020" data-name="Path 2020" d="M-1275.337,312.824c2.854,0,4.723,1.958,4.723,5.038s-1.869,5.039-4.723,5.039-4.724-1.958-4.724-5.039S-1278.193,312.824-1275.337,312.824Zm0,8.657c1.824,0,3.034-1.377,3.034-3.619s-1.21-3.618-3.034-3.618-3.035,1.376-3.035,3.618S-1277.161,321.481-1275.337,321.481Z" transform="translate(1327.065 -312.824)" fill="#999"/>
          <path id="Path_2021" data-name="Path 2021" d="M-1252.845,322.169c0,.433-.269.658-.822.658s-.822-.224-.822-.658v-7.683h-2.377c-.433,0-.657-.24-.657-.733,0-.478.224-.718.657-.718h6.4c.434,0,.658.24.658.718,0,.494-.224.733-.658.733h-2.376Z" transform="translate(1323.674 -312.856)" fill="#999"/>
          <path id="Path_2022" data-name="Path 2022" d="M-1241.768,322.156c0,.433-.268.658-.807.658s-.823-.224-.823-.658v-8.551c0-.433.269-.658.823-.658s.807.225.807.658Z" transform="translate(1321.548 -312.842)" fill="#999"/>
          <path id="Path_2023" data-name="Path 2023" d="M-1232.958,319.849a4.127,4.127,0,0,1-1.016-.1v2.407c0,.433-.269.658-.808.658s-.822-.224-.822-.658V314.2c0-.508,0-.9.748-1.105a7.081,7.081,0,0,1,1.7-.179c2.362,0,4.066,1.061,4.066,3.423C-1229.086,318.742-1230.835,319.849-1232.958,319.849Zm-.12-1.405c1.45,0,2.3-.733,2.3-2.048,0-1.465-1.032-2.062-2.377-2.062a5.393,5.393,0,0,0-.822.074v3.947A4.817,4.817,0,0,0-1233.077,318.443Z" transform="translate(1320.376 -312.837)" fill="#999"/>
          <path id="Path_2024" data-name="Path 2024" d="M-1221.724,318.769a.949.949,0,0,1-1-1,.949.949,0,0,1,1-1,.949.949,0,0,1,1,1A.949.949,0,0,1-1221.724,318.769Zm0,4.171a.95.95,0,0,1-1-1,.95.95,0,0,1,1-1,.95.95,0,0,1,1,1A.95.95,0,0,1-1221.724,322.94Z" transform="translate(1318.438 -313.417)" fill="#999"/>
        </g>
        <g id="Group_198" data-name="Group 198" transform="translate(0 23.849)">
          <path id="Path_2025" data-name="Path 2025" d="M-1351.706,351.828c1.192,0,1.809.658,1.809,1.973s-.617,1.972-1.809,1.972h-8.3v7.849h10.233c1.192,0,1.808.658,1.808,1.974,0,1.356-.616,2.013-1.808,2.013h-12.248c-1.6,0-2.3-.7-2.3-2.3V343.2c0-1.6.7-2.3,2.3-2.3h11.959c1.192,0,1.809.657,1.809,1.972,0,1.356-.617,2.014-1.809,2.014h-9.945v6.945Z" transform="translate(1364.322 -340.897)"/>
          <path id="Path_2026" data-name="Path 2026" d="M-1329.946,352.037a3.151,3.151,0,0,1,3.041-1.562c1.479,0,1.973.451,1.973,1.11a3.241,3.241,0,0,1-.863,1.768l-4.932,6.369,5.137,6.657a3.042,3.042,0,0,1,.822,1.727c0,.7-.452,1.15-2.013,1.15a3.3,3.3,0,0,1-3.205-1.562l-3.657-5.054-3.7,5.054a3.154,3.154,0,0,1-3.041,1.562c-1.48,0-1.973-.453-1.973-1.15a3.127,3.127,0,0,1,.863-1.727l5.055-6.575-4.972-6.451a3.235,3.235,0,0,1-.863-1.768c0-.658.493-1.11,2.055-1.11a3.37,3.37,0,0,1,3.205,1.562l3.534,4.848Z" transform="translate(1361.017 -342.338)"/>
          <path id="Path_2027" data-name="Path 2027" d="M-1312.858,375.282c0,1.193-.739,1.809-2.218,1.809s-2.22-.616-2.22-1.809V352.267c0-1.232.739-1.807,2.178-1.807,1.357,0,1.931.492,1.931,1.438v.575a6.366,6.366,0,0,1,5.014-2.1c4.6,0,8.137,3.452,8.137,9.289,0,5.917-3.616,9.616-9.081,9.616a6.916,6.916,0,0,1-3.741-.9Zm3.165-9.617c3.124,0,5.1-2.137,5.1-5.752,0-3.741-2.014-5.919-4.932-5.919a4.912,4.912,0,0,0-3.329,1.234v9.493A5.53,5.53,0,0,0-1309.693,365.665Z" transform="translate(1357.246 -342.323)"/>
          <path id="Path_2028" data-name="Path 2028" d="M-1284.012,350.233c5.671,0,9.206,3.78,9.206,9.534,0,5.876-3.658,9.657-9.287,9.657-5.672,0-9.205-3.781-9.205-9.533C-1293.3,354.013-1289.643,350.233-1284.012,350.233Zm0,15.575c2.836,0,4.644-2.3,4.644-5.917,0-3.741-1.85-6.083-4.725-6.083-2.837,0-4.644,2.342-4.644,5.959C-1288.738,363.506-1286.889,365.808-1284.012,365.808Z" transform="translate(1353.635 -342.302)"/>
          <path id="Path_2029" data-name="Path 2029" d="M-1267.832,355.754c0-3.247,2.548-5.425,6.822-5.425a10.988,10.988,0,0,1,5.383,1.315c.946.575,1.356,1.152,1.356,1.849a2.051,2.051,0,0,1-1.849,2.1,4.114,4.114,0,0,1-1.644-.616,7.3,7.3,0,0,0-3.411-.9c-1.52,0-2.384.618-2.384,1.561,0,2.837,9.535,1.727,9.535,8.138,0,3.411-2.63,5.588-6.946,5.588a10.462,10.462,0,0,1-5.671-1.519c-.9-.575-1.356-1.193-1.356-1.89a2.09,2.09,0,0,1,1.931-2.1c.452,0,.781.245,1.438.616a7.23,7.23,0,0,0,3.7,1.149c1.562,0,2.589-.657,2.589-1.725C-1258.339,360.931-1267.832,362.042-1267.832,355.754Z" transform="translate(1349.828 -342.316)"/>
          <path id="Path_2030" data-name="Path 2030" d="M-1234.833,367.447v-.9a6.252,6.252,0,0,1-5.63,2.753,5.621,5.621,0,0,1-5.1-2.465,8.348,8.348,0,0,1-1.15-4.767v-9.782c0-1.191.74-1.807,2.219-1.807s2.219.616,2.219,1.807v9.083a4.782,4.782,0,0,0,.657,2.836,3.239,3.239,0,0,0,2.8,1.232,4.314,4.314,0,0,0,3.78-1.931v-11.22c0-1.191.739-1.807,2.22-1.807s2.218.616,2.218,1.807v15.165c0,1.193-.7,1.809-2.137,1.809C-1234.257,369.255-1234.833,368.516-1234.833,367.447Z" transform="translate(1346.624 -342.338)"/>
          <path id="Path_2031" data-name="Path 2031" d="M-1216.92,367.432c0,1.193-.74,1.809-2.219,1.809s-2.219-.616-2.219-1.809V352.267c0-1.191.7-1.807,2.137-1.807,1.52,0,2.1.739,2.054,1.807v1.439a5.552,5.552,0,0,1,5.179-3.329c1.356,0,1.89.618,1.89,2.014s-.575,2.014-2.137,2.055c-2.425.083-3.781.782-4.685,2.506Z" transform="translate(1342.81 -342.323)"/>
          <path id="Path_2032" data-name="Path 2032" d="M-1190.533,366.1c0,.658-.411,1.234-1.274,1.768a10.6,10.6,0,0,1-5.754,1.478c-5.671,0-9.041-3.574-9.041-9.45,0-5.837,3.329-9.658,8.506-9.658,4.85,0,8.014,3.411,8.014,8.137,0,2.589-1.068,2.877-2.63,2.877h-9.493c.411,2.712,1.932,4.314,4.849,4.314a6.835,6.835,0,0,0,3.452-.862,3.19,3.19,0,0,1,1.521-.575A1.907,1.907,0,0,1-1190.533,366.1Zm-11.712-8.1h7.849c0-2.465-1.274-4.233-3.78-4.233C-1200.479,353.766-1201.876,355.288-1202.246,358Z" transform="translate(1340.589 -342.302)"/>
        </g>
      </g>
      <g transform="matrix(1, 0, 0, 1, 8.03, 3690.35)" filter="url(#Rectangle_5510)">
        <rect id="Rectangle_5510-2" data-name="Rectangle 5510" width="373.646" height="373.646" transform="translate(45 45)" fill="#fff"/>
      </g>
      <g id="Group_204" data-name="Group 204" transform="translate(166.737 3955.615)">
        <g id="Group_202" data-name="Group 202" transform="translate(0 23.396)">
          <path id="Path_2033" data-name="Path 2033" d="M-1869.6,364.035a8.34,8.34,0,0,0,4.479-1.233c.863-.534,1.356-.985,1.89-.985a2.274,2.274,0,0,1,1.932,2.094c0,.823-.781,1.645-1.932,2.3a12.537,12.537,0,0,1-6.658,1.767c-7.4,0-12.7-5.3-12.7-13.931,0-8.59,5.3-13.685,12.658-13.685a12.92,12.92,0,0,1,6.7,1.727c1.191.7,1.932,1.478,1.932,2.259a2.362,2.362,0,0,1-2.014,2.178c-.533,0-1.027-.451-1.89-.985a8.585,8.585,0,0,0-4.561-1.233c-4.685,0-8.179,3.287-8.179,9.7C-1877.942,360.46-1874.366,364.035-1869.6,364.035Z" transform="translate(1882.586 -340.364)"/>
          <path id="Path_2034" data-name="Path 2034" d="M-1845.044,350.233c5.672,0,9.206,3.78,9.206,9.534,0,5.876-3.657,9.657-9.287,9.657-5.672,0-9.206-3.781-9.206-9.533C-1854.331,354.013-1850.673,350.233-1845.044,350.233Zm0,15.575c2.836,0,4.645-2.3,4.645-5.917,0-3.741-1.85-6.083-4.726-6.083-2.836,0-4.645,2.342-4.645,5.959C-1849.77,363.506-1847.92,365.808-1845.044,365.808Z" transform="translate(1878.334 -341.849)"/>
          <path id="Path_2035" data-name="Path 2035" d="M-1823.385,352.267v.9a6.51,6.51,0,0,1,5.712-2.795,5.931,5.931,0,0,1,5.3,2.467,8.491,8.491,0,0,1,1.151,4.807v9.781c0,1.193-.74,1.809-2.219,1.809s-2.219-.616-2.219-1.809v-9.041a4.867,4.867,0,0,0-.658-2.8,3.271,3.271,0,0,0-2.917-1.315,4.747,4.747,0,0,0-3.9,1.89v11.26c0,1.193-.739,1.809-2.22,1.809s-2.218-.616-2.218-1.809V352.267c0-1.191.7-1.807,2.137-1.807C-1823.92,350.46-1823.345,351.2-1823.385,352.267Z" transform="translate(1874.309 -341.871)"/>
          <path id="Path_2036" data-name="Path 2036" d="M-1790.379,366.1a1.556,1.556,0,0,1-.9,1.4,8.006,8.006,0,0,1-3.863.9c-2.794,0-4.315-1.109-5.178-2.671a10.169,10.169,0,0,1-.821-4.972v-7.191h-1.932a1.622,1.622,0,0,1-1.808-1.849,1.622,1.622,0,0,1,1.808-1.849h1.932V345.8c0-1.193.739-1.809,2.219-1.809s2.219.616,2.219,1.809v4.068h4.068a1.622,1.622,0,0,1,1.809,1.849,1.622,1.622,0,0,1-1.809,1.849h-4.068v7.191a6.9,6.9,0,0,0,.411,2.919,1.825,1.825,0,0,0,1.767.944,4.064,4.064,0,0,0,1.438-.287,4.094,4.094,0,0,1,1.028-.247C-1790.831,364.088-1790.379,365.4-1790.379,366.1Z" transform="translate(1870.894 -340.91)"/>
          <path id="Path_2037" data-name="Path 2037" d="M-1778.967,367.432c0,1.193-.74,1.809-2.22,1.809s-2.219-.616-2.219-1.809V352.267c0-1.191.7-1.807,2.137-1.807,1.52,0,2.1.739,2.055,1.807v1.439a5.55,5.55,0,0,1,5.178-3.329c1.356,0,1.89.618,1.89,2.014s-.575,2.014-2.137,2.055c-2.424.083-3.781.782-4.685,2.506Z" transform="translate(1867.662 -341.871)"/>
          <path id="Path_2038" data-name="Path 2038" d="M-1760.658,354.069a7.4,7.4,0,0,0-3.411.9,3.636,3.636,0,0,1-1.561.657,2.059,2.059,0,0,1-1.809-2.137c0-.616.37-1.15,1.357-1.725a11.852,11.852,0,0,1,5.876-1.439c2.959,0,4.767.822,5.918,2.22a6.989,6.989,0,0,1,1.192,4.52v10.274c0,1.274-.493,1.89-2.1,1.89-1.315,0-1.973-.412-1.973-1.315v-.74a6.628,6.628,0,0,1-5.219,2.1c-3.7,0-5.877-2.055-5.877-5.26,0-3.74,3.081-5.876,10.849-6.451v-.411C-1757.412,355.1-1758.357,354.069-1760.658,354.069Zm-2.917,9.576c0,1.15.78,2.055,2.671,2.055a5.638,5.638,0,0,0,3.493-1.274v-3.986C-1761.562,360.931-1763.576,361.713-1763.576,363.644Z" transform="translate(1865.383 -341.863)"/>
          <path id="Path_2039" data-name="Path 2039" d="M-1745.5,355.754c0-3.247,2.548-5.425,6.822-5.425a10.989,10.989,0,0,1,5.384,1.315c.945.575,1.356,1.152,1.356,1.849a2.051,2.051,0,0,1-1.849,2.1,4.12,4.12,0,0,1-1.644-.616,7.3,7.3,0,0,0-3.41-.9c-1.521,0-2.384.618-2.384,1.561,0,2.837,9.535,1.727,9.535,8.138,0,3.411-2.63,5.588-6.945,5.588a10.466,10.466,0,0,1-5.672-1.519c-.9-.575-1.356-1.193-1.356-1.89a2.09,2.09,0,0,1,1.931-2.1c.453,0,.781.245,1.439.616a7.228,7.228,0,0,0,3.7,1.149c1.561,0,2.589-.657,2.589-1.725C-1736.01,360.931-1745.5,362.042-1745.5,355.754Z" transform="translate(1861.984 -341.863)"/>
          <path id="Path_2040" data-name="Path 2040" d="M-1712.341,366.1a1.557,1.557,0,0,1-.9,1.4,8.016,8.016,0,0,1-3.864.9c-2.794,0-4.315-1.109-5.178-2.671a10.166,10.166,0,0,1-.823-4.972v-7.191h-1.931a1.622,1.622,0,0,1-1.809-1.849,1.622,1.622,0,0,1,1.809-1.849h1.931V345.8c0-1.193.74-1.809,2.219-1.809s2.22.616,2.22,1.809v4.068h4.068a1.622,1.622,0,0,1,1.808,1.849,1.622,1.622,0,0,1-1.808,1.849h-4.068v7.191a6.914,6.914,0,0,0,.41,2.919,1.827,1.827,0,0,0,1.768.944,4.065,4.065,0,0,0,1.438-.287,4.1,4.1,0,0,1,1.028-.247C-1712.793,364.088-1712.341,365.4-1712.341,366.1Z" transform="translate(1859.152 -340.91)"/>
        </g>
        <g id="Group_203" data-name="Group 203" transform="translate(23.805)">
          <path id="Path_2041" data-name="Path 2041" d="M-1851.919,319.849a4.129,4.129,0,0,1-1.016-.1v2.407c0,.433-.269.658-.808.658s-.822-.224-.822-.658V314.2c0-.508,0-.9.748-1.105a7.083,7.083,0,0,1,1.7-.179c2.361,0,4.066,1.061,4.066,3.423C-1848.047,318.742-1849.8,319.849-1851.919,319.849Zm-.12-1.405c1.45,0,2.3-.733,2.3-2.048,0-1.465-1.032-2.062-2.377-2.062a5.4,5.4,0,0,0-.823.074v3.947A4.817,4.817,0,0,0-1852.039,318.443Z" transform="translate(1854.565 -312.837)" fill="#999"/>
          <path id="Path_2042" data-name="Path 2042" d="M-1834.055,313.605v8.551c0,.433-.268.658-.807.658s-.822-.224-.822-.658v-3.707h-4.426v3.707c0,.433-.268.658-.807.658s-.823-.224-.823-.658v-8.551c0-.433.27-.658.823-.658s.807.225.807.658V317h4.426v-3.394c0-.433.269-.658.822-.658S-1834.055,313.172-1834.055,313.605Z" transform="translate(1852.635 -312.842)" fill="#999"/>
          <path id="Path_2043" data-name="Path 2043" d="M-1822.589,312.824c2.855,0,4.724,1.958,4.724,5.038s-1.869,5.039-4.724,5.039-4.723-1.958-4.723-5.039S-1825.444,312.824-1822.589,312.824Zm0,8.657c1.824,0,3.034-1.377,3.034-3.619s-1.21-3.618-3.034-3.618-3.034,1.376-3.034,3.618S-1824.413,321.481-1822.589,321.481Z" transform="translate(1850.464 -312.824)" fill="#999"/>
          <path id="Path_2044" data-name="Path 2044" d="M-1807.574,322.169c0,.433-.269.658-.822.658s-.823-.224-.823-.658v-7.683h-2.377c-.433,0-.657-.24-.657-.733,0-.478.225-.718.657-.718h6.4c.433,0,.658.24.658.718,0,.494-.225.733-.658.733h-2.377Z" transform="translate(1848.198 -312.856)" fill="#999"/>
          <path id="Path_2045" data-name="Path 2045" d="M-1794.51,312.824c2.854,0,4.723,1.958,4.723,5.038s-1.869,5.039-4.723,5.039-4.724-1.958-4.724-5.039S-1797.366,312.824-1794.51,312.824Zm0,8.657c1.823,0,3.035-1.377,3.035-3.619s-1.212-3.618-3.035-3.618-3.035,1.376-3.035,3.618S-1796.334,321.481-1794.51,321.481Z" transform="translate(1846.239 -312.824)" fill="#999"/>
          <path id="Path_2046" data-name="Path 2046" d="M-1772.019,322.169c0,.433-.268.658-.822.658s-.823-.224-.823-.658v-7.683h-2.377c-.433,0-.657-.24-.657-.733,0-.478.224-.718.657-.718h6.4c.433,0,.658.24.658.718,0,.494-.225.733-.658.733h-2.377Z" transform="translate(1842.848 -312.856)" fill="#999"/>
          <path id="Path_2047" data-name="Path 2047" d="M-1760.941,322.156c0,.433-.268.658-.807.658s-.822-.224-.822-.658v-8.551c0-.433.269-.658.822-.658s.807.225.807.658Z" transform="translate(1840.722 -312.842)" fill="#999"/>
          <path id="Path_2048" data-name="Path 2048" d="M-1752.131,319.849a4.131,4.131,0,0,1-1.016-.1v2.407c0,.433-.269.658-.807.658s-.823-.224-.823-.658V314.2c0-.508,0-.9.749-1.105a7.081,7.081,0,0,1,1.7-.179c2.362,0,4.067,1.061,4.067,3.423C-1748.258,318.742-1750.008,319.849-1752.131,319.849Zm-.12-1.405c1.45,0,2.3-.733,2.3-2.048,0-1.465-1.031-2.062-2.377-2.062a5.394,5.394,0,0,0-.822.074v3.947A4.824,4.824,0,0,0-1752.25,318.443Z" transform="translate(1839.55 -312.837)" fill="#999"/>
          <path id="Path_2049" data-name="Path 2049" d="M-1740.9,318.769a.949.949,0,0,1-1-1,.949.949,0,0,1,1-1,.949.949,0,0,1,1,1A.949.949,0,0,1-1740.9,318.769Zm0,4.171a.95.95,0,0,1-1-1,.95.95,0,0,1,1-1,.95.95,0,0,1,1,1A.95.95,0,0,1-1740.9,322.94Z" transform="translate(1837.611 -313.417)" fill="#999"/>
        </g>
      </g>
      <g id="Group_208" data-name="Group 208" transform="translate(185.303 3813.064)">
        <g id="Group_207" data-name="Group 207">
          <g id="Group_205" data-name="Group 205" transform="translate(56.047 7.473)">
            <path id="Path_2050" data-name="Path 2050" d="M-1794.757,153.821a48.63,48.63,0,0,1,48.574,48.573,48.631,48.631,0,0,1-48.574,48.574Z" transform="translate(1794.757 -153.821)" fill="#fff"/>
          </g>
          <g id="Group_206" data-name="Group 206">
            <path id="Path_2051" data-name="Path 2051" d="M-1804.684,145.024a56.048,56.048,0,0,1,56.048,56.047,56.048,56.048,0,0,1-56.048,56.047,56.048,56.048,0,0,1-56.047-56.047A56.048,56.048,0,0,1-1804.684,145.024Zm48.574,56.047a48.63,48.63,0,0,0-48.574-48.573v97.148A48.63,48.63,0,0,0-1756.11,201.071Z" transform="translate(1860.731 -145.024)" fill="#a75d8b"/>
          </g>
        </g>
      </g>
    </g>
    <g id="Group_658" data-name="Group 658">
      <g transform="matrix(1, 0, 0, 1, 8.03, 3690.35)" filter="url(#Rectangle_5511)">
        <rect id="Rectangle_5511-2" data-name="Rectangle 5511" width="373.646" height="373.646" transform="translate(928.6 45)" fill="#fff"/>
      </g>
      <g id="Group_213" data-name="Group 213" transform="translate(1049.945 3955.615)">
        <g id="Group_211" data-name="Group 211" transform="translate(23.447)">
          <path id="Path_2052" data-name="Path 2052" d="M-812.693,319.848a4.168,4.168,0,0,1-1.016-.1v2.407c0,.433-.268.658-.807.658-.554,0-.823-.224-.823-.658V314.2c0-.508,0-.9.748-1.106a7.083,7.083,0,0,1,1.7-.179c2.362,0,4.066,1.061,4.066,3.424C-808.821,318.742-810.57,319.848-812.693,319.848Zm-.12-1.405c1.45,0,2.3-.733,2.3-2.048,0-1.465-1.032-2.063-2.377-2.063a5.5,5.5,0,0,0-.822.074v3.947A4.82,4.82,0,0,0-812.813,318.443Z" transform="translate(815.339 -312.837)" fill="#999"/>
          <path id="Path_2053" data-name="Path 2053" d="M-794.829,313.6v8.551c0,.433-.269.658-.807.658-.554,0-.822-.224-.822-.658v-3.707h-4.425v3.707c0,.433-.269.658-.807.658s-.822-.224-.822-.658V313.6c0-.433.27-.658.822-.658s.807.224.807.658V317h4.425V313.6c0-.433.268-.658.822-.658C-795.1,312.947-794.829,313.171-794.829,313.6Z" transform="translate(813.409 -312.842)" fill="#999"/>
          <path id="Path_2054" data-name="Path 2054" d="M-783.363,312.824c2.855,0,4.724,1.958,4.724,5.038s-1.869,5.038-4.724,5.038-4.723-1.958-4.723-5.038S-786.218,312.824-783.363,312.824Zm0,8.656c1.824,0,3.035-1.376,3.035-3.618s-1.211-3.618-3.035-3.618-3.034,1.376-3.034,3.618S-785.187,321.48-783.363,321.48Z" transform="translate(811.238 -312.824)" fill="#999"/>
          <path id="Path_2055" data-name="Path 2055" d="M-768.348,322.169c0,.433-.268.658-.822.658s-.822-.224-.822-.658v-7.684h-2.377c-.433,0-.657-.24-.657-.733,0-.477.224-.717.657-.717h6.4c.433,0,.658.24.658.717,0,.494-.224.733-.658.733h-2.377Z" transform="translate(808.972 -312.856)" fill="#999"/>
          <path id="Path_2056" data-name="Path 2056" d="M-755.284,312.824c2.854,0,4.723,1.958,4.723,5.038s-1.869,5.038-4.723,5.038-4.724-1.958-4.724-5.038S-758.14,312.824-755.284,312.824Zm0,8.656c1.823,0,3.034-1.376,3.034-3.618s-1.211-3.618-3.034-3.618-3.034,1.376-3.034,3.618S-757.108,321.48-755.284,321.48Z" transform="translate(807.013 -312.824)" fill="#999"/>
          <path id="Path_2057" data-name="Path 2057" d="M-732.793,322.169c0,.433-.268.658-.821.658s-.822-.224-.822-.658v-7.684h-2.377c-.433,0-.658-.24-.658-.733,0-.477.224-.717.658-.717h6.4c.434,0,.658.24.658.717,0,.494-.224.733-.658.733h-2.377Z" transform="translate(803.622 -312.856)" fill="#999"/>
          <path id="Path_2058" data-name="Path 2058" d="M-721.715,322.156c0,.433-.268.658-.807.658s-.822-.224-.822-.658V313.6c0-.433.269-.658.822-.658s.807.224.807.658Z" transform="translate(801.496 -312.842)" fill="#999"/>
          <path id="Path_2059" data-name="Path 2059" d="M-712.9,319.848a4.18,4.18,0,0,1-1.017-.1v2.407c0,.433-.268.658-.807.658s-.822-.224-.822-.658V314.2c0-.508,0-.9.748-1.106a7.084,7.084,0,0,1,1.7-.179c2.361,0,4.066,1.061,4.066,3.424C-709.032,318.742-710.782,319.848-712.9,319.848Zm-.12-1.405c1.45,0,2.3-.733,2.3-2.048,0-1.465-1.031-2.063-2.376-2.063a5.516,5.516,0,0,0-.823.074v3.947A4.834,4.834,0,0,0-713.024,318.443Z" transform="translate(800.324 -312.837)" fill="#999"/>
          <path id="Path_2060" data-name="Path 2060" d="M-701.67,318.769a.949.949,0,0,1-1-1,.949.949,0,0,1,1-1,.949.949,0,0,1,1,1A.95.95,0,0,1-701.67,318.769Zm0,4.17a.949.949,0,0,1-1-1,.949.949,0,0,1,1-1,.949.949,0,0,1,1,1A.949.949,0,0,1-701.67,322.939Z" transform="translate(798.386 -313.417)" fill="#999"/>
        </g>
        <g id="Group_212" data-name="Group 212" transform="translate(0 22.574)">
          <path id="Path_2061" data-name="Path 2061" d="M-823.87,342.257c.37-1.027.945-1.6,2.589-1.6,1.562,0,2.1.534,2.1,1.274a6.3,6.3,0,0,1-.37,1.521l-8.425,22.191a2.83,2.83,0,0,1-3.165,2.137,2.829,2.829,0,0,1-3.164-2.137l-8.26-22.191a4.839,4.839,0,0,1-.371-1.521c0-.74.493-1.274,2.137-1.274,1.726,0,2.3.576,2.673,1.6l7.109,19.972Z" transform="translate(842.939 -339.585)"/>
          <path id="Path_2062" data-name="Path 2062" d="M-808.406,345.919a2.688,2.688,0,0,1-2.795-2.753,2.688,2.688,0,0,1,2.795-2.754,2.688,2.688,0,0,1,2.793,2.754A2.688,2.688,0,0,1-808.406,345.919Zm2.218,20.013c0,1.192-.74,1.809-2.218,1.809s-2.22-.617-2.22-1.809V350.768c0-1.192.74-1.808,2.22-1.808s2.218.616,2.218,1.808Z" transform="translate(838.163 -339.549)"/>
          <path id="Path_2063" data-name="Path 2063" d="M-791.351,367.711a12.368,12.368,0,0,1-5.959-1.4c-1.6-.945-1.6-2.1-1.6-3.288V341.2c0-1.192.74-1.809,2.22-1.809s2.219.617,2.219,1.809V350a6.9,6.9,0,0,1,4.315-1.274c5.056,0,8.507,3.411,8.507,9.246C-781.653,363.889-785.229,367.711-791.351,367.711Zm0-3.616c3.164,0,5.136-2.179,5.136-5.835,0-3.617-1.931-5.918-4.973-5.918a5.047,5.047,0,0,0-3.287,1.109v9.781A5.909,5.909,0,0,0-791.351,364.1Z" transform="translate(836.314 -339.396)"/>
          <path id="Path_2064" data-name="Path 2064" d="M-769.221,367.432c0,1.192-.738,1.809-2.218,1.809s-2.219-.617-2.219-1.809V352.267c0-1.192.7-1.808,2.137-1.808,1.52,0,2.1.74,2.055,1.808v1.438a5.549,5.549,0,0,1,5.177-3.328c1.356,0,1.89.617,1.89,2.013s-.575,2.014-2.136,2.055c-2.425.083-3.78.782-4.685,2.507Z" transform="translate(832.514 -341.048)"/>
          <path id="Path_2065" data-name="Path 2065" d="M-750.912,354.069a7.394,7.394,0,0,0-3.411.9c-.7.37-1.069.658-1.562.658a2.06,2.06,0,0,1-1.809-2.137c0-.617.369-1.151,1.357-1.726a11.857,11.857,0,0,1,5.876-1.438c2.96,0,4.767.822,5.918,2.22a6.983,6.983,0,0,1,1.191,4.52v10.274c0,1.274-.492,1.891-2.1,1.891-1.315,0-1.972-.412-1.972-1.315v-.74a6.632,6.632,0,0,1-5.22,2.1c-3.7,0-5.876-2.055-5.876-5.26,0-3.74,3.081-5.877,10.849-6.452v-.41C-747.666,355.1-748.612,354.069-750.912,354.069Zm-2.918,9.575c0,1.151.781,2.055,2.671,2.055a5.641,5.641,0,0,0,3.493-1.273v-3.986C-751.817,360.931-753.83,361.713-753.83,363.644Z" transform="translate(830.235 -341.041)"/>
          <path id="Path_2066" data-name="Path 2066" d="M-730.326,352.267v.9a6.509,6.509,0,0,1,5.712-2.795,5.933,5.933,0,0,1,5.3,2.466,8.494,8.494,0,0,1,1.149,4.807v9.781c0,1.192-.74,1.809-2.218,1.809s-2.22-.617-2.22-1.809v-9.042a4.869,4.869,0,0,0-.657-2.794,3.271,3.271,0,0,0-2.918-1.315,4.747,4.747,0,0,0-3.9,1.89v11.26c0,1.192-.74,1.809-2.218,1.809s-2.22-.617-2.22-1.809V352.267c0-1.192.7-1.808,2.137-1.808C-730.861,350.459-730.286,351.2-730.326,352.267Z" transform="translate(826.625 -341.048)"/>
          <path id="Path_2067" data-name="Path 2067" d="M-701.357,365.534a5.453,5.453,0,0,0,2.836-.821,2.555,2.555,0,0,1,1.356-.534,1.971,1.971,0,0,1,1.931,2.013,2.036,2.036,0,0,1-1.068,1.685,9.308,9.308,0,0,1-5.179,1.479c-5.136,0-9.041-3.78-9.041-9.533,0-5.631,3.74-9.493,9.041-9.493a9.535,9.535,0,0,1,5.179,1.4,1.972,1.972,0,0,1,1.068,1.645,2.04,2.04,0,0,1-1.89,2.137,2.982,2.982,0,0,1-1.4-.534,5.2,5.2,0,0,0-2.836-.822c-2.959,0-4.6,2.137-4.6,5.589C-705.961,363.151-704.359,365.534-701.357,365.534Z" transform="translate(823.014 -341.041)"/>
          <path id="Path_2068" data-name="Path 2068" d="M-673.794,366.1c0,.658-.411,1.233-1.274,1.767a10.6,10.6,0,0,1-5.753,1.479c-5.672,0-9.041-3.575-9.041-9.451,0-5.836,3.328-9.658,8.506-9.658,4.848,0,8.013,3.411,8.013,8.137,0,2.589-1.069,2.877-2.63,2.877h-9.493c.411,2.713,1.932,4.315,4.85,4.315a6.824,6.824,0,0,0,3.452-.863,3.194,3.194,0,0,1,1.521-.575A1.908,1.908,0,0,1-673.794,366.1Zm-11.712-8.1h7.849c0-2.465-1.274-4.233-3.78-4.233C-683.739,353.766-685.136,355.287-685.506,358Z" transform="translate(819.905 -341.027)"/>
        </g>
      </g>
      <g id="Group_216" data-name="Group 216" transform="translate(1067.406 3818.202)">
        <g id="Group_214" data-name="Group 214">
          <path id="Path_2069" data-name="Path 2069" d="M-778.949,188.392-753.14,158a4.213,4.213,0,0,0-.483-5.931,4.17,4.17,0,0,0-3.065-.986,4.18,4.18,0,0,0-2.865,1.469l-25.81,30.389a21.071,21.071,0,0,0-26.322,4.783,21.069,21.069,0,0,0-.458,26.749l-9.243,10.883a4.212,4.212,0,0,0,.483,5.931,4.19,4.19,0,0,0,2.72,1,4.2,4.2,0,0,0,3.211-1.482l9.242-10.883a21.067,21.067,0,0,0,26.322-4.784A21.066,21.066,0,0,0-778.949,188.392Zm-22.219,24.44a12.585,12.585,0,0,1-2.632-1.678,12.677,12.677,0,0,1-2.082-2.323,12.72,12.72,0,0,1,.618-15.651,12.667,12.667,0,0,1,9.673-4.469,12.808,12.808,0,0,1,5.673,1.328,12.28,12.28,0,0,1,2.631,1.671,12.361,12.361,0,0,1,2.078,2.329,12.723,12.723,0,0,1-.611,15.654A12.72,12.72,0,0,1-801.168,212.832Z" transform="translate(822.385 -151.072)" fill="#a75d8b"/>
        </g>
        <g id="Group_215" data-name="Group 215" transform="translate(41.85 35.542)">
          <path id="Path_2070" data-name="Path 2070" d="M-704.359,193.912a4.162,4.162,0,0,0-3.065-.986,4.178,4.178,0,0,0-2.864,1.47l-9.243,10.882a21.058,21.058,0,0,0-26.323,4.785,21.065,21.065,0,0,0-.458,26.748L-772.121,267.2a4.173,4.173,0,0,0-.986,3.065,4.18,4.18,0,0,0,1.469,2.865,4.172,4.172,0,0,0,2.718,1c.115,0,.231-.005.347-.014a4.187,4.187,0,0,0,2.866-1.469l25.808-30.388a21.064,21.064,0,0,0,26.317-4.789,21.054,21.054,0,0,0,.464-26.744l9.243-10.883A4.213,4.213,0,0,0-704.359,193.912ZM-720,232.021a12.713,12.713,0,0,1-15.342,3.144,12.576,12.576,0,0,1-2.631-1.678,12.684,12.684,0,0,1-2.082-2.323,12.724,12.724,0,0,1,.612-15.655,12.664,12.664,0,0,1,9.67-4.469,12.807,12.807,0,0,1,5.681,1.332,12.384,12.384,0,0,1,2.633,1.671,12.547,12.547,0,0,1,2.078,2.329A12.709,12.709,0,0,1-720,232.021Z" transform="translate(773.122 -192.91)" fill="#a75d8b"/>
        </g>
      </g>
    </g>
    <g id="Group_884" data-name="Group 884" transform="translate(-3.217 -10)">
      <g id="Group_659" data-name="Group 659">
        <g transform="matrix(1, 0, 0, 1, 11.25, 3700.35)" filter="url(#Rectangle_5512)">
          <rect id="Rectangle_5512-2" data-name="Rectangle 5512" width="373.646" height="373.646" transform="translate(45.97 487.86)" fill="#fff"/>
        </g>
        <g id="Group_219" data-name="Group 219" transform="translate(180.265 4268.156)">
          <path id="Path_2071" data-name="Path 2071" d="M-1743.582,762.173h-29.867v-49.1h-50.429V685.029a4.362,4.362,0,0,0-4.305-4.305,4.363,4.363,0,0,0-4.305,4.305v28.042h-29.867a4.363,4.363,0,0,0-4.306,4.305,4.363,4.363,0,0,0,4.306,4.305h30.032v49.268h50.263v28.041a4.363,4.363,0,0,0,4.305,4.306,4.363,4.363,0,0,0,4.306-4.306V770.951h30.032a4.364,4.364,0,0,0,4.307-4.306A4.531,4.531,0,0,0-1743.582,762.173Zm-38.643-40.491v40.657h-41.653V721.682Z" transform="translate(1866.661 -680.724)" fill="#a75d8b"/>
        </g>
        <g id="Group_220" data-name="Group 220" transform="translate(193.979 4408.473)">
          <path id="Path_2072" data-name="Path 2072" d="M-1847.872,852.92a4.122,4.122,0,0,1-1.017-.105v2.407c0,.434-.269.658-.807.658s-.823-.224-.823-.658v-7.952c0-.508,0-.9.748-1.106a7.094,7.094,0,0,1,1.7-.179c2.362,0,4.067,1.061,4.067,3.424C-1844,851.814-1845.749,852.92-1847.872,852.92Zm-.12-1.405c1.45,0,2.3-.733,2.3-2.048,0-1.465-1.032-2.063-2.377-2.063a5.5,5.5,0,0,0-.822.074v3.947A4.828,4.828,0,0,0-1847.992,851.515Z" transform="translate(1850.518 -845.908)" fill="#999"/>
          <path id="Path_2073" data-name="Path 2073" d="M-1830.008,846.677v8.55c0,.434-.269.658-.807.658s-.822-.224-.822-.658V851.52h-4.426v3.706c0,.434-.269.658-.807.658s-.822-.224-.822-.658v-8.55c0-.433.269-.658.822-.658s.807.224.807.658v3.394h4.426v-3.394c0-.433.268-.658.822-.658S-1830.008,846.243-1830.008,846.677Z" transform="translate(1848.588 -845.914)" fill="#999"/>
          <path id="Path_2074" data-name="Path 2074" d="M-1818.542,845.9c2.854,0,4.723,1.959,4.723,5.038s-1.869,5.038-4.723,5.038-4.724-1.959-4.724-5.038S-1821.4,845.9-1818.542,845.9Zm0,8.656c1.823,0,3.033-1.375,3.033-3.617s-1.21-3.618-3.033-3.618-3.034,1.375-3.034,3.618S-1820.366,854.551-1818.542,854.551Z" transform="translate(1846.417 -845.895)" fill="#999"/>
          <path id="Path_2075" data-name="Path 2075" d="M-1803.528,855.24c0,.434-.268.657-.821.657s-.823-.223-.823-.657v-7.683h-2.377c-.434,0-.657-.24-.657-.733,0-.478.223-.717.657-.717h6.4c.433,0,.658.239.658.717,0,.494-.225.733-.658.733h-2.377Z" transform="translate(1844.151 -845.927)" fill="#999"/>
          <path id="Path_2076" data-name="Path 2076" d="M-1790.464,845.9c2.855,0,4.724,1.959,4.724,5.038s-1.869,5.038-4.724,5.038-4.723-1.959-4.723-5.038S-1793.319,845.9-1790.464,845.9Zm0,8.656c1.824,0,3.035-1.375,3.035-3.617s-1.21-3.618-3.035-3.618-3.035,1.375-3.035,3.618S-1792.288,854.551-1790.464,854.551Z" transform="translate(1842.192 -845.895)" fill="#999"/>
          <path id="Path_2077" data-name="Path 2077" d="M-1767.971,855.24c0,.434-.269.657-.823.657s-.822-.223-.822-.657v-7.683h-2.377c-.433,0-.658-.24-.658-.733,0-.478.224-.717.658-.717h6.4c.433,0,.657.239.657.717,0,.494-.224.733-.657.733h-2.377Z" transform="translate(1838.801 -845.927)" fill="#999"/>
          <path id="Path_2078" data-name="Path 2078" d="M-1756.894,855.227c0,.434-.269.658-.808.658s-.823-.224-.823-.658v-8.55c0-.433.269-.658.823-.658s.808.224.808.658Z" transform="translate(1836.675 -845.914)" fill="#999"/>
          <path id="Path_2079" data-name="Path 2079" d="M-1748.085,852.92a4.117,4.117,0,0,1-1.016-.105v2.407c0,.434-.269.658-.807.658s-.822-.224-.822-.658v-7.952c0-.508,0-.9.747-1.106a7.094,7.094,0,0,1,1.7-.179c2.362,0,4.066,1.061,4.066,3.424C-1744.213,851.814-1745.961,852.92-1748.085,852.92Zm-.119-1.405c1.449,0,2.3-.733,2.3-2.048,0-1.465-1.032-2.063-2.377-2.063a5.5,5.5,0,0,0-.822.074v3.947A4.821,4.821,0,0,0-1748.2,851.515Z" transform="translate(1835.502 -845.908)" fill="#999"/>
          <path id="Path_2080" data-name="Path 2080" d="M-1736.85,851.841a.95.95,0,0,1-1-1,.95.95,0,0,1,1-1,.95.95,0,0,1,1,1A.949.949,0,0,1-1736.85,851.841Zm0,4.17a.949.949,0,0,1-1-1,.949.949,0,0,1,1-1,.949.949,0,0,1,1,1A.949.949,0,0,1-1736.85,856.011Z" transform="translate(1833.565 -846.488)" fill="#999"/>
        </g>
        <g id="Group_221" data-name="Group 221" transform="translate(205.262 4431.869)">
          <path id="Path_2081" data-name="Path 2081" d="M-1824.25,897.106a8.349,8.349,0,0,0,4.48-1.233c.862-.534,1.356-.986,1.89-.986a2.273,2.273,0,0,1,1.931,2.1c0,.822-.781,1.644-1.931,2.3a12.532,12.532,0,0,1-6.657,1.767c-7.4,0-12.7-5.3-12.7-13.93,0-8.59,5.3-13.686,12.657-13.686a12.929,12.929,0,0,1,6.7,1.727c1.191.7,1.931,1.479,1.931,2.26a2.361,2.361,0,0,1-2.013,2.178c-.534,0-1.027-.452-1.891-.986a8.581,8.581,0,0,0-4.561-1.234c-4.686,0-8.179,3.288-8.179,9.7C-1832.594,893.531-1829.017,897.106-1824.25,897.106Z" transform="translate(1837.237 -873.435)"/>
          <path id="Path_2082" data-name="Path 2082" d="M-1803.189,900.5c0,1.192-.739,1.809-2.219,1.809s-2.218-.617-2.218-1.809V885.339c0-1.192.7-1.808,2.137-1.808,1.519,0,2.1.739,2.055,1.808v1.438a5.549,5.549,0,0,1,5.177-3.329c1.356,0,1.89.617,1.89,2.014s-.575,2.014-2.137,2.055c-2.424.082-3.78.781-4.685,2.507Z" transform="translate(1832.781 -874.942)"/>
          <path id="Path_2083" data-name="Path 2083" d="M-1783.584,883.3c5.671,0,9.205,3.781,9.205,9.534,0,5.876-3.658,9.657-9.288,9.657-5.671,0-9.205-3.781-9.205-9.534C-1792.872,887.085-1789.214,883.3-1783.584,883.3Zm0,15.575c2.836,0,4.644-2.3,4.644-5.918,0-3.739-1.849-6.082-4.727-6.082-2.835,0-4.644,2.343-4.644,5.959C-1788.311,896.578-1786.461,898.879-1783.584,898.879Z" transform="translate(1830.562 -874.92)"/>
          <path id="Path_2084" data-name="Path 2084" d="M-1761.679,908.354c0,1.192-.74,1.808-2.218,1.808s-2.221-.616-2.221-1.808V885.339c0-1.233.74-1.808,2.178-1.808,1.357,0,1.933.493,1.933,1.438v.575a6.363,6.363,0,0,1,5.013-2.1c4.6,0,8.136,3.452,8.136,9.288,0,5.917-3.616,9.616-9.082,9.616a6.907,6.907,0,0,1-3.74-.9Zm3.165-9.617c3.124,0,5.1-2.136,5.1-5.753,0-3.74-2.013-5.917-4.931-5.917a4.915,4.915,0,0,0-3.329,1.232v9.493A5.521,5.521,0,0,0-1758.515,898.736Z" transform="translate(1826.536 -874.942)"/>
        </g>
      </g>
      <g id="Group_660" data-name="Group 660">
        <g transform="matrix(1, 0, 0, 1, 11.25, 3700.35)" filter="url(#Rectangle_5513)">
          <rect id="Rectangle_5513-2" data-name="Rectangle 5513" width="373.646" height="373.646" transform="translate(487.77 487.86)" fill="#fff"/>
        </g>
        <g id="Group_223" data-name="Group 223" transform="translate(635.778 4408.477)">
          <path id="Path_2085" data-name="Path 2085" d="M-1327.821,852.922a4.156,4.156,0,0,1-1.016-.1v2.406c0,.434-.27.658-.807.658-.553,0-.822-.224-.822-.658v-7.951c0-.508,0-.9.747-1.106a7.122,7.122,0,0,1,1.7-.179c2.361,0,4.065,1.061,4.065,3.423C-1323.949,851.816-1325.7,852.922-1327.821,852.922Zm-.119-1.4c1.449,0,2.3-.732,2.3-2.048,0-1.465-1.031-2.063-2.376-2.063a5.381,5.381,0,0,0-.822.075v3.946A4.812,4.812,0,0,0-1327.939,851.517Z" transform="translate(1330.466 -845.912)" fill="#999"/>
          <path id="Path_2086" data-name="Path 2086" d="M-1309.959,846.68v8.549c0,.434-.268.658-.807.658s-.822-.224-.822-.658v-3.706h-4.423v3.706c0,.434-.269.658-.807.658-.553,0-.822-.224-.822-.658V846.68c0-.433.269-.658.822-.658.538,0,.807.224.807.658v3.393h4.423V846.68c0-.433.27-.658.822-.658S-1309.959,846.246-1309.959,846.68Z" transform="translate(1328.536 -845.917)" fill="#999"/>
          <path id="Path_2087" data-name="Path 2087" d="M-1298.49,845.9c2.854,0,4.722,1.958,4.722,5.037s-1.867,5.037-4.722,5.037-4.724-1.958-4.724-5.037S-1301.346,845.9-1298.49,845.9Zm0,8.654c1.823,0,3.034-1.375,3.034-3.617s-1.211-3.617-3.034-3.617-3.036,1.376-3.036,3.617S-1300.314,854.553-1298.49,854.553Z" transform="translate(1326.365 -845.899)" fill="#999"/>
          <path id="Path_2088" data-name="Path 2088" d="M-1283.476,855.242c0,.434-.269.658-.823.658s-.822-.224-.822-.658v-7.682h-2.376c-.433,0-.658-.239-.658-.731s.224-.718.658-.718h6.4c.433,0,.657.24.657.718s-.224.731-.657.731h-2.376Z" transform="translate(1324.099 -845.931)" fill="#999"/>
          <path id="Path_2089" data-name="Path 2089" d="M-1270.411,845.9c2.854,0,4.721,1.958,4.721,5.037s-1.867,5.037-4.721,5.037-4.724-1.958-4.724-5.037S-1273.267,845.9-1270.411,845.9Zm0,8.654c1.822,0,3.033-1.375,3.033-3.617s-1.211-3.617-3.033-3.617-3.035,1.376-3.035,3.617S-1272.235,854.553-1270.411,854.553Z" transform="translate(1322.14 -845.899)" fill="#999"/>
          <path id="Path_2090" data-name="Path 2090" d="M-1247.921,855.242c0,.434-.268.658-.822.658s-.822-.224-.822-.658v-7.682h-2.376c-.433,0-.658-.239-.658-.731s.225-.718.658-.718h6.4c.433,0,.656.24.656.718s-.223.731-.656.731h-2.377Z" transform="translate(1318.749 -845.931)" fill="#999"/>
          <path id="Path_2091" data-name="Path 2091" d="M-1236.843,855.228c0,.434-.269.658-.807.658s-.822-.224-.822-.658V846.68c0-.433.27-.658.822-.658s.807.224.807.658Z" transform="translate(1316.623 -845.917)" fill="#999"/>
          <path id="Path_2092" data-name="Path 2092" d="M-1228.032,852.922a4.171,4.171,0,0,1-1.017-.1v2.406c0,.434-.269.658-.807.658-.553,0-.822-.224-.822-.658v-7.951c0-.508,0-.9.747-1.106a7.123,7.123,0,0,1,1.7-.179c2.361,0,4.065,1.061,4.065,3.423C-1224.161,851.816-1225.91,852.922-1228.032,852.922Zm-.12-1.4c1.449,0,2.3-.732,2.3-2.048,0-1.465-1.031-2.063-2.376-2.063a5.388,5.388,0,0,0-.823.075v3.946A4.82,4.82,0,0,0-1228.151,851.517Z" transform="translate(1315.45 -845.912)" fill="#999"/>
          <path id="Path_2093" data-name="Path 2093" d="M-1216.8,851.842a.949.949,0,0,1-1-1,.95.95,0,0,1,1-1,.949.949,0,0,1,1,1A.948.948,0,0,1-1216.8,851.842Zm0,4.17a.95.95,0,0,1-1-1,.95.95,0,0,1,1-1,.949.949,0,0,1,1,1A.949.949,0,0,1-1216.8,856.013Z" transform="translate(1313.513 -846.492)" fill="#999"/>
        </g>
        <g id="Group_224" data-name="Group 224" transform="translate(630.928 4431.042)">
          <path id="Path_2094" data-name="Path 2094" d="M-1323.185,896.96a8.352,8.352,0,0,0,4.482-1.234c.862-.534,1.356-.986,1.89-.986a2.276,2.276,0,0,1,1.933,2.1c0,.822-.781,1.645-1.933,2.3a12.534,12.534,0,0,1-6.66,1.767c-7.4,0-12.7-5.3-12.7-13.934,0-8.591,5.3-13.688,12.66-13.688a12.938,12.938,0,0,1,6.7,1.725c1.193.7,1.933,1.48,1.933,2.261a2.365,2.365,0,0,1-2.014,2.179c-.534,0-1.028-.453-1.891-.988a8.589,8.589,0,0,0-4.563-1.233c-4.686,0-8.18,3.288-8.18,9.7C-1331.529,893.383-1327.952,896.96-1323.185,896.96Zm16.646,1.89c0,1.193-.74,1.809-2.219,1.809s-2.221-.616-2.221-1.809V874.27c0-1.192.74-1.809,2.221-1.809s2.219.617,2.219,1.809Zm11.754-13.359a7.405,7.405,0,0,0-3.412.9c-.7.37-1.069.658-1.562.658a2.062,2.062,0,0,1-1.809-2.138c0-.616.37-1.15,1.356-1.726a11.87,11.87,0,0,1,5.878-1.438c2.96,0,4.769.822,5.919,2.22a6.987,6.987,0,0,1,1.192,4.521v10.277c0,1.274-.493,1.89-2.1,1.89-1.314,0-1.972-.411-1.972-1.316v-.74a6.632,6.632,0,0,1-5.22,2.1c-3.7,0-5.878-2.055-5.878-5.261,0-3.741,3.083-5.878,10.852-6.454v-.41C-1291.537,886.519-1292.483,885.491-1294.785,885.491Zm-2.919,9.577c0,1.152.782,2.056,2.673,2.056a5.643,5.643,0,0,0,3.494-1.274v-3.987C-1295.69,892.355-1297.7,893.137-1297.7,895.068Zm20.14,3.782c0,1.193-.74,1.809-2.219,1.809s-2.22-.616-2.22-1.809V883.682c0-1.192.7-1.809,2.138-1.809,1.521,0,2.1.74,2.055,1.809v1.438a5.552,5.552,0,0,1,5.18-3.329c1.357,0,1.891.617,1.891,2.014s-.576,2.014-2.137,2.055c-2.425.082-3.782.781-4.687,2.508Zm12.208-20.018a2.689,2.689,0,0,1-2.8-2.753,2.689,2.689,0,0,1,2.8-2.754,2.689,2.689,0,0,1,2.8,2.754A2.69,2.69,0,0,1-1265.357,878.832Zm2.22,20.018c0,1.193-.74,1.809-2.22,1.809s-2.22-.616-2.22-1.809V883.682c0-1.192.74-1.809,2.22-1.809s2.22.617,2.22,1.809Zm18.085-.533a1.688,1.688,0,0,1-.946,1.521,7.639,7.639,0,0,1-3.863.945c-2.837,0-4.6-1.151-5.468-2.753a10.846,10.846,0,0,1-.823-5.1v-6.988h-1.932a1.623,1.623,0,0,1-1.808-1.85,1.622,1.622,0,0,1,1.808-1.849h1.932v-4.069c0-1.193.741-1.809,2.22-1.809s2.22.616,2.22,1.809v4.069h3.864a1.622,1.622,0,0,1,1.809,1.849,1.623,1.623,0,0,1-1.809,1.85h-3.864v6.864a7.323,7.323,0,0,0,.452,3.125,1.891,1.891,0,0,0,1.85,1.069,4.617,4.617,0,0,0,1.726-.37,3.625,3.625,0,0,1,1.069-.246C-1245.422,896.384-1245.052,897.616-1245.052,898.316Zm19.112-15a12.1,12.1,0,0,1-.534,2.836c-1.686,6.33-5.509,15-10.194,20.634-1.069,1.316-1.768,1.809-2.59,1.809a2.337,2.337,0,0,1-2.384-2.055,3.086,3.086,0,0,1,1.192-1.973,24.35,24.35,0,0,0,3.575-4.521l-6.412-15.374a4.031,4.031,0,0,1-.411-1.438c0-.74.493-1.357,2.1-1.357a2.393,2.393,0,0,1,2.713,1.849l4.6,11.92a61.14,61.14,0,0,0,3.987-11.756c.246-1.151.452-2.014,2.343-2.014C-1226.351,881.874-1225.94,882.49-1225.94,883.312Z" transform="translate(1336.174 -872.461)"/>
        </g>
        <path id="Path_2095" data-name="Path 2095" d="M-1281.464,798.985a56.109,56.109,0,0,1-56.047-56.047,56.11,56.11,0,0,1,56.047-56.047,56.11,56.11,0,0,1,56.047,56.047A56.109,56.109,0,0,1-1281.464,798.985Zm0-104.925a48.934,48.934,0,0,0-48.878,48.878,48.934,48.934,0,0,0,48.878,48.878,48.933,48.933,0,0,0,48.878-48.878A48.934,48.934,0,0,0-1281.464,694.06Z" transform="translate(1967.304 3586.504)" fill="#a75d8b"/>
        <g id="Group_225" data-name="Group 225" transform="translate(659.771 4303.374)">
          <path id="Path_2096" data-name="Path 2096" d="M-1276.154,722.18a26.069,26.069,0,0,0-26.069,26.069,26.069,26.069,0,0,0,26.069,26.069,26.069,26.069,0,0,0,26.069-26.069A26.069,26.069,0,0,0-1276.154,722.18Zm-8.472,27.372a10.427,10.427,0,0,1-10.427-10.427,10.427,10.427,0,0,1,10.427-10.427,10.427,10.427,0,0,1,10.427,10.427A10.427,10.427,0,0,1-1284.627,749.552Z" transform="translate(1302.223 -722.18)" fill="#a75d8b"/>
        </g>
        <g transform="matrix(1, 0, 0, 1, 11.25, 3700.35)" filter="url(#Rectangle_5514)">
          <rect id="Rectangle_5514-2" data-name="Rectangle 5514" width="373.646" height="373.646" transform="translate(929.57 487.86)" fill="#fff"/>
        </g>
        <g id="Group_229" data-name="Group 229" transform="translate(1080.741 4284.973)" opacity="0.25">
          <g id="Group_228" data-name="Group 228">
            <rect id="Rectangle_5515" data-name="Rectangle 5515" width="93.412" height="57.384" rx="17.593" fill="#a75d8b"/>
          </g>
        </g>
        <g id="Group_231" data-name="Group 231" transform="translate(1080.741 4315.417)" opacity="0.75">
          <g id="Group_230" data-name="Group 230">
            <rect id="Rectangle_5516" data-name="Rectangle 5516" width="93.412" height="59.62" rx="17.593" fill="#a75d8b"/>
          </g>
        </g>
        <g id="Group_232" data-name="Group 232" transform="translate(1080.741 4315.187)">
          <rect id="Rectangle_5517" data-name="Rectangle 5517" width="93.412" height="27.401" fill="#d3aec5"/>
        </g>
        <g id="Group_233" data-name="Group 233" transform="translate(1077.578 4408.473)">
          <path id="Path_2097" data-name="Path 2097" d="M-807.766,852.92a4.116,4.116,0,0,1-1.016-.105v2.407c0,.434-.268.658-.807.658s-.822-.224-.822-.658v-7.952c0-.508,0-.9.748-1.106a7.092,7.092,0,0,1,1.7-.179c2.362,0,4.066,1.061,4.066,3.424C-803.894,851.814-805.643,852.92-807.766,852.92Zm-.119-1.405c1.449,0,2.3-.733,2.3-2.048,0-1.465-1.032-2.063-2.377-2.063a5.5,5.5,0,0,0-.822.074v3.947A4.822,4.822,0,0,0-807.885,851.515Z" transform="translate(810.412 -845.908)" fill="#999"/>
          <path id="Path_2098" data-name="Path 2098" d="M-789.9,846.677v8.55c0,.434-.268.658-.807.658s-.822-.224-.822-.658V851.52h-4.425v3.706c0,.434-.268.658-.807.658s-.822-.224-.822-.658v-8.55c0-.433.269-.658.822-.658s.807.224.807.658v3.394h4.425v-3.394c0-.433.269-.658.822-.658S-789.9,846.243-789.9,846.677Z" transform="translate(808.482 -845.914)" fill="#999"/>
          <path id="Path_2099" data-name="Path 2099" d="M-778.437,845.9c2.855,0,4.724,1.959,4.724,5.038s-1.869,5.038-4.724,5.038-4.723-1.959-4.723-5.038S-781.292,845.9-778.437,845.9Zm0,8.656c1.824,0,3.034-1.375,3.034-3.617s-1.21-3.618-3.034-3.618-3.035,1.375-3.035,3.618S-780.26,854.551-778.437,854.551Z" transform="translate(806.311 -845.895)" fill="#999"/>
          <path id="Path_2100" data-name="Path 2100" d="M-763.422,855.24c0,.434-.268.657-.821.657s-.823-.223-.823-.657v-7.683h-2.376c-.434,0-.657-.24-.657-.733,0-.478.223-.717.657-.717h6.4c.433,0,.658.239.658.717,0,.494-.225.733-.658.733h-2.377Z" transform="translate(804.045 -845.927)" fill="#999"/>
          <path id="Path_2101" data-name="Path 2101" d="M-750.358,845.9c2.854,0,4.723,1.959,4.723,5.038s-1.869,5.038-4.723,5.038-4.724-1.959-4.724-5.038S-753.214,845.9-750.358,845.9Zm0,8.656c1.824,0,3.034-1.375,3.034-3.617s-1.211-3.618-3.034-3.618-3.035,1.375-3.035,3.618S-752.182,854.551-750.358,854.551Z" transform="translate(802.086 -845.895)" fill="#999"/>
          <path id="Path_2102" data-name="Path 2102" d="M-727.867,855.24c0,.434-.268.657-.821.657s-.822-.223-.822-.657v-7.683h-2.377c-.433,0-.658-.24-.658-.733,0-.478.224-.717.658-.717h6.4c.434,0,.658.239.658.717,0,.494-.224.733-.658.733h-2.377Z" transform="translate(798.695 -845.927)" fill="#999"/>
          <path id="Path_2103" data-name="Path 2103" d="M-716.789,855.227c0,.434-.268.658-.807.658s-.822-.224-.822-.658v-8.55c0-.433.269-.658.822-.658s.807.224.807.658Z" transform="translate(796.569 -845.914)" fill="#999"/>
          <path id="Path_2104" data-name="Path 2104" d="M-707.979,852.92a4.114,4.114,0,0,1-1.016-.105v2.407c0,.434-.269.658-.808.658s-.822-.224-.822-.658v-7.952c0-.508,0-.9.748-1.106a7.089,7.089,0,0,1,1.7-.179c2.361,0,4.066,1.061,4.066,3.424C-704.107,851.814-705.856,852.92-707.979,852.92Zm-.12-1.405c1.45,0,2.3-.733,2.3-2.048,0-1.465-1.032-2.063-2.377-2.063a5.494,5.494,0,0,0-.822.074v3.947A4.819,4.819,0,0,0-708.1,851.515Z" transform="translate(795.397 -845.908)" fill="#999"/>
          <path id="Path_2105" data-name="Path 2105" d="M-696.744,851.841a.949.949,0,0,1-1-1,.95.95,0,0,1,1-1,.95.95,0,0,1,1,1A.95.95,0,0,1-696.744,851.841Zm0,4.17a.949.949,0,0,1-1-1,.949.949,0,0,1,1-1,.949.949,0,0,1,1,1A.949.949,0,0,1-696.744,856.011Z" transform="translate(793.459 -846.488)" fill="#999"/>
        </g>
        <g id="Group_234" data-name="Group 234" transform="translate(1093.339 4431.911)">
          <path id="Path_2106" data-name="Path 2106" d="M-779,899.077c0,1.192-.74,1.809-2.259,1.809s-2.26-.617-2.26-1.809V877.954h-6.535c-1.191,0-1.809-.657-1.809-2.013,0-1.315.618-1.973,1.809-1.973h17.589c1.193,0,1.809.658,1.809,1.973,0,1.356-.616,2.013-1.809,2.013H-779Z" transform="translate(791.859 -873.557)"/>
          <path id="Path_2107" data-name="Path 2107" d="M-760.616,878.991a2.689,2.689,0,0,1-2.795-2.754,2.689,2.689,0,0,1,2.795-2.753,2.688,2.688,0,0,1,2.8,2.753A2.689,2.689,0,0,1-760.616,878.991ZM-758.4,899c0,1.192-.739,1.808-2.219,1.808s-2.218-.617-2.218-1.808V883.84c0-1.192.738-1.808,2.218-1.808s2.219.616,2.219,1.808Z" transform="translate(787.578 -873.484)"/>
          <path id="Path_2108" data-name="Path 2108" d="M-746.93,885.339v.9a6.508,6.508,0,0,1,5.711-2.794,5.929,5.929,0,0,1,5.3,2.466,8.493,8.493,0,0,1,1.151,4.807V900.5c0,1.192-.74,1.809-2.22,1.809s-2.218-.617-2.218-1.809v-9.042a4.869,4.869,0,0,0-.658-2.794,3.271,3.271,0,0,0-2.918-1.315,4.749,4.749,0,0,0-3.9,1.89V900.5c0,1.192-.738,1.809-2.218,1.809s-2.219-.617-2.219-1.809V885.339c0-1.192.7-1.808,2.138-1.808C-747.466,883.531-746.889,884.271-746.93,885.339Z" transform="translate(785.729 -874.983)"/>
          <path id="Path_2109" data-name="Path 2109" d="M-713.924,899.173a1.558,1.558,0,0,1-.9,1.4,8.008,8.008,0,0,1-3.863.9c-2.8,0-4.317-1.109-5.179-2.671a10.17,10.17,0,0,1-.821-4.973v-7.191h-1.931a1.622,1.622,0,0,1-1.809-1.849,1.622,1.622,0,0,1,1.809-1.849h1.931v-4.068c0-1.192.74-1.809,2.218-1.809s2.22.617,2.22,1.809v4.068h4.068a1.621,1.621,0,0,1,1.808,1.849,1.622,1.622,0,0,1-1.808,1.849h-4.068v7.191a6.918,6.918,0,0,0,.41,2.919,1.829,1.829,0,0,0,1.768.945,4.089,4.089,0,0,0,1.439-.287,4.01,4.01,0,0,1,1.027-.247C-714.377,897.16-713.924,898.475-713.924,899.173Z" transform="translate(782.315 -874.023)"/>
        </g>
        <g id="Group_235" data-name="Group 235" transform="translate(1080.377 4282.555)">
          <path id="Path_2110" data-name="Path 2110" d="M-728.651,705.146a7.481,7.481,0,0,1,7.472,7.472v63.52a7.481,7.481,0,0,1-7.472,7.473h-63.52a7.482,7.482,0,0,1-7.473-7.473v-63.52a7.482,7.482,0,0,1,7.473-7.472h63.52m0-7.473h-63.52a14.946,14.946,0,0,0-14.946,14.946v63.52a14.946,14.946,0,0,0,14.946,14.946h63.52a14.946,14.946,0,0,0,14.946-14.946v-63.52a14.946,14.946,0,0,0-14.946-14.946Z" transform="translate(807.117 -697.673)" fill="#a75d8b"/>
        </g>
      </g>
    </g>
  </g>
</svg>
