<svg xmlns="http://www.w3.org/2000/svg" width="612" height="710" viewBox="0 0 612 710">
  <g id="Group_890" data-name="Group 890" transform="translate(-50 -5338)">
    <rect id="Rectangle_5535" data-name="Rectangle 5535" width="298.922" height="298.922" transform="translate(50 5338)" fill="#fafafa"/>
    <g id="Group_343" data-name="Group 343" transform="translate(91.522 5379.522)">
      <path id="Path_2282" data-name="Path 2282" d="M192.362,455.1V402.123c-.959-.792-1.868-1.6-2.8-2.415s-1.906-1.631-2.8-2.467V457.1c.975-.328,1.87-.661,2.8-.994S191.468,455.44,192.362,455.1Z" transform="translate(-72.907 -274.512)" fill="#1a1818"/>
      <path id="Path_2283" data-name="Path 2283" d="M197.149,449.669c.982-.472,1.908-.961,2.8-1.454V408.3c-.915-.776-1.839-1.56-2.8-2.349-.919-.754-1.847-1.508-2.8-2.28v47.273l.3-.118C195.508,450.445,196.341,450.066,197.149,449.669Z" transform="translate(-70.22 -272.237)" fill="#1a1818"/>
      <path id="Path_2284" data-name="Path 2284" d="M206.219,438.8a20.422,20.422,0,0,0,1.328-1.889V416.887a31.12,31.12,0,0,0-2.425-3.31l-.379-.413q-1.288-1.487-2.8-2.968v32.71a26.079,26.079,0,0,0,2.8-2.461A20.952,20.952,0,0,0,206.219,438.8Z" transform="translate(-67.532 -269.927)" fill="#1a1818"/>
      <path id="Path_2285" data-name="Path 2285" d="M217.083,371.035l0,0,.042.017-.04-.03Z" transform="translate(-62.172 -283.79)" fill="#1a1818"/>
      <path id="Path_2286" data-name="Path 2286" d="M181.139,391.538a15.776,15.776,0,0,1-1.979-6.059v79.094c.942-.3,1.889-.59,2.8-.881.953-.3,1.881-.6,2.8-.9V396.614a32.991,32.991,0,0,1-2.8-3.778C181.688,392.407,181.387,391.977,181.139,391.538Z" transform="translate(-75.595 -278.675)" fill="#1a1818"/>
      <path id="Path_2287" data-name="Path 2287" d="M179.16,383.654v.122l.013-.122Z" transform="translate(-75.594 -279.321)" fill="#1a1818"/>
      <path id="Path_2288" data-name="Path 2288" d="M210.607,306.6A107.939,107.939,0,1,0,318.545,414.534,107.938,107.938,0,0,0,210.607,306.6Zm-75.9,54.167,6.338,24.076H128.377Zm5.033-2.91,27.214,26.985H146.847Zm-10.569,1.919-6.6,25.067h-5.511A97.628,97.628,0,0,1,129.175,359.771Zm173.64,88.392a97.55,97.55,0,0,1-9.14,18.577c-.608.969-1.219,1.935-1.859,2.88-.634.927-1.29,1.843-1.952,2.744-2.336-6.864-6.53-12.86-11.6-18.181-6.629-6.952-14.671-12.648-21.48-17.455-3.746-2.64-7.189-5.069-10.1-7.43a46.49,46.49,0,0,1-4-3.608,21.671,21.671,0,0,1-2.8-3.5l-.089-.122a10.853,10.853,0,0,1-1.753-5.688,9.483,9.483,0,0,1,.527-3.087,9.1,9.1,0,0,1,1.256-2.369,9.8,9.8,0,0,1,2.418-2.382,16.643,16.643,0,0,1,5.528-2.319,42.06,42.06,0,0,1,5.531-.894q-.347-2.271-.482-4.6c-2.831.261-6.076.313-9.637.389-4.2.084-8.887.177-13.344.649a38.922,38.922,0,0,0-11.823,2.8,12.242,12.242,0,0,0-4.8,3.61,6.891,6.891,0,0,0-1.366,2.99v2.12a10.9,10.9,0,0,0,1.282,3.462,26.5,26.5,0,0,0,3.392,4.609l.7.776c.647.695,1.378,1.4,2.108,2.1.89.861,1.824,1.721,2.8,2.59q2.248,1.984,4.67,3.975,1.4,1.146,2.8,2.281l.531.431c.768.615,1.518,1.231,2.273,1.847,1.6,1.3,3.164,2.6,4.674,3.907.965.839,1.89,1.691,2.8,2.547.976.915,1.908,1.851,2.8,2.8.628.666,1.285,1.324,1.87,2.016,3.933,4.663,6.7,10.085,6.687,16.536a24.131,24.131,0,0,1-.348,4.09,25.02,25.02,0,0,1-5.161,11.709,28.377,28.377,0,0,1-3.048,3.183,34.733,34.733,0,0,1-2.8,2.285q-1.344.981-2.8,1.881c-.447.273-.875.561-1.339.826-1.068.608-2.187,1.186-3.335,1.751-.908.443-1.845.877-2.8,1.3-.909.4-1.851.784-2.8,1.172-1.512.611-3.054,1.21-4.67,1.8-.913.325-1.859.65-2.8.975-.921.315-1.858.632-2.8.944-3.516,1.164-7.212,2.323-11.11,3.546-7.778,2.429-16.542,5.169-26.071,8.91-1.332-.452-2.654-.923-3.963-1.43-1.244-.477-2.478-.969-3.694-1.5a98.307,98.307,0,0,1-30.457-20.7c-1.426-1.426-2.792-2.914-4.13-4.427l.25-.008a10.728,10.728,0,0,1,4.909,1.029c1.883.894,3.443,2.487,5.77,4.194a16.1,16.1,0,0,0,9.995,3.185,16.377,16.377,0,0,0,7.371-1.595c2.964-1.47,4.8-3.427,6.586-4.679a11.15,11.15,0,0,1,2.809-1.518,11.329,11.329,0,0,1,3.924-.616,10.745,10.745,0,0,1,4.912,1.029c1.885.894,3.447,2.487,5.776,4.194a16.113,16.113,0,0,0,10,3.185v-5.6a10.753,10.753,0,0,1-4.912-1.033c-1.887-.894-3.447-2.487-5.777-4.192a16.683,16.683,0,0,0-4.194-2.246,17.059,17.059,0,0,0-5.8-.941,16.371,16.371,0,0,0-7.375,1.6c-2.961,1.472-4.8,3.428-6.586,4.677a11.265,11.265,0,0,1-2.805,1.526,11.666,11.666,0,0,1-3.924.612,10.73,10.73,0,0,1-4.908-1.033c-1.882-.894-3.444-2.487-5.775-4.192a16.583,16.583,0,0,0-4.19-2.246,17.054,17.054,0,0,0-5.8-.941,17.406,17.406,0,0,0-4.442.544,98.073,98.073,0,0,1-8.709-13.37,57.07,57.07,0,0,0,5.8-4.242,11.115,11.115,0,0,1,2.785-1.522,11.372,11.372,0,0,1,3.891-.612,10.586,10.586,0,0,1,4.867,1.029c1.871.894,3.423,2.483,5.739,4.192a16.711,16.711,0,0,0,4.174,2.252,16.962,16.962,0,0,0,5.78.94,16.229,16.229,0,0,0,7.344-1.6c2.95-1.472,4.774-3.428,6.553-4.677a11.049,11.049,0,0,1,2.788-1.518,11.271,11.271,0,0,1,3.894-.616,10.634,10.634,0,0,1,4.874,1.029c1.867.894,3.421,2.483,5.741,4.192a16.711,16.711,0,0,0,4.174,2.252,17,17,0,0,0,5.787.94v-5.608a10.642,10.642,0,0,1-4.874-1.024c-1.872-.895-3.425-2.489-5.745-4.192a16.287,16.287,0,0,0-4.174-2.252,16.877,16.877,0,0,0-5.783-.944,16.252,16.252,0,0,0-7.342,1.6c-2.952,1.476-4.775,3.424-6.554,4.675a11.071,11.071,0,0,1-2.788,1.523,11.488,11.488,0,0,1-3.894.611,10.619,10.619,0,0,1-4.867-1.024c-1.87-.895-3.424-2.489-5.738-4.192a16.329,16.329,0,0,0-4.177-2.252,16.847,16.847,0,0,0-5.779-.944,16.258,16.258,0,0,0-7.341,1.6c-2.95,1.476-4.773,3.428-6.552,4.681l-1.083.695a96.982,96.982,0,0,1-6.316-17.822l.724.054a16.259,16.259,0,0,0,7.341-1.6c2.952-1.476,4.771-3.432,6.55-4.679a10.368,10.368,0,0,1,6.676-2.134,10.552,10.552,0,0,1,4.867,1.029c1.871.894,3.423,2.487,5.739,4.19a16.67,16.67,0,0,0,4.174,2.252,16.929,16.929,0,0,0,5.78.94,16.267,16.267,0,0,0,7.344-1.6c2.95-1.476,4.774-3.432,6.553-4.679a10.384,10.384,0,0,1,6.682-2.134,10.6,10.6,0,0,1,4.874,1.029c1.867.894,3.421,2.487,5.741,4.19a16.669,16.669,0,0,0,4.174,2.252,16.964,16.964,0,0,0,5.787.94v-5.6a10.583,10.583,0,0,1-4.874-1.029c-1.872-.894-3.425-2.487-5.745-4.2a16.846,16.846,0,0,0-4.174-2.252,17.08,17.08,0,0,0-5.783-.94,16.269,16.269,0,0,0-7.342,1.6c-2.952,1.476-4.775,3.424-6.554,4.681a11.222,11.222,0,0,1-2.788,1.518,11.372,11.372,0,0,1-3.894.616,10.56,10.56,0,0,1-4.867-1.029c-1.87-.894-3.424-2.487-5.738-4.192a16.763,16.763,0,0,0-4.177-2.256,17.049,17.049,0,0,0-5.779-.94,16.276,16.276,0,0,0-7.341,1.6c-2.95,1.476-4.773,3.432-6.552,4.681a11.206,11.206,0,0,1-2.785,1.518,11.347,11.347,0,0,1-3.89.616,14.514,14.514,0,0,1-1.947-.152,98.554,98.554,0,0,1-1.672-17.987c0-.443.027-.877.031-1.324a18.441,18.441,0,0,0,3.14.261,16.168,16.168,0,0,0,7.317-1.6c2.941-1.476,4.756-3.432,6.527-4.681a10.31,10.31,0,0,1,6.634-2.13,10.465,10.465,0,0,1,4.839,1.025c1.859.894,3.4,2.487,5.712,4.19a16.411,16.411,0,0,0,4.159,2.252,16.731,16.731,0,0,0,5.764.945,16.19,16.19,0,0,0,7.321-1.6c2.941-1.476,4.755-3.432,6.529-4.681a11.025,11.025,0,0,1,2.77-1.518,11.207,11.207,0,0,1,3.865-.612,10.474,10.474,0,0,1,4.843,1.029c1.862.89,3.409,2.483,5.718,4.186a16.42,16.42,0,0,0,4.161,2.252,16.747,16.747,0,0,0,5.766.945v-5.608a10.463,10.463,0,0,1-4.844-1.029c-1.859-.885-3.405-2.479-5.715-4.186a16.5,16.5,0,0,0-4.162-2.252,16.673,16.673,0,0,0-5.766-.94,16.1,16.1,0,0,0-7.321,1.6c-2.941,1.476-4.756,3.432-6.527,4.685a11.086,11.086,0,0,1-2.773,1.518,11.211,11.211,0,0,1-3.864.607,10.437,10.437,0,0,1-4.838-1.029c-1.859-.885-3.4-2.479-5.714-4.186a16.41,16.41,0,0,0-4.159-2.252,16.657,16.657,0,0,0-5.764-.94,16.08,16.08,0,0,0-7.317,1.6c-2.943,1.476-4.756,3.432-6.527,4.685a10.285,10.285,0,0,1-6.634,2.124,11.943,11.943,0,0,1-2.895-.325,97.9,97.9,0,0,1,2.711-17.092H253.244c.222-1.539.506-3.057.865-4.549l.272-1.059a50.344,50.344,0,0,1,1.595-4.988L220.8,344.963l-40.207,39.875h-5.669l-36.776-36.467q1.5-1.645,3.072-3.222a98.12,98.12,0,0,1,138.771,0c1.76,1.759,3.432,3.6,5.057,5.494.646.756,1.286,1.506,1.91,2.281s1.227,1.534,1.821,2.315a44.769,44.769,0,0,0-28.429,28.944l-.187.654c-.329,1.1-.616,2.222-.862,3.36-.16.738-.269,1.492-.393,2.248l-.088.577a44.849,44.849,0,0,0-.5,5.616l-.054,1.071c0,.658.072,1.294.1,1.944a45.244,45.244,0,0,0,.525,5.228c.152.933.311,1.86.52,2.78s.441,1.855.709,2.766a44.827,44.827,0,0,0,43,32.145c.521,0,1.028-.064,1.543-.085-.284.963-.586,1.906-.9,2.851S303.155,447.231,302.815,448.163Zm-75.681-63.325H214.463l6.336-24.076Zm-1.3-26.985,27.213,26.985H232.932Zm-17.169,26.985H188.555l27.21-26.985Z" transform="translate(-102.668 -306.595)" fill="#1a1818"/>
    </g>
    <rect id="Rectangle_5536" data-name="Rectangle 5536" width="149.461" height="149.461" transform="translate(392.865 5487.461)" fill="#fafafa"/>
    <g id="Group_344" data-name="Group 344" transform="translate(413.626 5508.223)">
      <path id="Path_2289" data-name="Path 2289" d="M385.416,475.9V449.415c-.479-.4-.933-.8-1.4-1.208s-.953-.816-1.4-1.233V476.9c.486-.165.934-.332,1.4-.5S384.969,476.073,385.416,475.9Z" transform="translate(-325.688 -385.609)" fill="#1a1818"/>
      <path id="Path_2290" data-name="Path 2290" d="M387.809,473.187c.491-.236.955-.481,1.4-.727V452.5c-.458-.387-.919-.78-1.4-1.174-.459-.378-.923-.754-1.4-1.14v23.636l.149-.058C386.99,473.576,387.406,473.386,387.809,473.187Z" transform="translate(-324.345 -384.472)" fill="#1a1818"/>
      <path id="Path_2291" data-name="Path 2291" d="M392.344,467.753a10.3,10.3,0,0,0,.665-.944V456.8a15.533,15.533,0,0,0-1.213-1.655l-.19-.207q-.644-.743-1.4-1.484v16.356a13.045,13.045,0,0,0,1.4-1.231A10.207,10.207,0,0,0,392.344,467.753Z" transform="translate(-323.001 -383.317)" fill="#1a1818"/>
      <path id="Path_2292" data-name="Path 2292" d="M397.777,433.871v0l.021.008-.02-.015Z" transform="translate(-320.321 -390.249)" fill="#1a1818"/>
      <path id="Path_2293" data-name="Path 2293" d="M379.806,444.122a7.851,7.851,0,0,1-.99-3.029V480.64c.471-.148.944-.3,1.4-.441.477-.149.941-.3,1.4-.448V446.66a16.47,16.47,0,0,1-1.4-1.889C380.079,444.556,379.929,444.341,379.806,444.122Z" transform="translate(-327.032 -387.691)" fill="#1a1818"/>
      <path id="Path_2294" data-name="Path 2294" d="M378.816,440.18v.061l.006-.061Z" transform="translate(-327.032 -388.014)" fill="#1a1818"/>
      <path id="Path_2295" data-name="Path 2295" d="M394.538,401.651a53.969,53.969,0,1,0,53.969,53.969A53.97,53.97,0,0,0,394.538,401.651Zm-37.947,27.083,3.168,12.038h-6.335Zm2.516-1.454,13.607,13.492H362.658Zm-5.283.959-3.3,12.533h-2.755A48.77,48.77,0,0,1,353.824,428.238Zm86.82,44.2a48.828,48.828,0,0,1-4.571,9.288c-.3.485-.609.968-.93,1.441s-.644.921-.976,1.372a24.98,24.98,0,0,0-5.8-9.09,71.865,71.865,0,0,0-10.739-8.727c-1.874-1.32-3.595-2.535-5.049-3.715a23.325,23.325,0,0,1-2-1.8,10.907,10.907,0,0,1-1.4-1.748l-.043-.061a5.419,5.419,0,0,1-.877-2.845,4.765,4.765,0,0,1,.263-1.544,4.574,4.574,0,0,1,.628-1.185,4.9,4.9,0,0,1,1.209-1.19,8.338,8.338,0,0,1,2.765-1.16,21.05,21.05,0,0,1,2.766-.447c-.116-.757-.195-1.522-.242-2.3-1.415.13-3.037.156-4.817.194-2.1.042-4.445.089-6.672.325a19.488,19.488,0,0,0-5.913,1.4,6.123,6.123,0,0,0-2.4,1.8,3.447,3.447,0,0,0-.684,1.495V455a5.45,5.45,0,0,0,.642,1.732,13.227,13.227,0,0,0,1.7,2.3l.347.389c.324.348.69.7,1.055,1.052.445.431.911.86,1.4,1.294q1.125.993,2.336,1.988.7.573,1.4,1.141l.267.215c.383.307.758.615,1.136.923.8.649,1.581,1.3,2.337,1.954.482.42.945.845,1.4,1.273.489.458.955.926,1.4,1.4.314.333.643.662.934,1.007a12.653,12.653,0,0,1,3.344,8.268,12.135,12.135,0,0,1-.175,2.044,12.491,12.491,0,0,1-2.581,5.854,14.19,14.19,0,0,1-1.523,1.592,17.643,17.643,0,0,1-1.4,1.143q-.672.489-1.4.94c-.223.137-.437.28-.67.413-.533.3-1.093.593-1.667.876q-.682.331-1.4.651c-.454.2-.925.391-1.4.586-.755.3-1.527.605-2.336.9-.456.162-.929.325-1.4.487s-.929.315-1.4.471c-1.759.582-3.607,1.162-5.555,1.774-3.89,1.214-8.273,2.585-13.037,4.454-.666-.226-1.327-.462-1.981-.715-.621-.238-1.239-.485-1.847-.749a49.174,49.174,0,0,1-15.229-10.348c-.712-.714-1.395-1.457-2.065-2.214l.126,0a5.356,5.356,0,0,1,2.455.515,21.259,21.259,0,0,1,2.885,2.1,8.032,8.032,0,0,0,5,1.591,8.177,8.177,0,0,0,3.685-.8,21.657,21.657,0,0,0,3.293-2.34,5.581,5.581,0,0,1,1.405-.76,5.664,5.664,0,0,1,1.961-.307,5.362,5.362,0,0,1,2.456.515,21.267,21.267,0,0,1,2.889,2.1,8.041,8.041,0,0,0,5,1.591v-2.8a5.382,5.382,0,0,1-2.456-.516,21.307,21.307,0,0,1-2.888-2.1,8.343,8.343,0,0,0-2.1-1.124,8.531,8.531,0,0,0-2.9-.47,8.179,8.179,0,0,0-3.687.8,21.668,21.668,0,0,0-3.293,2.338,5.62,5.62,0,0,1-1.4.762,5.818,5.818,0,0,1-1.962.306,5.361,5.361,0,0,1-2.453-.516,21.393,21.393,0,0,1-2.888-2.1,8.287,8.287,0,0,0-2.1-1.124,8.52,8.52,0,0,0-2.9-.47,8.714,8.714,0,0,0-2.222.272,49.237,49.237,0,0,1-4.354-6.686,28.634,28.634,0,0,0,2.9-2.12,5.512,5.512,0,0,1,1.392-.761,5.657,5.657,0,0,1,1.947-.306A5.286,5.286,0,0,1,360,476.2a21.106,21.106,0,0,1,2.869,2.1,8.359,8.359,0,0,0,2.088,1.125,8.464,8.464,0,0,0,2.891.47,8.118,8.118,0,0,0,3.671-.8,21.528,21.528,0,0,0,3.278-2.338,5.51,5.51,0,0,1,1.393-.76,5.616,5.616,0,0,1,1.947-.307,5.3,5.3,0,0,1,2.437.515,21.366,21.366,0,0,1,2.87,2.1,8.374,8.374,0,0,0,2.086,1.125,8.486,8.486,0,0,0,2.893.47v-2.8a5.317,5.317,0,0,1-2.437-.512,21.446,21.446,0,0,1-2.872-2.1,8.149,8.149,0,0,0-2.088-1.125,8.429,8.429,0,0,0-2.891-.472,8.138,8.138,0,0,0-3.672.8,21.517,21.517,0,0,0-3.277,2.337,5.523,5.523,0,0,1-1.393.762,5.767,5.767,0,0,1-1.947.3,5.3,5.3,0,0,1-2.434-.512,21.358,21.358,0,0,1-2.869-2.1,8.136,8.136,0,0,0-2.089-1.125,8.419,8.419,0,0,0-2.888-.472,8.131,8.131,0,0,0-3.671.8,21.506,21.506,0,0,0-3.277,2.34l-.542.348a48.583,48.583,0,0,1-3.159-8.912l.363.027a8.118,8.118,0,0,0,3.671-.8,21.574,21.574,0,0,0,3.275-2.34,5.19,5.19,0,0,1,3.339-1.067A5.286,5.286,0,0,1,360,463.8a21.346,21.346,0,0,1,2.869,2.1,8.361,8.361,0,0,0,2.088,1.125,8.462,8.462,0,0,0,2.891.47,8.118,8.118,0,0,0,3.671-.8,21.617,21.617,0,0,0,3.278-2.34,5.6,5.6,0,0,1,1.393-.761,5.686,5.686,0,0,1,1.947-.306,5.3,5.3,0,0,1,2.437.515,21.611,21.611,0,0,1,2.87,2.1,8.376,8.376,0,0,0,2.086,1.125,8.484,8.484,0,0,0,2.893.47v-2.8a5.3,5.3,0,0,1-2.437-.515,21.226,21.226,0,0,1-2.872-2.1,7.982,7.982,0,0,0-4.978-1.6,8.138,8.138,0,0,0-3.672.8,21.319,21.319,0,0,0-3.277,2.34,5.6,5.6,0,0,1-1.393.76,5.7,5.7,0,0,1-1.947.307,5.284,5.284,0,0,1-2.434-.515,21.238,21.238,0,0,1-2.869-2.1,8.392,8.392,0,0,0-2.089-1.128,8.519,8.519,0,0,0-2.888-.47,8.131,8.131,0,0,0-3.671.8,21.6,21.6,0,0,0-3.277,2.34,5.567,5.567,0,0,1-1.392.76,5.681,5.681,0,0,1-1.946.307,7.261,7.261,0,0,1-.973-.076,49.207,49.207,0,0,1-.837-8.993c0-.222.014-.439.016-.662a9.225,9.225,0,0,0,1.569.13,8.091,8.091,0,0,0,3.66-.8,21.455,21.455,0,0,0,3.263-2.341,5.16,5.16,0,0,1,3.317-1.064,5.235,5.235,0,0,1,2.419.512,21.673,21.673,0,0,1,2.857,2.1,8.194,8.194,0,0,0,2.08,1.125,8.345,8.345,0,0,0,2.881.472,8.091,8.091,0,0,0,3.66-.8,21.475,21.475,0,0,0,3.264-2.341,5.168,5.168,0,0,1,3.319-1.064,5.234,5.234,0,0,1,2.421.514,21.131,21.131,0,0,1,2.86,2.093,8.2,8.2,0,0,0,2.081,1.125,8.353,8.353,0,0,0,2.883.472v-2.8a5.222,5.222,0,0,1-2.422-.515,20.942,20.942,0,0,1-2.858-2.093,7.949,7.949,0,0,0-4.964-1.595,8.045,8.045,0,0,0-3.661.8,21.265,21.265,0,0,0-3.263,2.342,5.155,5.155,0,0,1-3.318,1.061,5.214,5.214,0,0,1-2.419-.515,20.938,20.938,0,0,1-2.855-2.093,7.949,7.949,0,0,0-4.962-1.595,8.029,8.029,0,0,0-3.658.8,21.217,21.217,0,0,0-3.264,2.342,5.542,5.542,0,0,1-1.385.758,5.6,5.6,0,0,1-1.932.3,5.935,5.935,0,0,1-1.447-.162,48.907,48.907,0,0,1,1.357-8.546h68.887c.111-.769.253-1.529.432-2.275l.137-.529a25.462,25.462,0,0,1,.8-2.494l-17.589-17.443-20.1,19.937H376.7L358.31,422.538q.749-.823,1.535-1.611a49.061,49.061,0,0,1,69.385,0c.88.88,1.717,1.8,2.529,2.747.322.378.643.753.955,1.141s.615.766.911,1.158a22.378,22.378,0,0,0-14.214,14.472l-.095.326q-.246.829-.431,1.68c-.08.37-.135.746-.2,1.124l-.045.288a22.3,22.3,0,0,0-.248,2.808l-.028.536c0,.329.037.647.05.972a22.757,22.757,0,0,0,.263,2.613c.076.467.156.93.26,1.391s.221.927.355,1.382a22.409,22.409,0,0,0,21.5,16.073c.26,0,.513-.031.772-.042-.142.481-.292.953-.45,1.426S440.813,471.969,440.644,472.435ZM402.8,440.772h-6.336l3.168-12.038Zm-.651-13.492,13.606,13.492H405.7Zm-8.585,13.492H383.513l13.6-13.492Z" transform="translate(-340.569 -401.651)" fill="#1a1818"/>
    </g>
    <rect id="Rectangle_5537" data-name="Rectangle 5537" width="74.73" height="74.73" transform="translate(586.27 5562.191)" fill="#fafafa"/>
    <g id="Group_345" data-name="Group 345" transform="translate(596.65 5572.572)">
      <path id="Path_2296" data-name="Path 2296" d="M498.171,486.305V473.061c-.24-.2-.467-.4-.7-.6s-.475-.409-.7-.617V486.8c.244-.083.467-.165.7-.249S497.948,486.389,498.171,486.305Z" transform="translate(-468.307 -441.158)" fill="#1a1818"/>
      <path id="Path_2297" data-name="Path 2297" d="M499.368,484.947c.245-.118.477-.241.7-.364V474.6c-.229-.194-.46-.39-.7-.588s-.462-.378-.7-.57v11.819l.076-.03C498.958,485.141,499.167,485.046,499.368,484.947Z" transform="translate(-467.636 -440.59)" fill="#1a1818"/>
      <path id="Path_2298" data-name="Path 2298" d="M501.636,482.229a5.107,5.107,0,0,0,.332-.471v-5.007a7.825,7.825,0,0,0-.605-.827l-.095-.1c-.215-.248-.448-.5-.7-.742v8.178a6.678,6.678,0,0,0,.7-.616A5.248,5.248,0,0,0,501.636,482.229Z" transform="translate(-466.964 -440.012)" fill="#1a1818"/>
      <path id="Path_2299" data-name="Path 2299" d="M504.352,465.289h0l.011,0-.01-.007Z" transform="translate(-465.624 -443.478)" fill="#1a1818"/>
      <path id="Path_2300" data-name="Path 2300" d="M495.367,470.414a3.949,3.949,0,0,1-.5-1.514v19.773c.236-.073.472-.148.7-.221s.47-.15.7-.223V471.684a8.307,8.307,0,0,1-.7-.945C495.5,470.632,495.427,470.523,495.367,470.414Z" transform="translate(-468.98 -442.199)" fill="#1a1818"/>
      <path id="Path_2301" data-name="Path 2301" d="M494.871,468.443v.031l0-.031Z" transform="translate(-468.979 -442.361)" fill="#1a1818"/>
      <path id="Path_2302" data-name="Path 2302" d="M502.733,449.179a26.985,26.985,0,1,0,26.984,26.984A26.984,26.984,0,0,0,502.733,449.179ZM483.759,462.72l1.584,6.02h-3.168Zm1.258-.727,6.8,6.747h-5.027Zm-2.642.479-1.65,6.267h-1.377A24.414,24.414,0,0,1,482.376,462.472Zm43.41,22.1a24.454,24.454,0,0,1-2.285,4.644c-.152.242-.3.483-.464.72s-.324.46-.489.685a12.5,12.5,0,0,0-2.9-4.545,35.991,35.991,0,0,0-5.371-4.364c-.936-.659-1.8-1.267-2.524-1.858a11.665,11.665,0,0,1-1-.9,5.438,5.438,0,0,1-.7-.873l-.023-.031a2.712,2.712,0,0,1-.439-1.422,2.342,2.342,0,0,1,.133-.772,2.258,2.258,0,0,1,.314-.593,2.473,2.473,0,0,1,.6-.6,4.176,4.176,0,0,1,1.382-.579,10.523,10.523,0,0,1,1.382-.223c-.058-.378-.1-.761-.12-1.148-.708.065-1.519.077-2.409.1-1.051.022-2.222.045-3.336.162a9.753,9.753,0,0,0-2.956.7,3.049,3.049,0,0,0-1.2.9,1.708,1.708,0,0,0-.341.747v.529a2.723,2.723,0,0,0,.32.867,6.64,6.64,0,0,0,.849,1.151l.173.2c.162.173.345.349.527.525.223.215.456.431.7.647q.563.5,1.167.994c.233.191.467.38.7.571l.133.107c.192.154.379.307.569.462.4.325.791.65,1.168.978.241.21.472.422.7.636s.477.463.7.7c.157.167.322.33.468.5a6.324,6.324,0,0,1,1.671,4.134,5.923,5.923,0,0,1-.087,1.022,6.252,6.252,0,0,1-1.29,2.927,7.042,7.042,0,0,1-.762.8,8.8,8.8,0,0,1-.7.571c-.225.164-.458.321-.7.47-.112.069-.219.141-.334.207-.268.152-.547.3-.834.437q-.341.167-.7.326c-.227.1-.463.195-.7.292-.378.153-.764.3-1.167.45-.227.081-.464.162-.7.244s-.464.157-.7.236c-.88.291-1.8.581-2.778.887-1.944.607-4.135,1.292-6.518,2.227-.333-.114-.663-.232-.991-.357-.31-.119-.619-.242-.923-.375a24.571,24.571,0,0,1-7.613-5.173c-.357-.357-.7-.728-1.033-1.107h.062a2.664,2.664,0,0,1,1.228.257,10.557,10.557,0,0,1,1.442,1.048,4.03,4.03,0,0,0,2.5.8,4.091,4.091,0,0,0,1.843-.4,10.87,10.87,0,0,0,1.646-1.17,2.781,2.781,0,0,1,.7-.38,2.845,2.845,0,0,1,.98-.153,2.664,2.664,0,0,1,1.228.257,10.651,10.651,0,0,1,1.445,1.048,4.022,4.022,0,0,0,2.5.8v-1.4a2.68,2.68,0,0,1-1.228-.257,10.839,10.839,0,0,1-1.445-1.048,4.155,4.155,0,0,0-1.048-.562,4.268,4.268,0,0,0-1.451-.236,4.09,4.09,0,0,0-1.843.4,10.888,10.888,0,0,0-1.648,1.17,2.772,2.772,0,0,1-.7.38,2.889,2.889,0,0,1-.98.153,2.669,2.669,0,0,1-1.227-.257,10.835,10.835,0,0,1-1.445-1.048,4.144,4.144,0,0,0-1.047-.562,4.268,4.268,0,0,0-1.451-.236,4.317,4.317,0,0,0-1.11.137,24.665,24.665,0,0,1-2.177-3.343,14.176,14.176,0,0,0,1.45-1.06,2.71,2.71,0,0,1,.7-.38,2.8,2.8,0,0,1,.972-.153,2.634,2.634,0,0,1,1.217.257A10.68,10.68,0,0,1,486.9,487.5a4.116,4.116,0,0,0,1.043.563,4.235,4.235,0,0,0,1.446.236,4.064,4.064,0,0,0,1.836-.4,10.84,10.84,0,0,0,1.638-1.168,2.719,2.719,0,0,1,.7-.38,2.813,2.813,0,0,1,.974-.153,2.641,2.641,0,0,1,1.219.257,10.684,10.684,0,0,1,1.435,1.047,4.148,4.148,0,0,0,1.044.563,4.243,4.243,0,0,0,1.447.236v-1.4a2.635,2.635,0,0,1-1.219-.256,10.623,10.623,0,0,1-1.437-1.048,4.105,4.105,0,0,0-1.044-.562,4.2,4.2,0,0,0-1.446-.237,4.071,4.071,0,0,0-1.835.4,10.851,10.851,0,0,0-1.64,1.168,2.75,2.75,0,0,1-.7.382,2.889,2.889,0,0,1-.974.152,2.633,2.633,0,0,1-1.217-.256,10.709,10.709,0,0,1-1.435-1.048,4.082,4.082,0,0,0-1.044-.562,4.194,4.194,0,0,0-1.445-.237,4.075,4.075,0,0,0-1.835.4,10.762,10.762,0,0,0-1.638,1.17l-.271.175a24.27,24.27,0,0,1-1.579-4.456l.18.014a4.06,4.06,0,0,0,1.836-.4,10.839,10.839,0,0,0,1.637-1.17,2.794,2.794,0,0,1,.7-.38,2.836,2.836,0,0,1,.972-.153,2.634,2.634,0,0,1,1.217.257A10.7,10.7,0,0,1,486.9,481.3a4.157,4.157,0,0,0,1.043.562,4.235,4.235,0,0,0,1.446.236,4.064,4.064,0,0,0,1.836-.4,10.931,10.931,0,0,0,1.638-1.17,2.761,2.761,0,0,1,.7-.38,2.845,2.845,0,0,1,.974-.153,2.641,2.641,0,0,1,1.219.257,10.7,10.7,0,0,1,1.435,1.048,4.19,4.19,0,0,0,1.044.562,4.243,4.243,0,0,0,1.447.236v-1.4a2.634,2.634,0,0,1-1.219-.257,10.614,10.614,0,0,1-1.437-1.048,4,4,0,0,0-2.49-.8,4.072,4.072,0,0,0-1.835.4,10.757,10.757,0,0,0-1.64,1.17,2.784,2.784,0,0,1-.7.38,2.854,2.854,0,0,1-.974.153,2.632,2.632,0,0,1-1.217-.257,10.7,10.7,0,0,1-1.435-1.048,4.213,4.213,0,0,0-1.044-.563,4.26,4.26,0,0,0-1.445-.236,4.076,4.076,0,0,0-1.835.4,10.86,10.86,0,0,0-1.638,1.17,2.81,2.81,0,0,1-.7.38,2.847,2.847,0,0,1-.973.153,3.407,3.407,0,0,1-.486-.038,24.6,24.6,0,0,1-.418-4.5c0-.111.007-.219.008-.33a4.605,4.605,0,0,0,.785.065,4.052,4.052,0,0,0,1.829-.4,10.824,10.824,0,0,0,1.632-1.17,2.737,2.737,0,0,1,.692-.379,2.771,2.771,0,0,1,.967-.153,2.6,2.6,0,0,1,1.209.256,10.6,10.6,0,0,1,1.428,1.048,4.119,4.119,0,0,0,1.04.562,4.175,4.175,0,0,0,1.441.237,4.054,4.054,0,0,0,1.831-.4,10.915,10.915,0,0,0,1.633-1.17,2.691,2.691,0,0,1,.692-.379,2.771,2.771,0,0,1,.967-.153,2.608,2.608,0,0,1,1.21.257,10.462,10.462,0,0,1,1.43,1.047,4.1,4.1,0,0,0,1.04.562,4.177,4.177,0,0,0,1.442.237v-1.4a2.6,2.6,0,0,1-1.212-.257,10.4,10.4,0,0,1-1.428-1.047,3.982,3.982,0,0,0-2.482-.8,4.022,4.022,0,0,0-1.831.4,10.728,10.728,0,0,0-1.631,1.171,2.768,2.768,0,0,1-.693.379,2.807,2.807,0,0,1-.967.152,2.59,2.59,0,0,1-1.209-.257,10.4,10.4,0,0,1-1.428-1.047,4.1,4.1,0,0,0-1.04-.562,4.144,4.144,0,0,0-1.441-.236,4.016,4.016,0,0,0-1.829.4,10.66,10.66,0,0,0-1.631,1.171,2.768,2.768,0,0,1-.693.379,2.8,2.8,0,0,1-.965.152,2.977,2.977,0,0,1-.724-.081,24.391,24.391,0,0,1,.678-4.273h34.444q.081-.577.215-1.137l.068-.264a12.5,12.5,0,0,1,.4-1.247l-8.794-8.722-10.052,9.969h-1.418l-9.195-9.117c.25-.273.506-.543.769-.806a24.53,24.53,0,0,1,34.692,0c.44.44.858.9,1.265,1.374.161.188.321.376.478.57s.306.383.455.578a11.2,11.2,0,0,0-7.107,7.237l-.047.164c-.083.276-.154.555-.215.839-.041.185-.068.374-.1.562l-.022.145a11.131,11.131,0,0,0-.125,1.4l-.014.268c0,.164.018.324.024.486a11.533,11.533,0,0,0,.131,1.307c.038.233.079.464.131.695s.11.464.176.692a11.205,11.205,0,0,0,10.752,8.036c.13,0,.257-.015.386-.02q-.108.36-.225.712C525.945,484.1,525.87,484.338,525.786,484.571Zm-18.921-15.832H503.7l1.584-6.02Zm-.325-6.747,6.8,6.747h-5.029Zm-4.292,6.747H497.22l6.8-6.747Z" transform="translate(-475.748 -449.179)" fill="#1a1818"/>
    </g>
    <rect id="Rectangle_5538" data-name="Rectangle 5538" width="299.411" height="299.411" transform="translate(662 6047.78) rotate(-180)" fill="#891515"/>
    <g id="Group_347" data-name="Group 347" transform="translate(404.179 5789.959)">
      <path id="Path_2303" data-name="Path 2303" d="M422.868,730.246V677.181c-.961-.793-1.871-1.6-2.809-2.419s-1.909-1.634-2.809-2.471v59.953c.975-.328,1.873-.662,2.809-1S421.972,730.585,422.868,730.246Z" transform="translate(-303.216 -549.361)" fill="#fff"/>
      <path id="Path_2304" data-name="Path 2304" d="M427.65,724.794c.985-.473,1.912-.963,2.809-1.457V683.356c-.915-.777-1.84-1.562-2.809-2.353-.921-.755-1.85-1.511-2.809-2.284v47.35l.3-.118C426.007,725.571,426.841,725.192,427.65,724.794Z" transform="translate(-300.513 -547.072)" fill="#fff"/>
      <path id="Path_2305" data-name="Path 2305" d="M436.722,713.9a20.2,20.2,0,0,0,1.33-1.892V691.948a30.994,30.994,0,0,0-2.429-3.316l-.38-.414q-1.29-1.489-2.809-2.973v32.763a25.875,25.875,0,0,0,2.809-2.466A20.735,20.735,0,0,0,436.722,713.9Z" transform="translate(-297.808 -544.747)" fill="#fff"/>
      <path id="Path_2306" data-name="Path 2306" d="M447.579,646.085l0,0,.042.017-.04-.03Z" transform="translate(-292.414 -558.698)" fill="#fff"/>
      <path id="Path_2307" data-name="Path 2307" d="M411.64,666.6a15.8,15.8,0,0,1-1.983-6.069v79.224c.944-.3,1.892-.591,2.809-.883.955-.3,1.884-.6,2.809-.9V671.682a33.057,33.057,0,0,1-2.809-3.784C412.189,667.469,411.887,667.037,411.64,666.6Z" transform="translate(-305.921 -553.55)" fill="#fff"/>
      <path id="Path_2308" data-name="Path 2308" d="M409.657,658.7v.122l.013-.122Z" transform="translate(-305.921 -554.2)" fill="#fff"/>
      <path id="Path_2309" data-name="Path 2309" d="M441.279,581.645A108.115,108.115,0,1,0,549.395,689.76,108.115,108.115,0,0,0,441.279,581.645ZM365.261,635.9l6.347,24.115H358.916Zm5.041-2.914,27.259,27.03H377.415Zm-10.586,1.922-6.61,25.108h-5.52A97.792,97.792,0,0,1,359.716,634.908ZM533.64,723.445a97.8,97.8,0,0,1-9.155,18.608c-.609.971-1.221,1.938-1.863,2.885-.633.929-1.292,1.846-1.956,2.749-2.339-6.876-6.539-12.881-11.622-18.21-6.638-6.964-14.694-12.669-21.515-17.484-3.752-2.645-7.2-5.078-10.113-7.443a46.761,46.761,0,0,1-4.007-3.614,21.857,21.857,0,0,1-2.809-3.5l-.088-.122a10.872,10.872,0,0,1-1.758-5.7,9.5,9.5,0,0,1,.529-3.092,9.037,9.037,0,0,1,1.259-2.373,9.793,9.793,0,0,1,2.422-2.385,16.677,16.677,0,0,1,5.536-2.323,42.15,42.15,0,0,1,5.541-.895q-.348-2.274-.484-4.6c-2.836.262-6.085.313-9.652.389-4.208.084-8.9.178-13.366.65a38.979,38.979,0,0,0-11.842,2.8,12.251,12.251,0,0,0-4.81,3.615,6.872,6.872,0,0,0-1.368,2.994v2.124a10.879,10.879,0,0,0,1.283,3.468,26.56,26.56,0,0,0,3.4,4.616l.7.777c.648.7,1.381,1.4,2.112,2.106.891.863,1.827,1.724,2.809,2.594q2.252,1.987,4.676,3.982,1.4,1.147,2.809,2.285l.533.431c.769.616,1.52,1.233,2.276,1.85,1.6,1.3,3.169,2.6,4.681,3.914.967.841,1.895,1.694,2.809,2.551.978.917,1.911,1.854,2.809,2.809.629.667,1.288,1.326,1.873,2.019,3.941,4.671,6.713,10.1,6.7,16.563a24.03,24.03,0,0,1-.349,4.1,25.06,25.06,0,0,1-5.168,11.728,28.435,28.435,0,0,1-3.054,3.188,34.553,34.553,0,0,1-2.809,2.289q-1.347.983-2.809,1.884c-.448.274-.876.562-1.34.827-1.071.609-2.19,1.188-3.342,1.754q-1.365.665-2.809,1.3c-.91.4-1.854.785-2.809,1.174-1.513.612-3.06,1.212-4.676,1.8-.915.326-1.863.651-2.809.976-.924.316-1.861.633-2.809.945-3.522,1.166-7.224,2.327-11.129,3.552-7.792,2.433-16.57,5.178-26.114,8.925-1.334-.453-2.659-.925-3.971-1.432-1.245-.477-2.48-.971-3.7-1.5a98.47,98.47,0,0,1-30.507-20.732c-1.427-1.428-2.8-2.918-4.136-4.435l.251-.008a10.757,10.757,0,0,1,4.919,1.031c1.885.9,3.449,2.491,5.78,4.2a16.807,16.807,0,0,0,4.2,2.251,16.991,16.991,0,0,0,5.811.938,16.4,16.4,0,0,0,7.382-1.6c2.969-1.473,4.8-3.432,6.6-4.687a11.2,11.2,0,0,1,2.815-1.52,11.348,11.348,0,0,1,3.93-.617,10.764,10.764,0,0,1,4.92,1.031c1.888.9,3.453,2.491,5.785,4.2a16.139,16.139,0,0,0,10.015,3.19v-5.613a10.776,10.776,0,0,1-4.92-1.035c-1.889-.9-3.453-2.491-5.785-4.2a16.716,16.716,0,0,0-4.2-2.25,17.077,17.077,0,0,0-5.812-.943,16.4,16.4,0,0,0-7.387,1.6c-2.967,1.474-4.8,3.434-6.6,4.684a11.31,11.31,0,0,1-2.811,1.528,11.677,11.677,0,0,1-3.929.613,10.749,10.749,0,0,1-4.916-1.035c-1.886-.9-3.45-2.491-5.784-4.2a16.605,16.605,0,0,0-4.2-2.25,17.082,17.082,0,0,0-5.812-.943,17.422,17.422,0,0,0-4.448.545,98.236,98.236,0,0,1-8.724-13.392,57.361,57.361,0,0,0,5.813-4.249,11.128,11.128,0,0,1,2.788-1.524,11.392,11.392,0,0,1,3.9-.613A10.613,10.613,0,0,1,372.1,731c1.873.895,3.427,2.487,5.747,4.2a16.761,16.761,0,0,0,4.181,2.255,17,17,0,0,0,5.791.941,16.252,16.252,0,0,0,7.354-1.6c2.956-1.474,4.783-3.434,6.565-4.684a11.064,11.064,0,0,1,2.792-1.52,11.27,11.27,0,0,1,3.9-.617A10.644,10.644,0,0,1,413.309,731c1.871.895,3.427,2.487,5.75,4.2a16.785,16.785,0,0,0,4.181,2.255,17.036,17.036,0,0,0,5.8.941v-5.617a10.668,10.668,0,0,1-4.882-1.025c-1.874-.9-3.431-2.493-5.754-4.2a16.3,16.3,0,0,0-4.181-2.255,16.9,16.9,0,0,0-5.792-.945,16.282,16.282,0,0,0-7.354,1.6c-2.956,1.478-4.783,3.43-6.565,4.683a11.057,11.057,0,0,1-2.791,1.526,11.51,11.51,0,0,1-3.9.612,10.637,10.637,0,0,1-4.875-1.025c-1.874-.9-3.43-2.493-5.749-4.2a16.327,16.327,0,0,0-4.182-2.255,16.889,16.889,0,0,0-5.788-.945,16.276,16.276,0,0,0-7.353,1.6c-2.956,1.478-4.78,3.434-6.562,4.688l-1.086.7a97.346,97.346,0,0,1-6.326-17.851l.727.054a16.286,16.286,0,0,0,7.353-1.6c2.956-1.478,4.778-3.438,6.561-4.687a10.377,10.377,0,0,1,6.687-2.137,10.577,10.577,0,0,1,4.875,1.031c1.873.9,3.427,2.491,5.747,4.2a16.72,16.72,0,0,0,4.181,2.255,16.965,16.965,0,0,0,5.791.941,16.288,16.288,0,0,0,7.354-1.6c2.956-1.478,4.783-3.438,6.565-4.687a10.4,10.4,0,0,1,6.691-2.137,10.608,10.608,0,0,1,4.882,1.031c1.871.9,3.427,2.491,5.75,4.2a16.743,16.743,0,0,0,4.181,2.255,17,17,0,0,0,5.8.941v-5.612a10.609,10.609,0,0,1-4.882-1.031c-1.874-.9-3.431-2.491-5.754-4.2a16.849,16.849,0,0,0-4.181-2.255,17.1,17.1,0,0,0-5.792-.941,16.3,16.3,0,0,0-7.354,1.6c-2.956,1.478-4.783,3.43-6.565,4.688a11.211,11.211,0,0,1-2.791,1.52,11.4,11.4,0,0,1-3.9.617,10.578,10.578,0,0,1-4.875-1.031c-1.874-.9-3.43-2.491-5.749-4.2a16.756,16.756,0,0,0-4.182-2.259,17.09,17.09,0,0,0-5.788-.941,16.3,16.3,0,0,0-7.353,1.6c-2.956,1.478-4.78,3.438-6.562,4.688a11.227,11.227,0,0,1-2.79,1.52,11.373,11.373,0,0,1-3.9.617,14.569,14.569,0,0,1-1.952-.152,98.713,98.713,0,0,1-1.675-18.016c0-.444.029-.879.033-1.326a18.452,18.452,0,0,0,3.144.262,16.2,16.2,0,0,0,7.33-1.6c2.946-1.478,4.764-3.438,6.538-4.688a11.119,11.119,0,0,1,2.772-1.52,11.245,11.245,0,0,1,3.873-.613,10.471,10.471,0,0,1,4.846,1.027c1.863.9,3.408,2.491,5.723,4.2a16.414,16.414,0,0,0,4.166,2.255,16.757,16.757,0,0,0,5.773.947,16.2,16.2,0,0,0,7.331-1.6c2.946-1.478,4.764-3.438,6.539-4.688a11.065,11.065,0,0,1,2.775-1.52,11.239,11.239,0,0,1,3.873-.613,10.5,10.5,0,0,1,4.851,1.031c1.863.891,3.413,2.487,5.726,4.193a16.456,16.456,0,0,0,4.169,2.255,16.767,16.767,0,0,0,5.776.947v-5.617a10.49,10.49,0,0,1-4.854-1.031c-1.862-.887-3.409-2.483-5.724-4.193a16.493,16.493,0,0,0-4.167-2.255,16.7,16.7,0,0,0-5.776-.941,16.134,16.134,0,0,0-7.334,1.6c-2.946,1.478-4.763,3.438-6.537,4.692a11.1,11.1,0,0,1-2.777,1.52,11.229,11.229,0,0,1-3.87.608,10.459,10.459,0,0,1-4.847-1.031c-1.862-.887-3.408-2.483-5.722-4.193a16.485,16.485,0,0,0-4.166-2.255,16.683,16.683,0,0,0-5.773-.941,16.116,16.116,0,0,0-7.33,1.6c-2.948,1.478-4.764,3.438-6.538,4.692a11.084,11.084,0,0,1-2.775,1.52,11.229,11.229,0,0,1-3.87.608,11.969,11.969,0,0,1-2.9-.326,98.066,98.066,0,0,1,2.716-17.12h138c.222-1.542.507-3.062.865-4.557l.273-1.06a50.44,50.44,0,0,1,1.6-5L451.49,620.076l-40.274,39.94h-5.678L368.7,623.489q1.5-1.648,3.076-3.228a98.282,98.282,0,0,1,139,0c1.763,1.762,3.436,3.607,5.065,5.5.645.757,1.288,1.508,1.914,2.285s1.229,1.536,1.824,2.319a44.835,44.835,0,0,0-28.475,28.992l-.188.655c-.33,1.107-.616,2.225-.864,3.366-.16.739-.27,1.494-.392,2.251l-.09.578a45.184,45.184,0,0,0-.5,5.625l-.054,1.073c0,.659.071,1.3.1,1.948a45.608,45.608,0,0,0,.525,5.236c.153.934.313,1.863.522,2.784s.441,1.858.709,2.771a44.9,44.9,0,0,0,43.076,32.2c.521,0,1.028-.064,1.546-.085-.286.964-.587,1.909-.9,2.856S533.981,722.512,533.64,723.445Zm-75.805-63.429H445.142L451.49,635.9Zm-1.306-27.03,27.257,27.03H463.642Zm-17.2,27.03H419.192l27.255-27.03Z" transform="translate(-333.164 -581.645)" fill="#fff"/>
    </g>
    <rect id="Rectangle_5539" data-name="Rectangle 5539" width="149.706" height="149.706" transform="translate(318.574 6047.78) rotate(-180)" fill="#891515"/>
    <g id="Group_349" data-name="Group 349" transform="translate(189.664 5918.87)">
      <path id="Path_2310" data-name="Path 2310" d="M219.837,751V724.469c-.48-.4-.936-.8-1.4-1.21s-.953-.818-1.4-1.235V752c.488-.165.937-.332,1.4-.5S219.389,751.17,219.837,751Z" transform="translate(-160.011 -660.559)" fill="#fff"/>
      <path id="Path_2311" data-name="Path 2311" d="M222.228,748.275c.492-.236.955-.481,1.4-.728V727.556c-.458-.388-.921-.781-1.4-1.176-.461-.378-.925-.755-1.4-1.142v23.674l.151-.058C221.406,748.664,221.824,748.474,222.228,748.275Z" transform="translate(-158.66 -659.414)" fill="#fff"/>
      <path id="Path_2312" data-name="Path 2312" d="M226.764,742.826a10.3,10.3,0,0,0,.664-.945V731.852a15.556,15.556,0,0,0-1.214-1.657l-.19-.207q-.645-.745-1.4-1.486v16.382a13.082,13.082,0,0,0,1.4-1.233A10.517,10.517,0,0,0,226.764,742.826Z" transform="translate(-157.307 -658.252)" fill="#fff"/>
      <path id="Path_2313" data-name="Path 2313" d="M232.192,708.921v0l.021.009-.02-.015Z" transform="translate(-154.61 -665.227)" fill="#fff"/>
      <path id="Path_2314" data-name="Path 2314" d="M214.222,719.177a7.91,7.91,0,0,1-.991-3.034v39.612c.472-.148.947-.3,1.4-.442.477-.149.943-.3,1.4-.449V721.719a16.666,16.666,0,0,1-1.4-1.892C214.5,719.612,214.346,719.4,214.222,719.177Z" transform="translate(-161.364 -662.653)" fill="#fff"/>
      <path id="Path_2315" data-name="Path 2315" d="M213.231,715.23v.061l.006-.061Z" transform="translate(-161.363 -662.979)" fill="#fff"/>
      <path id="Path_2316" data-name="Path 2316" d="M229.043,676.7A54.058,54.058,0,1,0,283.1,730.759,54.056,54.056,0,0,0,229.043,676.7Zm-38.01,27.127,3.175,12.058H187.86Zm2.521-1.456,13.629,13.514H197.111Zm-5.293.96-3.3,12.554H182.2A48.9,48.9,0,0,1,188.26,703.332ZM275.222,747.6a48.83,48.83,0,0,1-4.578,9.3c-.3.486-.61.97-.93,1.443s-.647.922-.978,1.374a25.04,25.04,0,0,0-5.811-9.105,71.991,71.991,0,0,0-10.758-8.742c-1.876-1.322-3.6-2.539-5.056-3.721a23.4,23.4,0,0,1-2-1.806,10.92,10.92,0,0,1-1.4-1.751l-.045-.061a5.44,5.44,0,0,1-.879-2.849,4.739,4.739,0,0,1,.264-1.546,4.537,4.537,0,0,1,.629-1.187,4.907,4.907,0,0,1,1.211-1.192,8.33,8.33,0,0,1,2.768-1.162,21.074,21.074,0,0,1,2.771-.448c-.117-.758-.2-1.524-.241-2.3-1.419.13-3.043.156-4.827.194-2.1.042-4.451.09-6.683.325a19.508,19.508,0,0,0-5.921,1.4,6.137,6.137,0,0,0-2.406,1.808,3.449,3.449,0,0,0-.684,1.5v1.062a5.453,5.453,0,0,0,.641,1.735,13.244,13.244,0,0,0,1.7,2.307l.349.389c.324.348.69.7,1.055,1.054.446.431.914.861,1.4,1.3q1.125.995,2.338,1.991.7.574,1.4,1.143l.266.216c.384.308.759.616,1.138.925.8.649,1.585,1.3,2.341,1.957.484.42.948.846,1.4,1.275q.732.687,1.4,1.4c.315.334.644.663.937,1.009a12.672,12.672,0,0,1,3.348,8.282,12.011,12.011,0,0,1-.174,2.048,12.524,12.524,0,0,1-2.585,5.864,14.2,14.2,0,0,1-1.527,1.595,17.39,17.39,0,0,1-1.4,1.145q-.673.49-1.4.941c-.224.137-.438.281-.67.414-.536.305-1.094.594-1.671.877-.454.221-.924.438-1.4.652-.456.2-.928.392-1.4.587-.757.305-1.53.606-2.338.9-.457.163-.932.326-1.4.488s-.929.316-1.4.472c-1.762.583-3.611,1.164-5.564,1.777-3.9,1.216-8.285,2.589-13.057,4.462-.667-.226-1.329-.463-1.985-.716-.622-.239-1.24-.485-1.85-.75a49.233,49.233,0,0,1-15.253-10.365c-.713-.715-1.4-1.459-2.068-2.217l.125,0a5.374,5.374,0,0,1,2.46.515,21.2,21.2,0,0,1,2.889,2.1A8.053,8.053,0,0,0,202.7,767.5a8.19,8.19,0,0,0,3.691-.8,21.634,21.634,0,0,0,3.3-2.343,5.59,5.59,0,0,1,1.408-.761,5.675,5.675,0,0,1,1.965-.308,5.37,5.37,0,0,1,2.46.515,21.209,21.209,0,0,1,2.893,2.1,8.054,8.054,0,0,0,5.008,1.594V764.69a5.386,5.386,0,0,1-2.46-.517,21.345,21.345,0,0,1-2.893-2.1,8.362,8.362,0,0,0-2.1-1.126,8.538,8.538,0,0,0-2.906-.471,8.185,8.185,0,0,0-3.693.8,21.725,21.725,0,0,0-3.3,2.342,5.605,5.605,0,0,1-1.4.763,5.816,5.816,0,0,1-1.965.306,5.373,5.373,0,0,1-2.457-.517,21.512,21.512,0,0,1-2.891-2.1,8.319,8.319,0,0,0-2.1-1.126,8.544,8.544,0,0,0-2.906-.471,8.719,8.719,0,0,0-2.224.273,49.06,49.06,0,0,1-4.361-6.7,28.494,28.494,0,0,0,2.9-2.124,5.529,5.529,0,0,1,1.4-.762,5.658,5.658,0,0,1,1.949-.307,5.3,5.3,0,0,1,2.438.515,21.309,21.309,0,0,1,2.874,2.1,8.367,8.367,0,0,0,2.09,1.127,8.483,8.483,0,0,0,2.9.471,8.139,8.139,0,0,0,3.678-.8,21.542,21.542,0,0,0,3.282-2.342,5.519,5.519,0,0,1,1.4-.761,5.631,5.631,0,0,1,1.95-.308,5.313,5.313,0,0,1,2.441.515,21.313,21.313,0,0,1,2.875,2.1,8.4,8.4,0,0,0,2.091,1.127,8.5,8.5,0,0,0,2.9.471v-2.809a5.32,5.32,0,0,1-2.441-.513,21.478,21.478,0,0,1-2.878-2.1,8.15,8.15,0,0,0-2.09-1.127,8.456,8.456,0,0,0-2.9-.473,8.143,8.143,0,0,0-3.677.8,21.57,21.57,0,0,0-3.283,2.341,5.514,5.514,0,0,1-1.4.763,5.776,5.776,0,0,1-1.95.305,5.316,5.316,0,0,1-2.438-.513,21.472,21.472,0,0,1-2.874-2.1,8.159,8.159,0,0,0-2.091-1.127,8.44,8.44,0,0,0-2.894-.473,8.147,8.147,0,0,0-3.677.8,21.545,21.545,0,0,0-3.282,2.343l-.542.349a48.66,48.66,0,0,1-3.163-8.926l.363.027a8.131,8.131,0,0,0,3.675-.8,21.617,21.617,0,0,0,3.281-2.344,5.206,5.206,0,0,1,3.344-1.069,5.3,5.3,0,0,1,2.438.515,21.536,21.536,0,0,1,2.874,2.1,8.368,8.368,0,0,0,2.09,1.127,8.485,8.485,0,0,0,2.9.471,8.138,8.138,0,0,0,3.678-.8,21.64,21.64,0,0,0,3.282-2.344,5.611,5.611,0,0,1,1.4-.762,5.7,5.7,0,0,1,1.95-.306,5.312,5.312,0,0,1,2.441.515,21.54,21.54,0,0,1,2.875,2.1,8.4,8.4,0,0,0,2.091,1.127,8.5,8.5,0,0,0,2.9.471v-2.806a5.3,5.3,0,0,1-2.441-.515,21.267,21.267,0,0,1-2.878-2.1,8.453,8.453,0,0,0-2.09-1.128,8.555,8.555,0,0,0-2.9-.471,8.145,8.145,0,0,0-3.677.8,21.377,21.377,0,0,0-3.283,2.343,5.588,5.588,0,0,1-1.4.761,5.7,5.7,0,0,1-1.95.308,5.3,5.3,0,0,1-2.438-.515,21.352,21.352,0,0,1-2.874-2.1,8.422,8.422,0,0,0-2.091-1.13,8.539,8.539,0,0,0-2.894-.471,8.149,8.149,0,0,0-3.677.8,21.635,21.635,0,0,0-3.282,2.343,5.58,5.58,0,0,1-1.394.761,5.687,5.687,0,0,1-1.947.308,7.3,7.3,0,0,1-.976-.076,49.41,49.41,0,0,1-.837-9.008c0-.222.014-.439.015-.663a9.251,9.251,0,0,0,1.573.13,8.1,8.1,0,0,0,3.664-.8,21.5,21.5,0,0,0,3.268-2.345,5.176,5.176,0,0,1,3.323-1.066,5.239,5.239,0,0,1,2.423.513,21.536,21.536,0,0,1,2.861,2.1,8.206,8.206,0,0,0,2.083,1.127,8.362,8.362,0,0,0,2.887.473,8.1,8.1,0,0,0,3.666-.8,21.587,21.587,0,0,0,3.27-2.345,5.176,5.176,0,0,1,3.324-1.066,5.247,5.247,0,0,1,2.425.515,21.155,21.155,0,0,1,2.863,2.1,8.216,8.216,0,0,0,2.084,1.127,8.368,8.368,0,0,0,2.887.473v-2.809a5.237,5.237,0,0,1-2.426-.515,20.984,20.984,0,0,1-2.861-2.1,7.962,7.962,0,0,0-4.972-1.6,8.053,8.053,0,0,0-3.667.8,21.32,21.32,0,0,0-3.27,2.346,5.555,5.555,0,0,1-1.387.759,5.622,5.622,0,0,1-1.935.3,5.221,5.221,0,0,1-2.423-.515,20.9,20.9,0,0,1-2.861-2.1,7.954,7.954,0,0,0-4.97-1.6,8.046,8.046,0,0,0-3.664.8,21.232,21.232,0,0,0-3.268,2.346,5.155,5.155,0,0,1-3.323,1.063,5.95,5.95,0,0,1-1.45-.163,48.988,48.988,0,0,1,1.358-8.56h69c.11-.77.252-1.531.433-2.278l.136-.53a25.164,25.164,0,0,1,.8-2.5l-17.618-17.471-20.136,19.969h-2.84l-18.418-18.263q.753-.824,1.539-1.614a49.142,49.142,0,0,1,69.5,0c.881.881,1.718,1.8,2.533,2.752.323.378.643.754.956,1.143s.614.768.913,1.159a22.421,22.421,0,0,0-14.238,14.5l-.094.327q-.248.83-.433,1.683c-.08.37-.134.747-.2,1.126l-.045.289a22.345,22.345,0,0,0-.25,2.813l-.027.537c0,.33.035.648.049.974a22.789,22.789,0,0,0,.263,2.617c.076.468.157.932.262,1.393s.22.929.354,1.385a22.45,22.45,0,0,0,21.538,16.1c.26,0,.514-.031.772-.042-.142.481-.293.955-.449,1.428S275.392,747.134,275.222,747.6Zm-37.9-31.715h-6.345l3.173-12.058Zm-.652-13.514L250.3,715.886H240.223Zm-8.6,13.514H218l13.628-13.514Z" transform="translate(-174.985 -676.701)" fill="#fff"/>
    </g>
    <rect id="Rectangle_5540" data-name="Rectangle 5540" width="74.853" height="74.853" transform="translate(124.853 6047.779) rotate(-180)" fill="#891515"/>
    <g id="Group_351" data-name="Group 351" transform="translate(60.397 5983.325)">
      <path id="Path_2317" data-name="Path 2317" d="M102.093,761.379V748.113c-.24-.2-.468-.4-.7-.6s-.477-.41-.7-.618v14.988c.243-.083.468-.165.7-.25S101.869,761.463,102.093,761.379Z" transform="translate(-72.18 -716.158)" fill="#fff"/>
      <path id="Path_2318" data-name="Path 2318" d="M103.288,760.016c.245-.118.477-.241.7-.365v-9.995c-.229-.194-.461-.391-.7-.589s-.462-.379-.7-.571v11.838l.075-.03C102.878,760.21,103.086,760.115,103.288,760.016Z" transform="translate(-71.504 -715.586)" fill="#fff"/>
      <path id="Path_2319" data-name="Path 2319" d="M105.556,757.291a5.1,5.1,0,0,0,.332-.472V751.8a7.647,7.647,0,0,0-.608-.829l-.095-.1q-.321-.372-.7-.743v8.191a6.525,6.525,0,0,0,.7-.617A5.018,5.018,0,0,0,105.556,757.291Z" transform="translate(-70.828 -715.005)" fill="#fff"/>
      <path id="Path_2320" data-name="Path 2320" d="M108.271,740.339h0l.011,0-.01-.007Z" transform="translate(-69.48 -718.492)" fill="#fff"/>
      <path id="Path_2321" data-name="Path 2321" d="M99.286,745.466a3.933,3.933,0,0,1-.5-1.516v19.805c.236-.073.473-.148.7-.221s.471-.15.7-.224V746.738a8.309,8.309,0,0,1-.7-.947C99.423,745.685,99.347,745.576,99.286,745.466Z" transform="translate(-72.856 -717.205)" fill="#fff"/>
      <path id="Path_2322" data-name="Path 2322" d="M98.79,743.493v.031l0-.031Z" transform="translate(-72.856 -717.368)" fill="#fff"/>
      <path id="Path_2323" data-name="Path 2323" d="M106.7,724.229a27.029,27.029,0,1,0,27.03,27.028A27.028,27.028,0,0,0,106.7,724.229Zm-19,13.563,1.587,6.029H86.1Zm1.26-.728,6.815,6.758H90.729Zm-2.646.48-1.653,6.278H83.273A24.453,24.453,0,0,1,86.305,737.544Zm43.481,22.135a24.494,24.494,0,0,1-2.289,4.652c-.152.243-.305.484-.467.721s-.323.461-.488.686a12.525,12.525,0,0,0-2.906-4.553,36.039,36.039,0,0,0-5.378-4.371c-.938-.66-1.8-1.269-2.528-1.861a11.7,11.7,0,0,1-1-.9,5.457,5.457,0,0,1-.7-.875l-.022-.031a2.716,2.716,0,0,1-.439-1.424,2.345,2.345,0,0,1,.133-.773,2.226,2.226,0,0,1,.315-.594,2.431,2.431,0,0,1,.6-.6,4.182,4.182,0,0,1,1.385-.58,10.525,10.525,0,0,1,1.385-.224c-.058-.378-.1-.762-.121-1.15-.709.065-1.522.077-2.413.1-1.052.022-2.227.045-3.342.163a9.763,9.763,0,0,0-2.96.7,3.053,3.053,0,0,0-1.2.9,1.71,1.71,0,0,0-.342.749v.53a2.694,2.694,0,0,0,.32.868,6.652,6.652,0,0,0,.85,1.153l.174.2c.163.174.346.35.528.526.224.216.457.431.7.648q.563.5,1.169,1c.233.191.468.381.7.572l.133.107c.193.155.38.308.57.462.4.326.792.651,1.17.979.241.21.473.423.7.637.245.229.479.464.7.7.157.167.323.331.468.5a6.328,6.328,0,0,1,1.675,4.14,5.934,5.934,0,0,1-.087,1.024,6.262,6.262,0,0,1-1.292,2.932,7.052,7.052,0,0,1-.764.8,8.612,8.612,0,0,1-.7.572q-.336.246-.7.471c-.113.069-.22.141-.336.208-.267.152-.547.3-.834.438q-.342.167-.7.327c-.228.1-.464.2-.7.293-.378.153-.765.3-1.169.45-.229.081-.465.163-.7.244s-.465.157-.7.236c-.882.292-1.806.582-2.783.888-1.947.608-4.142,1.294-6.529,2.231-.334-.114-.665-.232-.993-.358-.311-.119-.62-.243-.925-.376a24.634,24.634,0,0,1-7.627-5.182c-.357-.358-.7-.73-1.033-1.109h.062a2.67,2.67,0,0,1,1.23.258,10.746,10.746,0,0,1,1.444,1.05,4.028,4.028,0,0,0,2.5.8,4.1,4.1,0,0,0,1.846-.4,10.88,10.88,0,0,0,1.649-1.172,2.781,2.781,0,0,1,.7-.381,2.848,2.848,0,0,1,.982-.153,2.67,2.67,0,0,1,1.23.258,10.753,10.753,0,0,1,1.447,1.05,4.028,4.028,0,0,0,2.5.8v-1.4a2.685,2.685,0,0,1-1.23-.258,10.779,10.779,0,0,1-1.447-1.05,4.185,4.185,0,0,0-1.05-.563,4.276,4.276,0,0,0-1.454-.236,4.107,4.107,0,0,0-1.847.4,10.876,10.876,0,0,0-1.649,1.172,2.8,2.8,0,0,1-.7.381,2.894,2.894,0,0,1-.982.153,2.674,2.674,0,0,1-1.229-.258,10.779,10.779,0,0,1-1.447-1.05,4.138,4.138,0,0,0-1.05-.563,4.262,4.262,0,0,0-1.452-.236,4.327,4.327,0,0,0-1.112.137,24.7,24.7,0,0,1-2.181-3.348,14.508,14.508,0,0,0,1.452-1.062,2.729,2.729,0,0,1,.7-.381,2.818,2.818,0,0,1,.975-.153,2.64,2.64,0,0,1,1.219.258,10.6,10.6,0,0,1,1.436,1.048,4.159,4.159,0,0,0,1.046.564,4.242,4.242,0,0,0,1.448.236,4.065,4.065,0,0,0,1.838-.4,10.882,10.882,0,0,0,1.642-1.17,2.726,2.726,0,0,1,.7-.381,2.818,2.818,0,0,1,.975-.153,2.646,2.646,0,0,1,1.221.258,10.69,10.69,0,0,1,1.438,1.048,4.159,4.159,0,0,0,1.046.564,4.242,4.242,0,0,0,1.448.236v-1.4a2.648,2.648,0,0,1-1.221-.256,10.714,10.714,0,0,1-1.438-1.05,4.109,4.109,0,0,0-1.046-.563,4.207,4.207,0,0,0-1.448-.237,4.084,4.084,0,0,0-1.839.4A10.861,10.861,0,0,0,95,761.476a2.75,2.75,0,0,1-.7.383,2.894,2.894,0,0,1-.975.152,2.638,2.638,0,0,1-1.219-.256,10.628,10.628,0,0,1-1.438-1.05,4.086,4.086,0,0,0-1.046-.563,4.2,4.2,0,0,0-1.447-.237,4.078,4.078,0,0,0-1.838.4,10.783,10.783,0,0,0-1.641,1.172l-.271.175a24.417,24.417,0,0,1-1.583-4.463l.182.014a4.067,4.067,0,0,0,1.839-.4,10.855,10.855,0,0,0,1.64-1.172,2.813,2.813,0,0,1,.7-.381,2.85,2.85,0,0,1,.975-.153,2.64,2.64,0,0,1,1.219.258,10.626,10.626,0,0,1,1.436,1.05,4.2,4.2,0,0,0,1.046.563,4.241,4.241,0,0,0,1.448.236,4.065,4.065,0,0,0,1.838-.4,10.969,10.969,0,0,0,1.642-1.172,2.766,2.766,0,0,1,.7-.381,2.85,2.85,0,0,1,.975-.153,2.647,2.647,0,0,1,1.221.258,10.714,10.714,0,0,1,1.438,1.05,4.2,4.2,0,0,0,1.046.563,4.241,4.241,0,0,0,1.448.236v-1.4a2.645,2.645,0,0,1-1.221-.258,10.713,10.713,0,0,1-1.438-1.05,4,4,0,0,0-2.494-.8,4.085,4.085,0,0,0-1.839.4A10.762,10.762,0,0,0,95,755.265a2.8,2.8,0,0,1-.7.381,2.856,2.856,0,0,1-.975.153,2.635,2.635,0,0,1-1.219-.258,10.627,10.627,0,0,1-1.438-1.05,4.223,4.223,0,0,0-1.046-.564,4.273,4.273,0,0,0-1.447-.236,4.079,4.079,0,0,0-1.838.4,10.877,10.877,0,0,0-1.641,1.172,2.821,2.821,0,0,1-.7.381,2.85,2.85,0,0,1-.975.153,3.418,3.418,0,0,1-.487-.038,24.64,24.64,0,0,1-.419-4.5c0-.111.007-.22.008-.331a4.609,4.609,0,0,0,.785.065,4.065,4.065,0,0,0,1.834-.4,10.837,10.837,0,0,0,1.634-1.172,2.721,2.721,0,0,1,.693-.38,2.776,2.776,0,0,1,.968-.153,2.612,2.612,0,0,1,1.211.256,10.791,10.791,0,0,1,1.431,1.05,4.126,4.126,0,0,0,1.042.563,4.185,4.185,0,0,0,1.443.237,4.065,4.065,0,0,0,1.834-.4,10.836,10.836,0,0,0,1.634-1.172,2.73,2.73,0,0,1,.694-.38,2.776,2.776,0,0,1,.968-.153,2.613,2.613,0,0,1,1.212.258,10.571,10.571,0,0,1,1.432,1.048,4.1,4.1,0,0,0,1.042.563,4.187,4.187,0,0,0,1.444.237v-1.405a2.6,2.6,0,0,1-1.214-.258,10.413,10.413,0,0,1-1.431-1.048,4,4,0,0,0-2.486-.8,4.03,4.03,0,0,0-1.834.4,10.746,10.746,0,0,0-1.634,1.173,2.768,2.768,0,0,1-.694.38,2.813,2.813,0,0,1-.968.152,2.594,2.594,0,0,1-1.211-.258,10.413,10.413,0,0,1-1.431-1.048,3.989,3.989,0,0,0-2.484-.8,4.02,4.02,0,0,0-1.832.4,10.7,10.7,0,0,0-1.636,1.173,2.737,2.737,0,0,1-.693.38,2.813,2.813,0,0,1-.968.152,2.972,2.972,0,0,1-.724-.081,24.43,24.43,0,0,1,.679-4.28h34.5q.083-.578.217-1.139l.068-.264a12.521,12.521,0,0,1,.4-1.249l-8.808-8.736-10.069,9.985H97.761l-9.21-9.132q.376-.411.769-.807a24.572,24.572,0,0,1,34.75,0c.441.441.86.9,1.267,1.376.161.189.321.377.479.571s.306.384.456.579a11.214,11.214,0,0,0-7.118,7.249l-.047.164c-.083.277-.155.556-.216.841-.041.186-.068.374-.1.563l-.022.145a11.151,11.151,0,0,0-.125,1.406l-.014.269c0,.164.018.324.024.487a11.555,11.555,0,0,0,.132,1.309c.038.233.079.465.13.7s.111.465.178.693a11.224,11.224,0,0,0,10.769,8.049c.13,0,.256-.015.387-.02q-.108.36-.225.713C129.946,759.207,129.87,759.446,129.786,759.679Zm-18.952-15.858h-3.173l1.588-6.029Zm-.325-6.758,6.813,6.758h-5.035Zm-4.3,6.758h-5.035l6.813-6.758Z" transform="translate(-79.667 -724.229)" fill="#fff"/>
    </g>
    <rect id="Rectangle_5650" data-name="Rectangle 5650" width="611" height="710" transform="translate(50 5338)" fill="none"/>
  </g>
</svg>
