<svg xmlns="http://www.w3.org/2000/svg" width="1265" height="712" viewBox="0 0 1265 712"><g transform="translate(-51 -4187)"><g transform="translate(-36.146 3516.168)"><g transform="translate(300.146 911.316)"><g transform="translate(275.11 38.38)"><path d="M253.856,641.3V600.827h12.1V641.3c0,6.172,3.086,10.51,11.181,10.51,7.675,0,11.257-4.5,11.257-10.679v-40.3h12.1V641.3c0,12.765-7.844,20.189-23.112,20.189C261.942,661.484,253.856,654.227,253.856,641.3Z" transform="translate(-253.856 -600.827)"/><path d="M271.166,639.125c0-13.348,7.593-22.613,18.273-22.613a13.581,13.581,0,0,1,12.1,6.342h.248V600.827h11.348v59.656H302.2v-5.589h-.166c-2.5,4.087-6.759,6.841-12.771,6.841C278.505,661.735,271.166,652.975,271.166,639.125Zm30.872.251c0-8.176-2.675-13.684-9.93-13.684-6.257,0-9.428,5.508-9.428,13.433,0,8.258,3.253,13.1,9.093,13.1C298.531,652.225,302.038,647.22,302.038,639.376Z" transform="translate(-218.842 -600.827)"/><path d="M286.793,639.125c0-13.348,7.593-22.613,18.273-22.613a13.581,13.581,0,0,1,12.1,6.342h.248V600.827h11.348v59.656H317.831v-5.589h-.166c-2.5,4.087-6.759,6.841-12.771,6.841C294.132,661.735,286.793,652.975,286.793,639.125Zm30.872.251c0-8.176-2.675-13.684-9.93-13.684-6.257,0-9.428,5.508-9.428,13.433,0,8.258,3.253,13.1,9.09,13.1C314.158,652.225,317.665,647.22,317.665,639.376Z" transform="translate(-187.231 -600.827)"/><path d="M302.42,628.547c0-12.686,8.591-22.531,21.105-22.531,13.769,0,21.114,10.516,21.114,25.784H313.6c.84,6.589,4.507,10.679,10.933,10.679,4.422,0,7.01-2,8.261-5.256h11.181c-1.587,7.593-8.349,14.016-19.358,14.016C310.424,651.239,302.42,641.31,302.42,628.547Zm11.348-4.591H332.79c-.336-5.423-3.92-9.177-9.1-9.177C317.688,614.779,314.765,618.364,313.768,623.956Z" transform="translate(-155.621 -590.331)"/><path d="M316.721,606.4h11.517l6.837,22.193c1.252,4.092,1.926,6.843,1.926,6.843h.163s.586-2.751,1.838-6.843l7.007-22.193h11.347l-14.936,42.8H331.575Z" transform="translate(-126.693 -589.548)"/><path d="M358.035,645.177h-.169c-2.167,3.252-5.257,5.755-12.6,5.755-8.763,0-14.933-4.588-14.933-13.1,0-9.428,7.675-12.433,17.188-13.766,7.088-1,10.344-1.59,10.344-4.842,0-3.086-2.415-5.088-7.176-5.088-5.341,0-7.929,1.917-8.258,6.006h-10.1c.332-7.511,5.922-14.1,18.439-14.1,12.853,0,18.025,5.755,18.025,15.77v21.779c0,3.252.5,5.171,1.5,5.924v.414H359.371C358.7,649.1,358.283,647.1,358.035,645.177Zm.085-10.347v-6.423c-2,1.167-5.09,1.835-7.932,2.5-5.922,1.336-8.842,2.669-8.842,6.674s2.666,5.423,6.677,5.423C354.528,643.006,358.119,639,358.119,634.83Z" transform="translate(-99.157 -590.275)"/><path d="M345.49,600.827h11.347v59.656H345.49Z" transform="translate(-68.5 -600.827)"/><path d="M351.783,600.827h11.348v59.656H351.783Z" transform="translate(-55.77 -600.827)"/><path d="M385.035,645.177h-.169c-2.167,3.252-5.257,5.755-12.6,5.755-8.763,0-14.932-4.588-14.932-13.1,0-9.428,7.675-12.433,17.187-13.766,7.088-1,10.344-1.59,10.344-4.842,0-3.086-2.415-5.088-7.176-5.088-5.341,0-7.929,1.917-8.258,6.006h-10.1c.332-7.511,5.921-14.1,18.439-14.1,12.853,0,18.025,5.755,18.025,15.77v21.779c0,3.252.5,5.171,1.5,5.924v.414H386.371C385.7,649.1,385.283,647.1,385.035,645.177Zm.085-10.347v-6.423c-2,1.167-5.09,1.835-7.932,2.5-5.922,1.336-8.842,2.669-8.842,6.674s2.666,5.423,6.677,5.423C381.529,643.006,385.12,639,385.12,634.83Z" transform="translate(-44.542 -590.275)"/></g><g transform="translate(273.272 121.644)"><path d="M298.886,681.192h-.166c-4.09,6.838-9.676,9.259-16.773,9.259-9.008,0-16.018-3.255-20.939-8.678-4.924-5.5-7.759-13.179-7.759-22.193,0-9.93,3.5-18.6,9.761-24.363,4.84-4.422,11.181-6.844,19.192-6.844,15.02,0,23.611,8.261,25.531,19.944H295.881c-1.336-5.761-5.758-9.933-13.433-9.933-11.263,0-16.855,9.346-16.855,21.2,0,12.182,6.423,21.111,16.692,21.111,9.262,0,15.35-6.925,15.35-13.518v-.332H283.282v-9.346H308.4V689.2H299.3Z" transform="translate(-253.248 -628.373)"/><path d="M277.244,682.228h4.008c4.507,0,6.342-2.337,6.342-5.843,0-2.337-.837-5.09-3.253-11.6l-11.52-30.454h11.934l6.339,19.273c1.336,3.92,2.757,9.347,2.757,9.347h.166s1.17-5.426,2.5-9.347l6.012-19.273h11.429L299.023,678.22c-3.252,9.515-6.423,12.937-15.1,12.937h-6.677Z" transform="translate(-213.654 -616.311)"/><path d="M287.7,635.119H298.63v5.755h.254a13.967,13.967,0,0,1,12.43-6.925,12.769,12.769,0,0,1,11.849,7.508h.169c2.917-4.67,7.421-7.508,12.847-7.508,9.011,0,14.1,5.843,14.1,15.186v28.785H338.933V651.055c0-4.839-2.415-7.342-6.59-7.342-4.758,0-7.675,3.67-7.675,9.343v24.865H313.321V651.055c0-4.839-2.421-7.342-6.6-7.342-4.586,0-7.675,3.67-7.675,9.343v24.865H287.7Z" transform="translate(-183.553 -617.094)"/><path d="M321.828,640.956h.248c2.923-4.586,6.843-7.007,12.684-7.007,8.845,0,14.772,6.674,14.772,16.021v27.951H338.184V651.638c0-4.588-2.675-7.844-7.427-7.844-5.009,0-8.681,4.005-8.681,9.848v24.279H310.731v-42.8h11.1Z" transform="translate(-136.972 -617.094)"/><path d="M352.9,673.111h-.169c-2.167,3.253-5.254,5.755-12.6,5.755-8.763,0-14.933-4.589-14.933-13.1,0-9.428,7.675-12.429,17.188-13.765,7.091-1,10.344-1.584,10.344-4.839,0-3.086-2.415-5.09-7.173-5.09-5.344,0-7.929,1.92-8.261,6.006H327.2c.333-7.508,5.922-14.1,18.439-14.1,12.853,0,18.025,5.761,18.025,15.773v21.776c0,3.252.5,5.172,1.5,5.924v.417H354.234C353.566,677.032,353.146,675.031,352.9,673.111Zm.085-10.347v-6.426c-2,1.17-5.09,1.835-7.929,2.5-5.921,1.336-8.845,2.672-8.845,6.677s2.669,5.423,6.677,5.423C349.391,670.941,352.982,666.936,352.982,662.765Z" transform="translate(-107.71 -617.04)"/><path d="M339.416,664.071h10.51c.756,4.921,4.256,7.094,9.344,7.094,5.008,0,7.847-1.919,7.847-4.924,0-4.09-5.426-4.507-11.263-5.674-7.675-1.5-15.187-3.591-15.187-12.938,0-9.259,7.675-13.681,17.436-13.681,11.263,0,17.523,5.592,18.36,14.183H366.2c-.5-4.585-3.419-6.257-8.261-6.257-4.422,0-7.345,1.672-7.345,4.758,0,3.67,5.674,4,11.768,5.256,7.179,1.5,15.1,3.5,15.1,13.514,0,8.594-7.346,13.769-18.025,13.769C347.009,679.172,340.084,673.166,339.416,664.071Z" transform="translate(-78.948 -617.094)"/><path d="M353.69,628.76h11.344v10.18H353.69Zm0,16.855h11.344v42.8H353.69Z" transform="translate(-50.075 -627.59)"/><path d="M359.186,656.478c0-12.683,8.588-22.528,21.105-22.528,13.769,0,21.111,10.513,21.111,25.781H370.361c.837,6.592,4.5,10.682,10.933,10.682,4.422,0,7.007-2,8.261-5.26h11.181c-1.59,7.593-8.349,14.02-19.361,14.02C367.19,679.172,359.186,669.246,359.186,656.478Zm11.348-4.589h19.022c-.339-5.423-3.921-9.177-9.1-9.177C374.451,642.712,371.531,646.3,370.534,651.889Z" transform="translate(-38.958 -617.094)"/><path d="M374.01,664.071h10.507c.756,4.921,4.259,7.094,9.346,7.094,5.006,0,7.847-1.919,7.847-4.924,0-4.09-5.426-4.507-11.266-5.674-7.675-1.5-15.183-3.591-15.183-12.938,0-9.259,7.675-13.681,17.435-13.681,11.263,0,17.52,5.592,18.36,14.183H400.789c-.5-4.585-3.419-6.257-8.258-6.257-4.422,0-7.345,1.672-7.345,4.758,0,3.67,5.674,4,11.768,5.256,7.179,1.5,15.1,3.5,15.1,13.514,0,8.594-7.345,13.769-18.025,13.769C381.6,679.172,374.678,673.166,374.01,664.071Z" transform="translate(-8.972 -617.094)"/><path d="M404.473,668.893l-4.924,5.09v14.433H388.283V628.76h11.266V661.8l15.183-16.184h13.6l-15.773,16.268,17.693,26.533H416.486Z" transform="translate(19.899 -627.59)"/><path d="M401.731,656.562c0-12.768,9.09-22.613,22.357-22.613s22.365,9.845,22.365,22.613-9.1,22.61-22.365,22.61S401.731,669.328,401.731,656.562Zm33.2,0c0-8.346-3.921-14.02-10.846-14.02-7.007,0-10.846,5.674-10.846,14.02s3.839,13.932,10.846,13.932C431.013,670.494,434.933,664.905,434.933,656.562Z" transform="translate(47.102 -617.094)"/><path d="M418.322,628.76h11.347v59.656H418.322Z" transform="translate(80.662 -627.59)"/><path d="M451.574,673.111H451.4c-2.167,3.253-5.257,5.755-12.6,5.755-8.763,0-14.932-4.589-14.932-13.1,0-9.428,7.675-12.429,17.188-13.765,7.088-1,10.344-1.584,10.344-4.839,0-3.086-2.415-5.09-7.173-5.09-5.344,0-7.932,1.92-8.261,6.006h-10.1c.332-7.508,5.922-14.1,18.439-14.1,12.853,0,18.025,5.761,18.025,15.773v21.776c0,3.252.5,5.172,1.5,5.924v.417H452.91C452.242,677.032,451.822,675.031,451.574,673.111Zm.085-10.347v-6.426c-2,1.17-5.091,1.835-7.929,2.5-5.922,1.336-8.845,2.672-8.845,6.677s2.669,5.423,6.677,5.423C448.068,670.941,451.659,666.936,451.659,662.765Z" transform="translate(91.89 -617.04)"/></g><g transform="translate(122.26 131.791)"><path d="M209.311,693.869V636.978c-1.028-.855-2.007-1.723-3.011-2.6s-2.046-1.753-3.011-2.651v64.279c1.046-.354,2.007-.71,3.011-1.07S208.35,694.228,209.311,693.869Z" transform="translate(-203.29 -631.73)"/></g><g transform="translate(133.296 141.138)"><path d="M209.952,684.223c1.055-.508,2.046-1.034,3.011-1.566V639.794c-.979-.835-1.974-1.674-3.011-2.521-.988-.813-1.983-1.62-3.011-2.451v50.767l.32-.127C208.192,685.054,209.087,684.649,209.952,684.223Z" transform="translate(-206.941 -634.822)"/></g><g transform="translate(144.338 150.629)"><path d="M215.189,668.679a22.252,22.252,0,0,0,1.427-2.029v-21.5a33.677,33.677,0,0,0-2.6-3.554l-.408-.445c-.922-1.061-1.926-2.128-3.011-3.186v35.127a27.5,27.5,0,0,0,3.011-2.645A22.721,22.721,0,0,0,215.189,668.679Z" transform="translate(-210.594 -637.962)"/></g><g transform="translate(166.356 93.677)"><path d="M217.878,619.13l0,.006.044.018-.044-.033Z" transform="translate(-217.878 -619.121)"/></g><g transform="translate(111.217 114.692)"><path d="M201.762,632.578a16.952,16.952,0,0,1-2.125-6.5v84.939c1.013-.32,2.028-.635,3.011-.949,1.025-.321,2.019-.647,3.011-.964V638.031a35.5,35.5,0,0,1-3.011-4.057C202.351,633.512,202.028,633.053,201.762,632.578Z" transform="translate(-199.637 -626.073)"/></g><g transform="translate(111.217 112.038)"><path d="M199.637,625.2v.133l.015-.133Z" transform="translate(-199.637 -625.195)"/></g><g transform="translate(0 0)"><path d="M278.759,588.13A115.91,115.91,0,1,0,394.671,704.04,115.911,115.911,0,0,0,278.759,588.13Zm-81.5,58.167,6.807,25.856H190.454Zm5.4-3.123,29.224,28.979h-21.6Zm-11.351,2.058-7.085,26.921h-5.919A104.835,104.835,0,0,1,191.31,645.232Zm186.47,94.923a104.685,104.685,0,0,1-9.818,19.947c-.653,1.043-1.306,2.08-2,3.092-.677,1-1.387,1.98-2.095,2.947-2.509-7.369-7.016-13.808-12.463-19.524-7.119-7.463-15.755-13.584-23.067-18.744-4.023-2.832-7.72-5.444-10.843-7.977a50.493,50.493,0,0,1-4.3-3.878,23.158,23.158,0,0,1-3.011-3.751l-.1-.133a11.65,11.65,0,0,1-1.883-6.106,10.222,10.222,0,0,1,.565-3.316,9.8,9.8,0,0,1,1.348-2.545,10.543,10.543,0,0,1,2.6-2.557,17.883,17.883,0,0,1,5.937-2.491,45.087,45.087,0,0,1,5.94-.958q-.372-2.44-.517-4.936c-3.041.281-6.529.333-10.35.417-4.513.091-9.543.187-14.331.7a41.9,41.9,0,0,0-12.7,3,13.184,13.184,0,0,0-5.157,3.878,7.38,7.38,0,0,0-1.466,3.21V702.7a11.7,11.7,0,0,0,1.378,3.718,28.056,28.056,0,0,0,3.642,4.948l.747.834c.7.747,1.478,1.5,2.264,2.261q1.433,1.379,3.011,2.778,2.417,2.131,5.015,4.271,1.5,1.224,3.011,2.448l.571.462c.825.659,1.629,1.321,2.439,1.983,1.717,1.393,3.4,2.79,5.021,4.2,1.037.9,2.031,1.814,3.011,2.733q1.574,1.474,3.011,3.011c.674.716,1.381,1.423,2.007,2.164,4.226,5.009,7.2,10.831,7.182,17.758a25.97,25.97,0,0,1-.375,4.392,26.849,26.849,0,0,1-5.541,12.575,30.887,30.887,0,0,1-3.274,3.419,37.488,37.488,0,0,1-3.011,2.451q-1.442,1.057-3.011,2.019c-.481.3-.943.6-1.439.889-1.148.653-2.349,1.272-3.582,1.877-.976.478-1.983.943-3.011,1.4-.976.426-1.989.846-3.011,1.261-1.626.656-3.28,1.3-5.015,1.928-.979.348-2,.7-3.011,1.046q-1.487.508-3.011,1.016c-3.778,1.248-7.744,2.494-11.931,3.806-8.355,2.608-17.765,5.549-28,9.566q-2.145-.725-4.256-1.532c-1.333-.511-2.66-1.043-3.966-1.609a105.506,105.506,0,0,1-32.707-22.226c-1.532-1.533-3-3.129-4.437-4.755l.272-.009a11.582,11.582,0,0,1,5.272,1.1c2.022.961,3.7,2.672,6.2,4.507a17.288,17.288,0,0,0,10.734,3.419,17.6,17.6,0,0,0,7.914-1.711c3.183-1.581,5.151-3.681,7.073-5.027a12.057,12.057,0,0,1,3.017-1.632,12.249,12.249,0,0,1,4.217-.659,11.607,11.607,0,0,1,5.275,1.1c2.022.961,3.7,2.672,6.2,4.507a17.324,17.324,0,0,0,10.74,3.419V776.8a11.571,11.571,0,0,1-5.275-1.109c-2.028-.962-3.7-2.672-6.206-4.5a17.811,17.811,0,0,0-4.5-2.415,18.441,18.441,0,0,0-6.23-1.007,17.587,17.587,0,0,0-7.923,1.714c-3.18,1.581-5.151,3.685-7.07,5.024a12.2,12.2,0,0,1-3.014,1.638,12.5,12.5,0,0,1-4.214.656,11.532,11.532,0,0,1-5.269-1.109c-2.022-.962-3.7-2.672-6.2-4.5a17.74,17.74,0,0,0-4.5-2.415,18.455,18.455,0,0,0-6.23-1.007,18.691,18.691,0,0,0-4.77.584,105.321,105.321,0,0,1-9.353-14.358,61.269,61.269,0,0,0,6.23-4.555,11.947,11.947,0,0,1,2.99-1.635,12.218,12.218,0,0,1,4.181-.656,11.38,11.38,0,0,1,5.226,1.1c2.01.961,3.676,2.669,6.164,4.5a17.947,17.947,0,0,0,4.483,2.418,18.233,18.233,0,0,0,6.209,1.007,17.4,17.4,0,0,0,7.883-1.72c3.171-1.578,5.127-3.682,7.04-5.021a11.775,11.775,0,0,1,2.99-1.629,12.075,12.075,0,0,1,4.184-.662,11.423,11.423,0,0,1,5.235,1.1c2.007.961,3.673,2.669,6.163,4.5a17.892,17.892,0,0,0,4.483,2.418,18.282,18.282,0,0,0,6.215,1.007v-6.021a11.411,11.411,0,0,1-5.236-1.1c-2.01-.958-3.676-2.672-6.169-4.5a17.515,17.515,0,0,0-4.48-2.421,18.2,18.2,0,0,0-6.212-1.012,17.47,17.47,0,0,0-7.884,1.72c-3.171,1.587-5.127,3.675-7.04,5.021a11.907,11.907,0,0,1-3,1.638,12.494,12.494,0,0,1-4.178.653,11.382,11.382,0,0,1-5.229-1.1c-2.007-.958-3.676-2.672-6.164-4.5a17.484,17.484,0,0,0-4.483-2.421,18.138,18.138,0,0,0-6.206-1.012,17.465,17.465,0,0,0-7.88,1.72c-3.171,1.587-5.13,3.682-7.04,5.024l-1.161.75a103.8,103.8,0,0,1-6.783-19.14l.777.061a17.5,17.5,0,0,0,7.883-1.717c3.171-1.584,5.124-3.685,7.034-5.024a11.132,11.132,0,0,1,7.17-2.292,11.345,11.345,0,0,1,5.226,1.1c2.01.958,3.676,2.672,6.164,4.5a18.054,18.054,0,0,0,4.483,2.418,18.292,18.292,0,0,0,6.209,1.01,17.479,17.479,0,0,0,7.883-1.717c3.171-1.584,5.127-3.685,7.04-5.024a12.084,12.084,0,0,1,2.99-1.635,12.236,12.236,0,0,1,4.184-.656,11.388,11.388,0,0,1,5.235,1.1c2.007.958,3.673,2.672,6.163,4.5a18,18,0,0,0,4.483,2.418,18.342,18.342,0,0,0,6.215,1.01v-6.018a11.413,11.413,0,0,1-5.236-1.1c-2.01-.961-3.676-2.672-6.169-4.507a17.867,17.867,0,0,0-4.48-2.415,18.339,18.339,0,0,0-6.212-1.01,17.43,17.43,0,0,0-7.884,1.72c-3.171,1.581-5.127,3.676-7.04,5.024a11.958,11.958,0,0,1-3,1.629,12.177,12.177,0,0,1-4.178.662,11.385,11.385,0,0,1-5.229-1.1c-2.007-.961-3.676-2.672-6.164-4.5a17.749,17.749,0,0,0-4.483-2.418,18.277,18.277,0,0,0-6.206-1.01,17.425,17.425,0,0,0-7.88,1.72c-3.171,1.581-5.13,3.685-7.04,5.024a11.971,11.971,0,0,1-2.99,1.629,12.19,12.19,0,0,1-4.178.662,15.6,15.6,0,0,1-2.092-.163,105.907,105.907,0,0,1-1.8-19.316c0-.477.03-.94.036-1.421a19.98,19.98,0,0,0,3.367.281,17.4,17.4,0,0,0,7.862-1.723c3.156-1.584,5.105-3.685,7.007-5.024a11.057,11.057,0,0,1,7.125-2.289,11.263,11.263,0,0,1,5.2,1.1c2,.961,3.652,2.672,6.136,4.5a17.445,17.445,0,0,0,4.465,2.418,18.058,18.058,0,0,0,6.191,1.015,17.4,17.4,0,0,0,7.862-1.723c3.156-1.584,5.106-3.685,7.01-5.024a11.78,11.78,0,0,1,2.974-1.633,12.032,12.032,0,0,1,4.15-.656,11.27,11.27,0,0,1,5.2,1.1c2,.958,3.661,2.669,6.139,4.5a17.437,17.437,0,0,0,4.471,2.418,18.044,18.044,0,0,0,6.191,1.015v-6.024a11.231,11.231,0,0,1-5.2-1.1c-2-.949-3.658-2.663-6.136-4.495a17.6,17.6,0,0,0-4.471-2.418,17.875,17.875,0,0,0-6.194-1.012,17.3,17.3,0,0,0-7.859,1.717c-3.159,1.587-5.111,3.685-7.013,5.03a11.9,11.9,0,0,1-2.974,1.632,12.119,12.119,0,0,1-4.15.65,11.222,11.222,0,0,1-5.2-1.1c-2-.949-3.654-2.663-6.136-4.495a17.471,17.471,0,0,0-4.468-2.418,17.84,17.84,0,0,0-6.188-1.012,17.31,17.31,0,0,0-7.859,1.717c-3.159,1.587-5.105,3.685-7.007,5.03a11.916,11.916,0,0,1-2.977,1.632,12.106,12.106,0,0,1-4.15.65,12.963,12.963,0,0,1-3.107-.348,105.026,105.026,0,0,1,2.914-18.354H324.545c.239-1.654.544-3.283.928-4.885l.29-1.137a54.025,54.025,0,0,1,1.717-5.359L289.7,629.333l-43.181,42.82h-6.085l-39.5-39.163q1.614-1.768,3.3-3.461a105.372,105.372,0,0,1,149.024,0c1.889,1.889,3.688,3.866,5.432,5.9.692.81,1.381,1.617,2.053,2.451.659.816,1.315,1.647,1.953,2.485a48.075,48.075,0,0,0-30.53,31.082l-.2.7q-.53,1.773-.928,3.606c-.169.792-.287,1.6-.417,2.415l-.1.62a47.653,47.653,0,0,0-.532,6.03l-.061,1.149c0,.707.079,1.39.106,2.088a48.509,48.509,0,0,0,.565,5.616c.163,1,.332,2,.556,2.981s.475,1.992.762,2.971a48.136,48.136,0,0,0,46.182,34.519c.559,0,1.1-.066,1.659-.091-.308,1.034-.629,2.047-.967,3.062S378.142,739.155,377.779,740.155Zm-81.271-68H282.9l6.8-25.856Zm-1.4-28.979,29.221,28.979h-21.6ZM276.67,672.153H255.078L284.3,643.174Z" transform="translate(-162.844 -588.13)"/></g></g></g><rect width="1265" height="712" transform="translate(51 4187)" fill="none"/></g></svg>