<svg xmlns="http://www.w3.org/2000/svg" width="611" height="710" viewBox="0 0 611 710">
  <g id="Group_889" data-name="Group 889" transform="translate(-704 -5338)">
    <rect id="Rectangle_5555" data-name="Rectangle 5555" width="463" height="202" transform="translate(777 5387)" fill="none"/>
    <rect id="Rectangle_5543" data-name="Rectangle 5543" width="50.581" height="50.582" transform="translate(777.158 5538.435)" fill="none" stroke="#2cb2ac" stroke-miterlimit="10" stroke-width="0.5"/>
    <rect id="Rectangle_5546" data-name="Rectangle 5546" width="50.581" height="50.582" transform="translate(1190.057 5538.435)" fill="none" stroke="#2cb2ac" stroke-miterlimit="10" stroke-width="0.5"/>
    <g id="Group_358" data-name="Group 358" transform="translate(827.739 5538.435)">
      <rect id="Rectangle_5549" data-name="Rectangle 5549" width="100.881" height="50.582" fill="none" stroke="#2cb2ac" stroke-miterlimit="10" stroke-width="0.5"/>
    </g>
    <g id="Group_359" data-name="Group 359" transform="translate(928.62 5538.435)">
      <rect id="Rectangle_5550" data-name="Rectangle 5550" width="261.437" height="50.582" fill="none" stroke="#2cb2ac" stroke-miterlimit="10" stroke-width="0.5"/>
    </g>
    <path id="Path_2332" data-name="Path 2332" d="M114.771,385.659" transform="translate(662.079 5203.133)" fill="none" stroke="#2cb2ac" stroke-miterlimit="10" stroke-width="0.5"/>
    <text id="X" transform="translate(877.119 5369)" fill="#1a1818" font-size="10" font-family="Helvetica" letter-spacing="0.04em"><tspan x="-3.335" y="0">X</tspan></text>
    <text id="_1_2_X" data-name="1/2 X" transform="translate(800.968 5610.391)" fill="#1a1818" font-size="11" font-family="Helvetica" letter-spacing="0.04em"><tspan x="-13.722" y="0">1/2 X</tspan></text>
    <text id="_1_2_X-2" data-name="1/2 X" transform="translate(1213.867 5369)" fill="#1a1818" font-size="11" font-family="Helvetica" letter-spacing="0.04em"><tspan x="-13.722" y="0">1/2 X</tspan></text>
    <text id="_1_2_X-3" data-name="1/2 X" transform="translate(1253.284 5566.567)" fill="#1a1818" font-size="12" font-family="Helvetica" letter-spacing="0.04em"><tspan x="0" y="0">1/2 X</tspan></text>
    <text id="_1_2_X-4" data-name="1/2 X" transform="translate(736 5414.823)" fill="#1a1818" font-size="12" font-family="Helvetica" letter-spacing="0.04em"><tspan x="0" y="0">1/2 X</tspan></text>
    <g id="Path_2324" data-name="Path 2324" transform="translate(661.986 5171.02)" fill="none" stroke-miterlimit="10" opacity="0.25">
      <path d="M115.014,316.833a50.581,50.581,0,0,0,50.58,50.582V266.253A50.58,50.58,0,0,0,115.014,316.833Z" stroke="none"/>
      <path d="M 162.5942687988281 269.3451538085938 C 157.2294158935547 269.6763610839844 152.0215301513672 270.8985900878906 147.0748596191406 272.9908752441406 C 141.4093780517578 275.3871765136719 136.3206329345703 278.8182983398438 131.9499816894531 283.18896484375 C 127.5793151855469 287.5596313476562 124.1481781005859 292.6483764648438 121.7518768310547 298.3138427734375 C 119.2715911865234 304.1778564453125 118.0139923095703 310.40869140625 118.0139923095703 316.8333129882812 C 118.0139923095703 323.2582092285156 119.2715911865234 329.4892883300781 121.7518768310547 335.3534851074219 C 124.1481781005859 341.0191040039062 127.5793151855469 346.1079711914062 131.9499969482422 350.4787292480469 C 136.3206329345703 354.8494567871094 141.4093780517578 358.2806396484375 147.0748596191406 360.6769714355469 C 152.0215148925781 362.7692565917969 157.2294006347656 363.9914855957031 162.5942687988281 364.3226928710938 L 162.5942687988281 316.8333129882812 L 162.5942687988281 269.3451538085938 M 165.5942687988281 266.2529907226562 L 165.5942687988281 316.8333129882812 L 165.5942687988281 367.4148559570312 C 137.6596527099609 367.4148559570312 115.0139923095703 344.7691650390625 115.0139923095703 316.8333129882812 C 115.0139923095703 288.8986511230469 137.6596527099609 266.2529907226562 165.5942687988281 266.2529907226562 Z" stroke="none" fill="#040505"/>
    </g>
    <rect id="Rectangle_5541" data-name="Rectangle 5541" width="50.581" height="101.163" transform="translate(777 5437.271)" fill="none" stroke="#2cb2ac" stroke-miterlimit="10" stroke-width="0.5"/>
    <rect id="Rectangle_5542" data-name="Rectangle 5542" width="100.881" height="101.163" transform="translate(827.581 5437.271)" fill="none" stroke="#2cb2ac" stroke-miterlimit="10" stroke-width="0.5"/>
    <g id="Group_355" data-name="Group 355" transform="translate(777 5386.69)">
      <rect id="Rectangle_5544" data-name="Rectangle 5544" width="50.581" height="50.582" fill="none" stroke="#2cb2ac" stroke-miterlimit="10" stroke-width="0.5"/>
    </g>
    <rect id="Rectangle_5545" data-name="Rectangle 5545" width="50.581" height="101.163" transform="translate(1189.899 5437.271)" fill="none" stroke="#2cb2ac" stroke-miterlimit="10" stroke-width="0.5"/>
    <g id="Group_356" data-name="Group 356" transform="translate(1189.899 5386.69)">
      <rect id="Rectangle_5547" data-name="Rectangle 5547" width="50.581" height="50.582" fill="none" stroke="#2cb2ac" stroke-miterlimit="10" stroke-width="0.5"/>
    </g>
    <g id="Group_357" data-name="Group 357" transform="translate(827.581 5386.69)">
      <rect id="Rectangle_5548" data-name="Rectangle 5548" width="100.881" height="50.582" fill="none" stroke="#2cb2ac" stroke-miterlimit="10" stroke-width="0.5"/>
    </g>
    <g id="Group_360" data-name="Group 360" transform="translate(928.462 5386.69)">
      <rect id="Rectangle_5551" data-name="Rectangle 5551" width="261.437" height="50.582" fill="none" stroke="#2cb2ac" stroke-miterlimit="10" stroke-width="0.5"/>
    </g>
    <g id="Group_361" data-name="Group 361" transform="translate(527.354 4525.787)">
      <g id="Group_339" data-name="Group 339" transform="translate(300.146 911.316)">
        <g id="Group_330" data-name="Group 330" transform="translate(120.256 16.776)">
          <path id="Path_2249" data-name="Path 2249" d="M253.856,618.516V600.827h5.288v17.689c0,2.7,1.349,4.594,4.888,4.594,3.355,0,4.921-1.969,4.921-4.668V600.827h5.291v17.689c0,5.58-3.429,8.825-10.1,8.825C257.391,627.341,253.856,624.169,253.856,618.516Z" transform="translate(-253.856 -600.827)"/>
          <path id="Path_2250" data-name="Path 2250" d="M271.166,617.568c0-5.835,3.319-9.885,7.987-9.885a5.936,5.936,0,0,1,5.288,2.772h.108v-9.628h4.96V626.9h-4.777v-2.443h-.073a6.228,6.228,0,0,1-5.583,2.99C274.374,627.451,271.166,623.622,271.166,617.568Zm13.495.11c0-3.574-1.169-5.981-4.341-5.981-2.735,0-4.121,2.407-4.121,5.872,0,3.61,1.422,5.726,3.975,5.726C283.128,623.294,284.661,621.106,284.661,617.677Z" transform="translate(-248.294 -600.827)"/>
          <path id="Path_2251" data-name="Path 2251" d="M286.793,617.568c0-5.835,3.319-9.885,7.987-9.885a5.936,5.936,0,0,1,5.288,2.772h.108v-9.628h4.96V626.9H300.36v-2.443h-.073a6.228,6.228,0,0,1-5.583,2.99C290,627.451,286.793,623.622,286.793,617.568Zm13.495.11c0-3.574-1.169-5.981-4.341-5.981-2.735,0-4.121,2.407-4.121,5.872,0,3.61,1.422,5.726,3.973,5.726C298.755,623.294,300.288,621.106,300.288,617.677Z" transform="translate(-243.273 -600.827)"/>
          <path id="Path_2252" data-name="Path 2252" d="M302.42,615.865c0-5.545,3.755-9.849,9.225-9.849,6.019,0,9.229,4.6,9.229,11.271H307.3c.367,2.88,1.97,4.668,4.779,4.668a3.492,3.492,0,0,0,3.611-2.3h4.888c-.694,3.319-3.649,6.127-8.462,6.127C305.919,625.784,302.42,621.443,302.42,615.865Zm4.96-2.007H315.7a3.946,3.946,0,0,0-3.977-4.011C309.094,609.846,307.816,611.414,307.38,613.858Z" transform="translate(-238.252 -599.16)"/>
          <path id="Path_2253" data-name="Path 2253" d="M316.721,606.4h5.034l2.989,9.7c.547,1.789.842,2.991.842,2.991h.071s.256-1.2.8-2.991l3.063-9.7h4.96l-6.529,18.709h-4.741Z" transform="translate(-233.656 -599.035)"/>
          <path id="Path_2254" data-name="Path 2254" d="M342.443,623.149h-.074c-.947,1.422-2.3,2.516-5.507,2.516-3.831,0-6.527-2.006-6.527-5.725,0-4.121,3.355-5.434,7.513-6.017,3.1-.439,4.522-.7,4.522-2.117,0-1.349-1.056-2.224-3.137-2.224-2.335,0-3.466.838-3.61,2.625h-4.413c.145-3.283,2.588-6.164,8.06-6.164,5.618,0,7.879,2.516,7.879,6.893v9.52c0,1.422.219,2.26.655,2.59v.181h-4.777A5.048,5.048,0,0,1,342.443,623.149Zm.037-4.523v-2.808a13.868,13.868,0,0,1-3.467,1.094c-2.588.584-3.865,1.167-3.865,2.917s1.165,2.37,2.919,2.37C340.91,622.2,342.48,620.45,342.48,618.627Z" transform="translate(-229.282 -599.151)"/>
          <path id="Path_2255" data-name="Path 2255" d="M345.49,600.827h4.96V626.9h-4.96Z" transform="translate(-224.412 -600.827)"/>
          <path id="Path_2256" data-name="Path 2256" d="M351.783,600.827h4.96V626.9h-4.96Z" transform="translate(-222.39 -600.827)"/>
          <path id="Path_2257" data-name="Path 2257" d="M369.443,623.149h-.074c-.947,1.422-2.3,2.516-5.507,2.516-3.831,0-6.527-2.006-6.527-5.725,0-4.121,3.355-5.434,7.513-6.017,3.1-.439,4.522-.7,4.522-2.117,0-1.349-1.056-2.224-3.137-2.224-2.335,0-3.466.838-3.61,2.625h-4.413c.145-3.283,2.588-6.164,8.06-6.164,5.618,0,7.879,2.516,7.879,6.893v9.52c0,1.422.219,2.26.655,2.59v.181h-4.777A5.048,5.048,0,0,1,369.443,623.149Zm.037-4.523v-2.808a13.868,13.868,0,0,1-3.467,1.094c-2.588.584-3.865,1.167-3.865,2.917s1.165,2.37,2.919,2.37C367.91,622.2,369.48,620.45,369.48,618.627Z" transform="translate(-220.607 -599.151)"/>
        </g>
        <g id="Group_331" data-name="Group 331" transform="translate(119.452 53.172)">
          <path id="Path_2258" data-name="Path 2258" d="M273.2,651.461h-.073a7.8,7.8,0,0,1-7.332,4.047,11.892,11.892,0,0,1-9.153-3.793,15.491,15.491,0,0,1,.875-20.35,11.961,11.961,0,0,1,8.389-2.991c6.566,0,10.321,3.611,11.16,8.718h-5.18c-.584-2.518-2.517-4.342-5.872-4.342-4.923,0-7.368,4.085-7.368,9.265,0,5.325,2.808,9.228,7.3,9.228,4.048,0,6.71-3.027,6.71-5.909v-.145h-6.274V641.1h10.978v13.859H273.38Z" transform="translate(-253.248 -628.373)"/>
          <path id="Path_2259" data-name="Path 2259" d="M274.755,655.27h1.752c1.97,0,2.772-1.021,2.772-2.554,0-1.021-.366-2.225-1.422-5.069l-5.036-13.312h5.217l2.771,8.424c.584,1.714,1.205,4.086,1.205,4.086h.073s.511-2.372,1.094-4.086l2.628-8.424h5l-6.53,19.182c-1.422,4.159-2.808,5.655-6.6,5.655h-2.919Z" transform="translate(-246.959 -626.457)"/>
          <path id="Path_2260" data-name="Path 2260" d="M287.7,634.46h4.777v2.516h.111a6.105,6.105,0,0,1,5.433-3.027,5.582,5.582,0,0,1,5.18,3.282h.074a6.523,6.523,0,0,1,5.616-3.282c3.939,0,6.163,2.554,6.163,6.638V653.17H310.1V641.426c0-2.115-1.056-3.209-2.88-3.209-2.08,0-3.355,1.6-3.355,4.084V653.17H298.9V641.426c0-2.115-1.058-3.209-2.883-3.209-2,0-3.355,1.6-3.355,4.084V653.17H287.7Z" transform="translate(-242.177 -626.582)"/>
          <path id="Path_2261" data-name="Path 2261" d="M315.581,637.012h.108a6.083,6.083,0,0,1,5.544-3.063c3.866,0,6.457,2.917,6.457,7V653.17h-4.96V641.681a3.115,3.115,0,0,0-3.246-3.429c-2.189,0-3.795,1.751-3.795,4.3V653.17h-4.959V634.46h4.851Z" transform="translate(-234.778 -626.582)"/>
          <path id="Path_2262" data-name="Path 2262" d="M337.306,651.083h-.074c-.947,1.422-2.3,2.516-5.507,2.516-3.831,0-6.527-2.006-6.527-5.727,0-4.121,3.355-5.433,7.513-6.017,3.1-.437,4.522-.692,4.522-2.115,0-1.349-1.056-2.225-3.136-2.225-2.336,0-3.466.839-3.611,2.625h-4.413c.145-3.282,2.588-6.164,8.06-6.164,5.618,0,7.879,2.518,7.879,6.894v9.519c0,1.422.219,2.261.655,2.59v.182H337.89A5.048,5.048,0,0,1,337.306,651.083Zm.037-4.523v-2.809a13.8,13.8,0,0,1-3.466,1.094c-2.588.584-3.866,1.168-3.866,2.919s1.167,2.37,2.919,2.37C335.773,650.134,337.343,648.383,337.343,646.56Z" transform="translate(-230.13 -626.573)"/>
          <path id="Path_2263" data-name="Path 2263" d="M339.416,647.116h4.594c.33,2.151,1.86,3.1,4.084,3.1,2.189,0,3.43-.839,3.43-2.152,0-1.788-2.372-1.97-4.923-2.48-3.355-.657-6.638-1.57-6.638-5.655,0-4.047,3.355-5.98,7.621-5.98,4.923,0,7.66,2.444,8.026,6.2h-4.487c-.221-2-1.494-2.735-3.611-2.735-1.933,0-3.211.731-3.211,2.08,0,1.6,2.48,1.75,5.144,2.3,3.138.657,6.6,1.531,6.6,5.907,0,3.757-3.211,6.019-7.879,6.019C342.735,653.717,339.708,651.091,339.416,647.116Z" transform="translate(-225.561 -626.582)"/>
          <path id="Path_2264" data-name="Path 2264" d="M353.69,628.76h4.959v4.45H353.69Zm0,7.367h4.959v18.709H353.69Z" transform="translate(-220.974 -628.249)"/>
          <path id="Path_2265" data-name="Path 2265" d="M359.186,643.8c0-5.544,3.754-9.848,9.225-9.848,6.019,0,9.228,4.6,9.228,11.269H364.071c.366,2.882,1.969,4.669,4.779,4.669a3.494,3.494,0,0,0,3.611-2.3h4.888c-.695,3.319-3.649,6.128-8.463,6.128C362.685,653.717,359.186,649.378,359.186,643.8Zm4.96-2.006h8.315a3.947,3.947,0,0,0-3.977-4.011C365.859,637.78,364.582,639.347,364.146,641.791Z" transform="translate(-219.208 -626.582)"/>
          <path id="Path_2266" data-name="Path 2266" d="M374.01,647.116H378.6c.33,2.151,1.862,3.1,4.086,3.1,2.188,0,3.43-.839,3.43-2.152,0-1.788-2.372-1.97-4.924-2.48-3.355-.657-6.637-1.57-6.637-5.655,0-4.047,3.355-5.98,7.621-5.98,4.923,0,7.658,2.444,8.026,6.2h-4.489c-.219-2-1.494-2.735-3.61-2.735-1.933,0-3.211.731-3.211,2.08,0,1.6,2.48,1.75,5.144,2.3,3.138.657,6.6,1.531,6.6,5.907,0,3.757-3.211,6.019-7.879,6.019C377.329,653.717,374.3,651.091,374.01,647.116Z" transform="translate(-214.445 -626.582)"/>
          <path id="Path_2267" data-name="Path 2267" d="M395.36,646.3l-2.152,2.225v6.309h-4.925V628.76h4.925V643.2l6.637-7.074h5.946l-6.895,7.111,7.734,11.6h-6.019Z" transform="translate(-209.859 -628.249)"/>
          <path id="Path_2268" data-name="Path 2268" d="M401.731,643.834a9.775,9.775,0,1,1,9.773,9.883A9.511,9.511,0,0,1,401.731,643.834Zm14.513,0c0-3.648-1.714-6.128-4.741-6.128-3.063,0-4.741,2.48-4.741,6.128s1.678,6.09,4.741,6.09C414.531,649.923,416.244,647.48,416.244,643.834Z" transform="translate(-205.538 -626.582)"/>
          <path id="Path_2269" data-name="Path 2269" d="M418.322,628.76h4.96v26.077h-4.96Z" transform="translate(-200.207 -628.249)"/>
          <path id="Path_2270" data-name="Path 2270" d="M435.982,651.083h-.074c-.947,1.422-2.3,2.516-5.507,2.516-3.83,0-6.527-2.006-6.527-5.727,0-4.121,3.355-5.433,7.513-6.017,3.1-.437,4.522-.692,4.522-2.115,0-1.349-1.056-2.225-3.135-2.225-2.336,0-3.467.839-3.611,2.625h-4.413c.145-3.282,2.589-6.164,8.06-6.164,5.618,0,7.879,2.518,7.879,6.894v9.519c0,1.422.219,2.261.655,2.59v.182h-4.777A5.049,5.049,0,0,1,435.982,651.083Zm.037-4.523v-2.809a13.814,13.814,0,0,1-3.466,1.094c-2.588.584-3.866,1.168-3.866,2.919s1.167,2.37,2.919,2.37C434.449,650.134,436.019,648.383,436.019,646.56Z" transform="translate(-198.423 -626.573)"/>
        </g>
        <g id="Group_332" data-name="Group 332" transform="translate(53.442 57.608)">
          <path id="Path_2271" data-name="Path 2271" d="M205.922,658.892V634.024c-.449-.374-.877-.753-1.316-1.135s-.895-.766-1.316-1.159v28.1c.457-.155.877-.31,1.316-.468S205.5,659.049,205.922,658.892Z" transform="translate(-203.29 -631.73)"/>
        </g>
        <g id="Group_333" data-name="Group 333" transform="translate(58.266 61.693)">
          <path id="Path_2272" data-name="Path 2272" d="M208.257,656.416c.461-.222.895-.452,1.316-.684V637c-.428-.365-.863-.732-1.316-1.1-.432-.355-.867-.708-1.316-1.072v22.191l.14-.055C207.488,656.779,207.879,656.6,208.257,656.416Z" transform="translate(-206.941 -634.822)"/>
        </g>
        <g id="Group_334" data-name="Group 334" transform="translate(63.093 65.842)">
          <path id="Path_2273" data-name="Path 2273" d="M212.6,651.389a9.73,9.73,0,0,0,.624-.887v-9.4a14.724,14.724,0,0,0-1.138-1.554l-.178-.194c-.4-.464-.842-.93-1.316-1.393v15.355a12.025,12.025,0,0,0,1.316-1.156A9.944,9.944,0,0,0,212.6,651.389Z" transform="translate(-210.594 -637.962)"/>
        </g>
        <g id="Group_335" data-name="Group 335" transform="translate(72.717 40.948)">
          <path id="Path_2274" data-name="Path 2274" d="M217.878,619.125v0l.019.008-.019-.014Z" transform="translate(-217.878 -619.121)"/>
        </g>
        <g id="Group_336" data-name="Group 336" transform="translate(48.615 50.133)">
          <path id="Path_2275" data-name="Path 2275" d="M200.566,628.916a7.409,7.409,0,0,1-.929-2.843V663.2c.443-.14.887-.277,1.316-.415.448-.14.883-.283,1.316-.422V631.3a15.511,15.511,0,0,1-1.316-1.773C200.824,629.325,200.682,629.124,200.566,628.916Z" transform="translate(-199.637 -626.073)"/>
        </g>
        <g id="Group_337" data-name="Group 337" transform="translate(48.615 48.974)">
          <path id="Path_2276" data-name="Path 2276" d="M199.637,625.2v.058l.006-.058Z" transform="translate(-199.637 -625.195)"/>
        </g>
        <g id="Group_338" data-name="Group 338" transform="translate(0 0)">
          <path id="Path_2277" data-name="Path 2277" d="M213.513,588.13A50.666,50.666,0,1,0,264.18,638.8,50.667,50.667,0,0,0,213.513,588.13Zm-35.627,25.425,2.976,11.3h-5.949Zm2.363-1.365,12.774,12.667h-9.441Zm-4.962.9-3.1,11.767H169.6A45.825,45.825,0,0,1,175.287,613.09ZM256.8,654.583A45.76,45.76,0,0,1,252.5,663.3c-.285.456-.571.909-.872,1.352s-.606.865-.916,1.288a23.5,23.5,0,0,0-5.448-8.534,67.5,67.5,0,0,0-10.083-8.193c-1.759-1.238-3.375-2.38-4.74-3.487a22.069,22.069,0,0,1-1.878-1.7,10.124,10.124,0,0,1-1.316-1.64l-.042-.058a5.093,5.093,0,0,1-.823-2.669,4.469,4.469,0,0,1,.247-1.449,4.287,4.287,0,0,1,.589-1.112,4.609,4.609,0,0,1,1.136-1.118,7.816,7.816,0,0,1,2.6-1.089,19.7,19.7,0,0,1,2.6-.419q-.162-1.066-.226-2.158c-1.329.123-2.854.145-4.524.182-1.973.04-4.171.082-6.264.3a18.312,18.312,0,0,0-5.551,1.312,5.763,5.763,0,0,0-2.254,1.7,3.226,3.226,0,0,0-.641,1.4v.995a5.114,5.114,0,0,0,.6,1.625A12.263,12.263,0,0,0,216.286,642l.326.365c.3.326.646.657.99.988q.626.6,1.316,1.214,1.056.932,2.192,1.867l1.316,1.07.25.2c.361.288.712.578,1.066.867.751.609,1.486,1.22,2.195,1.835.453.392.888.793,1.316,1.194q.688.644,1.316,1.316c.295.313.6.622.877.946a11.876,11.876,0,0,1,3.139,7.763,11.353,11.353,0,0,1-.164,1.92,11.736,11.736,0,0,1-2.422,5.5,13.5,13.5,0,0,1-1.431,1.494,16.382,16.382,0,0,1-1.316,1.072q-.63.462-1.316.883c-.21.13-.412.264-.629.389-.5.285-1.027.556-1.566.82-.427.209-.867.412-1.316.612-.427.186-.869.37-1.316.551-.711.287-1.434.568-2.192.843-.428.152-.873.3-1.316.457s-.872.3-1.316.444c-1.652.546-3.385,1.09-5.215,1.664-3.652,1.14-7.765,2.426-12.239,4.182q-.937-.317-1.86-.67c-.583-.223-1.163-.456-1.734-.7a46.119,46.119,0,0,1-14.3-9.715c-.67-.67-1.311-1.368-1.94-2.078l.119,0a5.063,5.063,0,0,1,2.3.482,19.985,19.985,0,0,1,2.709,1.97,7.557,7.557,0,0,0,4.692,1.495,7.691,7.691,0,0,0,3.459-.748,20.225,20.225,0,0,0,3.092-2.2,5.271,5.271,0,0,1,1.319-.713,5.354,5.354,0,0,1,1.843-.288,5.073,5.073,0,0,1,2.306.482,19.989,19.989,0,0,1,2.71,1.97,7.573,7.573,0,0,0,4.695,1.495V670.6a5.058,5.058,0,0,1-2.306-.485,20.125,20.125,0,0,1-2.713-1.967,7.785,7.785,0,0,0-1.969-1.056,8.06,8.06,0,0,0-2.723-.44,7.688,7.688,0,0,0-3.463.749,20.4,20.4,0,0,0-3.091,2.2,5.331,5.331,0,0,1-1.317.716,5.464,5.464,0,0,1-1.842.287,5.041,5.041,0,0,1-2.3-.485,20.2,20.2,0,0,1-2.711-1.967,7.753,7.753,0,0,0-1.967-1.056,8.066,8.066,0,0,0-2.723-.44,8.17,8.17,0,0,0-2.085.255,46.038,46.038,0,0,1-4.088-6.276,26.787,26.787,0,0,0,2.723-1.991,5.223,5.223,0,0,1,1.307-.715,5.34,5.34,0,0,1,1.827-.287,4.974,4.974,0,0,1,2.285.482,19.923,19.923,0,0,1,2.694,1.969,7.846,7.846,0,0,0,1.96,1.057,7.97,7.97,0,0,0,2.714.44,7.6,7.6,0,0,0,3.446-.752,20.173,20.173,0,0,0,3.077-2.195,5.148,5.148,0,0,1,1.307-.712,5.277,5.277,0,0,1,1.829-.289,4.993,4.993,0,0,1,2.289.482,20.094,20.094,0,0,1,2.694,1.969,7.822,7.822,0,0,0,1.96,1.057,7.991,7.991,0,0,0,2.717.44v-2.632a4.989,4.989,0,0,1-2.289-.481,20.276,20.276,0,0,1-2.7-1.966,7.657,7.657,0,0,0-1.958-1.058,7.956,7.956,0,0,0-2.715-.442,7.636,7.636,0,0,0-3.446.752,20.262,20.262,0,0,0-3.077,2.195,5.2,5.2,0,0,1-1.309.716,5.462,5.462,0,0,1-1.826.285,4.976,4.976,0,0,1-2.286-.481,20.183,20.183,0,0,1-2.694-1.966,7.644,7.644,0,0,0-1.96-1.058,7.929,7.929,0,0,0-2.713-.442,7.634,7.634,0,0,0-3.445.752,20.3,20.3,0,0,0-3.077,2.2l-.507.328a45.374,45.374,0,0,1-2.965-8.366l.34.026a7.649,7.649,0,0,0,3.446-.75,20.258,20.258,0,0,0,3.075-2.2,4.866,4.866,0,0,1,3.134-1,4.959,4.959,0,0,1,2.285.482,20.012,20.012,0,0,1,2.694,1.967,7.894,7.894,0,0,0,1.96,1.057,8,8,0,0,0,2.714.441,7.64,7.64,0,0,0,3.446-.75,20.365,20.365,0,0,0,3.077-2.2,5.284,5.284,0,0,1,1.307-.715,5.349,5.349,0,0,1,1.829-.287,4.977,4.977,0,0,1,2.289.482,20.185,20.185,0,0,1,2.694,1.967,7.869,7.869,0,0,0,1.96,1.057,8.018,8.018,0,0,0,2.717.441V647.31a4.99,4.99,0,0,1-2.289-.482,20.122,20.122,0,0,1-2.7-1.97,7.813,7.813,0,0,0-1.958-1.056,8.018,8.018,0,0,0-2.715-.441,7.619,7.619,0,0,0-3.446.752,20,20,0,0,0-3.077,2.2,5.226,5.226,0,0,1-1.309.712,5.322,5.322,0,0,1-1.826.289,4.977,4.977,0,0,1-2.286-.482,20.117,20.117,0,0,1-2.694-1.969,7.762,7.762,0,0,0-1.96-1.057,7.99,7.99,0,0,0-2.713-.441,7.617,7.617,0,0,0-3.445.752,20.212,20.212,0,0,0-3.077,2.2,5.232,5.232,0,0,1-1.307.712,5.327,5.327,0,0,1-1.826.289,6.821,6.821,0,0,1-.914-.071,46.294,46.294,0,0,1-.785-8.443c0-.209.013-.411.016-.621a8.734,8.734,0,0,0,1.472.123,7.605,7.605,0,0,0,3.437-.753,20.21,20.21,0,0,0,3.063-2.2,4.833,4.833,0,0,1,3.114-1,4.924,4.924,0,0,1,2.271.481,20.44,20.44,0,0,1,2.682,1.968,7.625,7.625,0,0,0,1.952,1.057,7.893,7.893,0,0,0,2.706.444,7.6,7.6,0,0,0,3.437-.753,20.294,20.294,0,0,0,3.064-2.2,5.15,5.15,0,0,1,1.3-.714,5.26,5.26,0,0,1,1.814-.287,4.926,4.926,0,0,1,2.274.482,20.038,20.038,0,0,1,2.684,1.966,7.621,7.621,0,0,0,1.954,1.057,7.888,7.888,0,0,0,2.706.444v-2.633a4.909,4.909,0,0,1-2.274-.482,19.573,19.573,0,0,1-2.682-1.965,7.692,7.692,0,0,0-1.954-1.057,7.814,7.814,0,0,0-2.707-.443,7.563,7.563,0,0,0-3.435.75,20.066,20.066,0,0,0-3.065,2.2,5.2,5.2,0,0,1-1.3.713,5.3,5.3,0,0,1-1.814.284,4.905,4.905,0,0,1-2.271-.482,19.655,19.655,0,0,1-2.682-1.965,7.637,7.637,0,0,0-1.953-1.057,7.8,7.8,0,0,0-2.7-.443,7.567,7.567,0,0,0-3.435.75,20.027,20.027,0,0,0-3.063,2.2,5.209,5.209,0,0,1-1.3.713,5.292,5.292,0,0,1-1.814.284,5.664,5.664,0,0,1-1.358-.152,45.909,45.909,0,0,1,1.274-8.023h64.673c.1-.723.238-1.435.406-2.135l.127-.5a23.614,23.614,0,0,1,.751-2.343L218.3,606.14l-18.875,18.717h-2.66L179.5,607.739q.706-.773,1.443-1.513a46.061,46.061,0,0,1,65.141,0c.826.826,1.612,1.69,2.374,2.579.3.354.6.707.9,1.072s.575.72.854,1.086a21.014,21.014,0,0,0-13.345,13.587l-.087.308q-.232.775-.406,1.576c-.074.346-.126.7-.182,1.056l-.042.271a20.827,20.827,0,0,0-.233,2.636l-.026.5c0,.309.034.608.046.913a21.208,21.208,0,0,0,.247,2.455c.071.438.145.872.243,1.3s.207.871.333,1.3a21.041,21.041,0,0,0,20.187,15.089c.244,0,.482-.029.725-.04-.135.452-.275.895-.423,1.339S256.955,654.145,256.8,654.583Zm-35.525-29.725h-5.949l2.974-11.3Zm-.612-12.667,12.773,12.667h-9.441Zm-8.06,12.667h-9.438l12.773-12.667Z" transform="translate(-162.844 -588.13)"/>
        </g>
      </g>
    </g>
    <g id="Group_403" data-name="Group 403" transform="translate(777 5781.978)">
      <rect id="Rectangle_5553" data-name="Rectangle 5553" width="463.682" height="233" transform="translate(0)" fill="none" stroke="#5ac2bd" stroke-width="0.5"/>
    </g>
    <rect id="Rectangle_5554" data-name="Rectangle 5554" width="404.429" height="174.75" transform="translate(806.68 5811.103)" fill="none" stroke="#2cb2ac" stroke-miterlimit="10" stroke-width="0.5"/>
    <g id="Group_372" data-name="Group 372" transform="translate(806.455 5811.433)">
      <g id="Group_363" data-name="Group 363" transform="translate(50.992 7.108)">
        <path id="Path_2333" data-name="Path 2333" d="M150.212,579.294v-7.505h2.245v7.505c0,1.145.572,1.949,2.074,1.949a1.861,1.861,0,0,0,2.089-1.981v-7.473h2.243v7.505c0,2.367-1.454,3.743-4.286,3.743C151.714,583.038,150.212,581.693,150.212,579.294Z" transform="translate(-150.212 -571.789)" fill="#1a1818"/>
        <path id="Path_2334" data-name="Path 2334" d="M159.667,578.891c0-2.476,1.407-4.194,3.388-4.194a2.519,2.519,0,0,1,2.245,1.176h.045v-4.084h2.105v11.064h-2.026v-1.037h-.031a2.644,2.644,0,0,1-2.369,1.269C161.029,583.085,159.667,581.46,159.667,578.891Zm5.726.047c0-1.517-.5-2.538-1.841-2.538-1.162,0-1.75,1.021-1.75,2.491,0,1.533.6,2.429,1.687,2.429C164.743,581.32,165.393,580.392,165.393,578.938Z" transform="translate(-149.968 -571.789)" fill="#1a1818"/>
        <path id="Path_2335" data-name="Path 2335" d="M168.2,578.891c0-2.476,1.409-4.194,3.389-4.194a2.517,2.517,0,0,1,2.244,1.176h.046v-4.084h2.105v11.064h-2.027v-1.037h-.03a2.644,2.644,0,0,1-2.369,1.269C169.563,583.085,168.2,581.46,168.2,578.891Zm5.727.047c0-1.517-.5-2.538-1.841-2.538-1.162,0-1.75,1.021-1.75,2.491,0,1.533.6,2.429,1.687,2.429C173.276,581.32,173.927,580.392,173.927,578.938Z" transform="translate(-149.747 -571.789)" fill="#1a1818"/>
        <path id="Path_2336" data-name="Path 2336" d="M176.736,578.8a3.928,3.928,0,0,1,3.916-4.178c2.553,0,3.914,1.949,3.914,4.782H178.81a1.974,1.974,0,0,0,2.027,1.981,1.481,1.481,0,0,0,1.532-.976h2.074a3.408,3.408,0,0,1-3.59,2.6A3.93,3.93,0,0,1,176.736,578.8Zm2.105-.85h3.528a1.674,1.674,0,0,0-1.687-1.7A1.767,1.767,0,0,0,178.841,577.952Z" transform="translate(-149.526 -571.716)" fill="#1a1818"/>
        <path id="Path_2337" data-name="Path 2337" d="M184.546,574.836h2.136l1.269,4.116c.233.758.357,1.269.357,1.269h.031s.109-.511.34-1.269l1.3-4.116h2.1l-2.769,7.938H187.3Z" transform="translate(-149.324 -571.71)" fill="#1a1818"/>
        <path id="Path_2338" data-name="Path 2338" d="M197.133,581.9h-.03a2.435,2.435,0,0,1-2.336,1.067c-1.626,0-2.771-.851-2.771-2.429,0-1.748,1.424-2.305,3.188-2.553,1.315-.185,1.918-.293,1.918-.9,0-.572-.448-.945-1.331-.945-.99,0-1.471.356-1.532,1.115h-1.872c.061-1.393,1.1-2.616,3.419-2.616,2.383,0,3.341,1.068,3.341,2.925v4.04c0,.6.093.959.279,1.1v.078h-2.027A2.181,2.181,0,0,1,197.133,581.9Zm.015-1.919v-1.191a5.877,5.877,0,0,1-1.469.464c-1.1.248-1.639.5-1.639,1.239s.494,1.005,1.237,1.005A1.657,1.657,0,0,0,197.148,579.978Z" transform="translate(-149.131 -571.715)" fill="#1a1818"/>
        <path id="Path_2339" data-name="Path 2339" d="M200.273,571.789h2.105v11.064h-2.105Z" transform="translate(-148.917 -571.789)" fill="#1a1818"/>
        <path id="Path_2340" data-name="Path 2340" d="M203.71,571.789h2.105v11.064H203.71Z" transform="translate(-148.829 -571.789)" fill="#1a1818"/>
        <path id="Path_2341" data-name="Path 2341" d="M211.88,581.9h-.031a2.435,2.435,0,0,1-2.336,1.067c-1.626,0-2.771-.851-2.771-2.429,0-1.748,1.424-2.305,3.189-2.553,1.314-.185,1.917-.293,1.917-.9,0-.572-.448-.945-1.33-.945-.991,0-1.472.356-1.533,1.115h-1.872c.062-1.393,1.1-2.616,3.419-2.616,2.384,0,3.341,1.068,3.341,2.925v4.04c0,.6.094.959.279,1.1v.078h-2.026A2.165,2.165,0,0,1,211.88,581.9Zm.015-1.919v-1.191a5.9,5.9,0,0,1-1.47.464c-1.1.248-1.638.5-1.638,1.239s.493,1.005,1.236,1.005A1.658,1.658,0,0,0,211.895,579.978Z" transform="translate(-148.75 -571.715)" fill="#1a1818"/>
      </g>
      <g id="Group_364" data-name="Group 364" transform="translate(50.653 22.54)">
        <path id="Path_2342" data-name="Path 2342" d="M158.346,596.628h-.031a3.309,3.309,0,0,1-3.11,1.717,5.051,5.051,0,0,1-3.886-1.609,6.574,6.574,0,0,1,.372-8.635,5.073,5.073,0,0,1,3.559-1.269c2.786,0,4.379,1.533,4.734,3.7h-2.2a2.338,2.338,0,0,0-2.492-1.841c-2.09,0-3.126,1.733-3.126,3.93,0,2.259,1.193,3.916,3.1,3.916a2.708,2.708,0,0,0,2.848-2.507v-.062h-2.662v-1.734h4.657v5.88h-1.687Z" transform="translate(-149.881 -586.832)" fill="#1a1818"/>
        <path id="Path_2343" data-name="Path 2343" d="M161.391,598.973h.743c.836,0,1.178-.433,1.178-1.083a6.917,6.917,0,0,0-.605-2.15l-2.136-5.648h2.214l1.176,3.574c.248.727.512,1.734.512,1.734h.03s.219-1.006.464-1.734l1.115-3.574H168.2l-2.769,8.139c-.6,1.764-1.192,2.4-2.8,2.4h-1.239Z" transform="translate(-149.605 -586.748)" fill="#1a1818"/>
        <path id="Path_2344" data-name="Path 2344" d="M168.7,590.1h2.026v1.068h.046a2.593,2.593,0,0,1,2.307-1.284,2.365,2.365,0,0,1,2.2,1.392h.033a2.763,2.763,0,0,1,2.381-1.392A2.5,2.5,0,0,1,180.3,592.7v5.34H178.2v-4.983c0-.9-.448-1.362-1.223-1.362-.881,0-1.424.681-1.424,1.734v4.611h-2.1v-4.983c0-.9-.448-1.362-1.222-1.362-.85,0-1.423.681-1.423,1.734v4.611H168.7Z" transform="translate(-149.394 -586.753)" fill="#1a1818"/>
        <path id="Path_2345" data-name="Path 2345" d="M183.332,591.18h.047a2.579,2.579,0,0,1,2.351-1.3,2.731,2.731,0,0,1,2.74,2.971v5.184h-2.1V593.16a1.322,1.322,0,0,0-1.379-1.455,1.66,1.66,0,0,0-1.609,1.826v4.5h-2.1V590.1h2.057Z" transform="translate(-149.069 -586.753)" fill="#1a1818"/>
        <path id="Path_2346" data-name="Path 2346" d="M194.314,597.153h-.031a2.435,2.435,0,0,1-2.336,1.067c-1.626,0-2.771-.851-2.771-2.429,0-1.748,1.424-2.305,3.189-2.553,1.314-.186,1.917-.294,1.917-.9,0-.572-.448-.945-1.331-.945-.99,0-1.471.356-1.532,1.114h-1.872c.061-1.393,1.1-2.615,3.419-2.615,2.384,0,3.343,1.068,3.343,2.924v4.04c0,.6.091.959.277,1.1v.077h-2.027A2.155,2.155,0,0,1,194.314,597.153Zm.017-1.92v-1.19a5.942,5.942,0,0,1-1.472.464c-1.1.248-1.638.495-1.638,1.238s.493,1.005,1.236,1.005C193.664,596.75,194.331,596.007,194.331,595.233Z" transform="translate(-148.865 -586.753)" fill="#1a1818"/>
        <path id="Path_2347" data-name="Path 2347" d="M196.94,595.466h1.95a1.528,1.528,0,0,0,1.733,1.315c.929,0,1.456-.356,1.456-.912,0-.758-1.005-.836-2.09-1.054-1.423-.279-2.816-.665-2.816-2.4,0-1.717,1.423-2.537,3.235-2.537,2.09,0,3.25,1.037,3.4,2.63h-1.9c-.091-.851-.634-1.16-1.531-1.16-.821,0-1.362.309-1.362.882,0,.681,1.052.742,2.181.974,1.332.279,2.8.649,2.8,2.506,0,1.594-1.361,2.553-3.341,2.553C198.349,598.266,197.064,597.153,196.94,595.466Z" transform="translate(-148.664 -586.753)" fill="#1a1818"/>
        <path id="Path_2348" data-name="Path 2348" d="M204.737,587.044h2.105v1.888h-2.105Zm0,3.126h2.105v7.938h-2.105Z" transform="translate(-148.462 -586.827)" fill="#1a1818"/>
        <path id="Path_2349" data-name="Path 2349" d="M207.737,594.058a3.928,3.928,0,0,1,3.916-4.178c2.553,0,3.914,1.949,3.914,4.781h-5.755a1.973,1.973,0,0,0,2.027,1.981,1.483,1.483,0,0,0,1.533-.975h2.074a3.41,3.41,0,0,1-3.592,2.6A3.93,3.93,0,0,1,207.737,594.058Zm2.105-.852h3.529a1.676,1.676,0,0,0-1.688-1.7A1.767,1.767,0,0,0,209.842,593.207Z" transform="translate(-148.385 -586.753)" fill="#1a1818"/>
        <path id="Path_2350" data-name="Path 2350" d="M215.834,595.466h1.95a1.528,1.528,0,0,0,1.733,1.315c.929,0,1.457-.356,1.457-.912,0-.758-1.006-.836-2.09-1.054-1.424-.279-2.817-.665-2.817-2.4,0-1.717,1.424-2.537,3.235-2.537,2.09,0,3.25,1.037,3.4,2.63H220.8c-.091-.851-.633-1.16-1.531-1.16-.821,0-1.362.309-1.362.882,0,.681,1.052.742,2.181.974,1.333.279,2.8.649,2.8,2.506,0,1.594-1.36,2.553-3.341,2.553C217.243,598.266,215.958,597.153,215.834,595.466Z" transform="translate(-148.175 -586.753)" fill="#1a1818"/>
        <path id="Path_2351" data-name="Path 2351" d="M226.631,594.488l-.912.943v2.677h-2.09V587.044h2.09v6.128l2.815-3h2.523l-2.924,3.017,3.281,4.921H228.86Z" transform="translate(-147.974 -586.827)" fill="#1a1818"/>
        <path id="Path_2352" data-name="Path 2352" d="M230.973,594.074a4.148,4.148,0,1,1,4.146,4.193A4.035,4.035,0,0,1,230.973,594.074Zm6.16,0c0-1.548-.729-2.6-2.014-2.6-1.3,0-2.012,1.052-2.012,2.6s.712,2.583,2.012,2.583C236.4,596.657,237.133,595.621,237.133,594.074Z" transform="translate(-147.784 -586.753)" fill="#1a1818"/>
        <path id="Path_2353" data-name="Path 2353" d="M240.035,587.044h2.105v11.064h-2.105Z" transform="translate(-147.55 -586.827)" fill="#1a1818"/>
        <path id="Path_2354" data-name="Path 2354" d="M248.2,597.153h-.03a2.435,2.435,0,0,1-2.336,1.067c-1.626,0-2.771-.851-2.771-2.429,0-1.748,1.424-2.305,3.188-2.553,1.315-.186,1.918-.294,1.918-.9,0-.572-.448-.945-1.331-.945-.99,0-1.471.356-1.533,1.114h-1.871c.061-1.393,1.1-2.615,3.419-2.615,2.383,0,3.343,1.068,3.343,2.924v4.04c0,.6.091.959.277,1.1v.077H248.45A2.17,2.17,0,0,1,248.2,597.153Zm.017-1.92v-1.19a5.947,5.947,0,0,1-1.471.464c-1.1.248-1.639.495-1.639,1.238s.494,1.005,1.236,1.005C247.553,596.75,248.219,596.007,248.219,595.233Z" transform="translate(-147.471 -586.753)" fill="#1a1818"/>
      </g>
      <g id="Group_365" data-name="Group 365" transform="translate(22.661 24.429)">
        <path id="Path_2355" data-name="Path 2355" d="M123.71,600.189V589.645c-.19-.158-.37-.319-.558-.481s-.379-.324-.557-.49v11.913c.194-.065.372-.131.557-.2S123.533,600.257,123.71,600.189Z" transform="translate(-122.595 -588.673)" fill="#1a1818"/>
      </g>
      <g id="Group_366" data-name="Group 366" transform="translate(24.706 26.161)">
        <path id="Path_2356" data-name="Path 2356" d="M125.147,599.517c.2-.093.38-.191.558-.289v-7.945c-.183-.155-.366-.31-.558-.467s-.368-.3-.559-.453v9.408l.061-.023C124.82,599.671,124.986,599.6,125.147,599.517Z" transform="translate(-124.588 -590.362)" fill="#1a1818"/>
      </g>
      <g id="Group_367" data-name="Group 367" transform="translate(26.753 27.92)">
        <path id="Path_2357" data-name="Path 2357" d="M127.435,597.769a3.8,3.8,0,0,0,.264-.375v-3.985a6,6,0,0,0-.482-.659l-.076-.082q-.255-.3-.557-.591v6.51a5.233,5.233,0,0,0,.557-.489A4.217,4.217,0,0,0,127.435,597.769Z" transform="translate(-126.584 -592.076)" fill="#1a1818"/>
      </g>
      <g id="Group_368" data-name="Group 368" transform="translate(30.835 17.364)">
        <path id="Path_2358" data-name="Path 2358" d="M130.562,581.788h0l.009,0-.009-.005Z" transform="translate(-130.562 -581.786)" fill="#1a1818"/>
      </g>
      <g id="Group_369" data-name="Group 369" transform="translate(20.614 21.258)">
        <path id="Path_2359" data-name="Path 2359" d="M120.994,586.789a3.165,3.165,0,0,1-.395-1.207v15.744l.559-.175c.189-.06.374-.121.558-.18V587.8a6.415,6.415,0,0,1-.558-.752Z" transform="translate(-120.599 -585.582)" fill="#1a1818"/>
      </g>
      <g id="Group_370" data-name="Group 370" transform="translate(20.614 20.767)">
        <path id="Path_2360" data-name="Path 2360" d="M120.6,585.1v.024l0-.024Z" transform="translate(-120.599 -585.104)" fill="#1a1818"/>
      </g>
      <g id="Group_371" data-name="Group 371">
        <path id="Path_2361" data-name="Path 2361" d="M121.99,564.86a21.485,21.485,0,1,0,21.485,21.485A21.485,21.485,0,0,0,121.99,564.86Zm-15.106,10.782,1.262,4.792h-2.523Zm1-.579,5.417,5.37h-4Zm-2.1.382-1.313,4.989h-1.1A19.372,19.372,0,0,1,105.781,575.445Zm34.562,17.593a19.38,19.38,0,0,1-1.82,3.7c-.121.193-.242.386-.37.573s-.256.367-.388.547a9.951,9.951,0,0,0-2.309-3.619,28.582,28.582,0,0,0-4.277-3.475c-.745-.525-1.43-1.008-2.009-1.479a8.985,8.985,0,0,1-.8-.718,4.3,4.3,0,0,1-.558-.7l-.017-.024a2.161,2.161,0,0,1-.349-1.133,1.9,1.9,0,0,1,.1-.615,1.8,1.8,0,0,1,.25-.471,1.94,1.94,0,0,1,.481-.475,3.342,3.342,0,0,1,1.1-.462,8.721,8.721,0,0,1,1.1-.178c-.046-.3-.078-.6-.1-.914-.563.052-1.208.063-1.917.078-.837.016-1.77.035-2.657.128a7.746,7.746,0,0,0-2.352.557,2.427,2.427,0,0,0-.956.718,1.362,1.362,0,0,0-.272.6v.421a2.144,2.144,0,0,0,.254.69,5.262,5.262,0,0,0,.676.916l.138.155c.128.137.274.278.419.418.177.171.364.343.558.515q.448.4.929.792l.559.454.106.084c.153.123.3.246.452.368.318.259.63.517.93.778.192.168.375.336.557.508s.38.367.558.558c.125.131.256.264.372.4a5.035,5.035,0,0,1,1.332,3.293,4.856,4.856,0,0,1-.069.813,4.994,4.994,0,0,1-1.028,2.33,5.527,5.527,0,0,1-.607.634,6.6,6.6,0,0,1-.558.455c-.177.131-.363.255-.557.374l-.267.165q-.32.18-.664.348c-.181.088-.368.175-.558.258s-.369.157-.559.235c-.3.121-.607.24-.929.357-.182.065-.369.129-.558.193s-.368.126-.557.189c-.7.232-1.435.463-2.212.706-1.548.483-3.293,1.029-5.19,1.774-.265-.089-.528-.185-.788-.284s-.493-.194-.736-.3a19.556,19.556,0,0,1-6.062-4.12c-.284-.283-.557-.58-.822-.881l.049,0a2.134,2.134,0,0,1,.977.205,8.427,8.427,0,0,1,1.149.835,3.319,3.319,0,0,0,.835.447,3.375,3.375,0,0,0,1.155.187,3.26,3.26,0,0,0,1.467-.318,8.513,8.513,0,0,0,1.31-.931,2.117,2.117,0,0,1,1.341-.425,2.142,2.142,0,0,1,.978.205,8.427,8.427,0,0,1,1.149.835,3.326,3.326,0,0,0,.836.447,3.373,3.373,0,0,0,1.154.187V599.83a2.14,2.14,0,0,1-.977-.205,8.5,8.5,0,0,1-1.151-.834,3.343,3.343,0,0,0-.834-.447,3.41,3.41,0,0,0-1.155-.187,3.25,3.25,0,0,0-1.468.318,8.663,8.663,0,0,0-1.312.93,2.231,2.231,0,0,1-.558.3,2.305,2.305,0,0,1-.78.121,2.141,2.141,0,0,1-.978-.205,8.565,8.565,0,0,1-1.149-.834,3.326,3.326,0,0,0-.834-.447,3.406,3.406,0,0,0-1.155-.187,3.457,3.457,0,0,0-.884.108,19.63,19.63,0,0,1-1.734-2.661,11.16,11.16,0,0,0,1.154-.844,2.217,2.217,0,0,1,.556-.3,2.267,2.267,0,0,1,.775-.122,2.12,2.12,0,0,1,.968.2,8.415,8.415,0,0,1,1.142.835,3.192,3.192,0,0,0,1.982.635,3.226,3.226,0,0,0,1.462-.319,8.686,8.686,0,0,0,1.3-.93,2.183,2.183,0,0,1,.554-.3,2.241,2.241,0,0,1,.775-.123,2.133,2.133,0,0,1,.97.2,8.548,8.548,0,0,1,1.143.835,3.316,3.316,0,0,0,.831.447,3.361,3.361,0,0,0,1.151.188v-1.116a2.125,2.125,0,0,1-.969-.2,8.553,8.553,0,0,1-1.144-.834,3.228,3.228,0,0,0-.831-.448,3.357,3.357,0,0,0-1.151-.189,3.266,3.266,0,0,0-1.462.319,8.61,8.61,0,0,0-1.3.931,2.18,2.18,0,0,1-.555.3,2.3,2.3,0,0,1-.775.122,2.113,2.113,0,0,1-.968-.2,8.422,8.422,0,0,1-1.143-.834,3.235,3.235,0,0,0-.832-.448,3.353,3.353,0,0,0-1.149-.189,3.263,3.263,0,0,0-1.462.319,8.558,8.558,0,0,0-1.3.931l-.215.14a19.364,19.364,0,0,1-1.258-3.547l.145.01a3.254,3.254,0,0,0,1.462-.317,8.643,8.643,0,0,0,1.3-.932,2.326,2.326,0,0,1,.556-.3,2.25,2.25,0,0,1,.775-.12,2.094,2.094,0,0,1,.968.2,8.5,8.5,0,0,1,1.142.834,3.337,3.337,0,0,0,.831.448,3.388,3.388,0,0,0,1.151.187,3.254,3.254,0,0,0,1.462-.317,8.745,8.745,0,0,0,1.3-.932,2.293,2.293,0,0,1,.554-.3,2.25,2.25,0,0,1,.775-.12,2.106,2.106,0,0,1,.97.2,8.634,8.634,0,0,1,1.143.834,3.319,3.319,0,0,0,.831.448,3.389,3.389,0,0,0,1.151.187v-1.115a2.1,2.1,0,0,1-.969-.205,8.378,8.378,0,0,1-1.144-.834,3.288,3.288,0,0,0-.831-.448,3.382,3.382,0,0,0-1.151-.188A3.253,3.253,0,0,0,114,588.6a8.466,8.466,0,0,0-1.3.932,2.076,2.076,0,0,1-1.329.425,2.087,2.087,0,0,1-.968-.205,8.321,8.321,0,0,1-1.143-.833,3.265,3.265,0,0,0-.832-.449,3.378,3.378,0,0,0-1.149-.188,3.25,3.25,0,0,0-1.462.319,8.558,8.558,0,0,0-1.3.932,2.075,2.075,0,0,1-1.328.425,2.69,2.69,0,0,1-.388-.031,19.6,19.6,0,0,1-.332-3.579l.006-.264a3.616,3.616,0,0,0,.625.052,3.22,3.22,0,0,0,1.456-.319,8.546,8.546,0,0,0,1.3-.932,2.172,2.172,0,0,1,.551-.3,2.241,2.241,0,0,1,.769-.122,2.1,2.1,0,0,1,.963.205,8.6,8.6,0,0,1,1.137.834,3.256,3.256,0,0,0,.829.448,3.358,3.358,0,0,0,1.147.188,3.22,3.22,0,0,0,1.456-.319,8.614,8.614,0,0,0,1.3-.932,2.172,2.172,0,0,1,.551-.3,2.245,2.245,0,0,1,.769-.122,2.1,2.1,0,0,1,.964.205,8.608,8.608,0,0,1,1.139.834,3.249,3.249,0,0,0,.828.448,3.358,3.358,0,0,0,1.147.188v-1.116a2.09,2.09,0,0,1-.964-.205,8.288,8.288,0,0,1-1.137-.833,3.257,3.257,0,0,0-.829-.448,3.341,3.341,0,0,0-1.148-.188,3.207,3.207,0,0,0-1.458.319,8.389,8.389,0,0,0-1.3.932,2.2,2.2,0,0,1-.553.3,2.231,2.231,0,0,1-.768.121,2.082,2.082,0,0,1-.963-.205,8.416,8.416,0,0,1-1.138-.833,3.232,3.232,0,0,0-.828-.448,3.339,3.339,0,0,0-1.147-.188,3.2,3.2,0,0,0-1.457.319,8.455,8.455,0,0,0-1.3.932,2.19,2.19,0,0,1-.551.3,2.242,2.242,0,0,1-.769.121,2.416,2.416,0,0,1-.577-.065,19.452,19.452,0,0,1,.54-3.4h27.423c.043-.306.1-.608.172-.906l.054-.21a10.06,10.06,0,0,1,.317-.992l-7-6.945-8,7.937h-1.128l-7.321-7.259q.3-.326.612-.641a19.531,19.531,0,0,1,27.62,0c.35.351.683.717,1.006,1.095.128.15.256.3.381.453s.244.306.363.462a8.9,8.9,0,0,0-5.659,5.76l-.038.13c-.066.221-.122.442-.171.669-.032.147-.054.3-.078.447l-.017.115a8.725,8.725,0,0,0-.1,1.118l-.011.213c0,.13.014.258.02.387a9.16,9.16,0,0,0,.1,1.04c.031.186.062.37.1.553s.088.369.142.551a8.918,8.918,0,0,0,8.559,6.4c.1,0,.2-.013.308-.017-.057.192-.117.38-.178.568S140.411,592.853,140.343,593.037Zm-15.064-12.6h-2.523l1.262-4.792Zm-.26-5.37,5.417,5.37h-4Zm-3.417,5.37h-4l5.416-5.37Z" transform="translate(-100.505 -564.86)" fill="#1a1818"/>
      </g>
    </g>
    <g id="Group_382" data-name="Group 382" transform="translate(1057.365 5811.433)">
      <g id="Group_373" data-name="Group 373" transform="translate(50.992 7.108)">
        <path id="Path_2362" data-name="Path 2362" d="M394.8,579.294v-7.505h2.244v7.505c0,1.145.572,1.949,2.074,1.949a1.862,1.862,0,0,0,2.09-1.981v-7.473h2.243v7.505c0,2.367-1.455,3.743-4.286,3.743C396.3,583.038,394.8,581.693,394.8,579.294Z" transform="translate(-394.798 -571.789)" fill="#1a1818"/>
        <path id="Path_2363" data-name="Path 2363" d="M404.252,578.891c0-2.476,1.409-4.194,3.389-4.194a2.52,2.52,0,0,1,2.245,1.176h.045v-4.084h2.105v11.064h-2.027v-1.037h-.03a2.644,2.644,0,0,1-2.369,1.269C405.615,583.085,404.252,581.46,404.252,578.891Zm5.727.047c0-1.517-.5-2.538-1.841-2.538-1.162,0-1.75,1.021-1.75,2.491,0,1.533.6,2.429,1.687,2.429C409.328,581.32,409.979,580.392,409.979,578.938Z" transform="translate(-394.554 -571.789)" fill="#1a1818"/>
        <path id="Path_2364" data-name="Path 2364" d="M412.786,578.891c0-2.476,1.408-4.194,3.389-4.194a2.517,2.517,0,0,1,2.244,1.176h.046v-4.084h2.105v11.064h-2.027v-1.037h-.03a2.646,2.646,0,0,1-2.369,1.269C414.148,583.085,412.786,581.46,412.786,578.891Zm5.727.047c0-1.517-.5-2.538-1.841-2.538-1.163,0-1.75,1.021-1.75,2.491,0,1.533.6,2.429,1.686,2.429C417.862,581.32,418.513,580.392,418.513,578.938Z" transform="translate(-394.333 -571.789)" fill="#1a1818"/>
        <path id="Path_2365" data-name="Path 2365" d="M421.322,578.8a3.928,3.928,0,0,1,3.916-4.178c2.553,0,3.914,1.949,3.914,4.782H423.4a1.973,1.973,0,0,0,2.026,1.981,1.483,1.483,0,0,0,1.533-.976h2.074a3.408,3.408,0,0,1-3.591,2.6A3.93,3.93,0,0,1,421.322,578.8Zm2.105-.85h3.528a1.674,1.674,0,0,0-1.687-1.7A1.766,1.766,0,0,0,423.427,577.952Z" transform="translate(-394.112 -571.716)" fill="#1a1818"/>
        <path id="Path_2366" data-name="Path 2366" d="M429.132,574.836h2.136l1.269,4.116c.233.758.357,1.269.357,1.269h.03s.11-.511.34-1.269l1.3-4.116h2.1l-2.769,7.938h-2.012Z" transform="translate(-393.91 -571.71)" fill="#1a1818"/>
        <path id="Path_2367" data-name="Path 2367" d="M441.719,581.9h-.03a2.435,2.435,0,0,1-2.336,1.067c-1.626,0-2.771-.851-2.771-2.429,0-1.748,1.423-2.305,3.188-2.553,1.315-.185,1.918-.293,1.918-.9,0-.572-.449-.945-1.331-.945-.99,0-1.471.356-1.533,1.115h-1.871c.061-1.393,1.1-2.616,3.419-2.616,2.383,0,3.341,1.068,3.341,2.925v4.04c0,.6.093.959.278,1.1v.078h-2.026A2.181,2.181,0,0,1,441.719,581.9Zm.015-1.919v-1.191a5.9,5.9,0,0,1-1.469.464c-1.1.248-1.639.5-1.639,1.239s.494,1.005,1.236,1.005C441.07,581.495,441.734,580.751,441.734,579.978Z" transform="translate(-393.717 -571.715)" fill="#1a1818"/>
        <path id="Path_2368" data-name="Path 2368" d="M444.859,571.789h2.105v11.064h-2.105Z" transform="translate(-393.504 -571.789)" fill="#1a1818"/>
        <path id="Path_2369" data-name="Path 2369" d="M448.3,571.789H450.4v11.064H448.3Z" transform="translate(-393.415 -571.789)" fill="#1a1818"/>
        <path id="Path_2370" data-name="Path 2370" d="M456.466,581.9h-.031a2.435,2.435,0,0,1-2.336,1.067c-1.626,0-2.771-.851-2.771-2.429,0-1.748,1.424-2.305,3.189-2.553,1.314-.185,1.917-.293,1.917-.9,0-.572-.448-.945-1.331-.945-.99,0-1.471.356-1.532,1.115H451.7c.06-1.393,1.1-2.616,3.419-2.616,2.384,0,3.341,1.068,3.341,2.925v4.04c0,.6.093.959.279,1.1v.078h-2.027A2.166,2.166,0,0,1,456.466,581.9Zm.014-1.919v-1.191a5.878,5.878,0,0,1-1.469.464c-1.1.248-1.639.5-1.639,1.239s.494,1.005,1.237,1.005A1.657,1.657,0,0,0,456.48,579.978Z" transform="translate(-393.336 -571.715)" fill="#1a1818"/>
      </g>
      <g id="Group_374" data-name="Group 374" transform="translate(50.653 22.54)">
        <path id="Path_2371" data-name="Path 2371" d="M402.931,596.628h-.03a3.309,3.309,0,0,1-3.11,1.717,5.049,5.049,0,0,1-3.886-1.609,6.574,6.574,0,0,1,.372-8.635,5.073,5.073,0,0,1,3.559-1.269c2.786,0,4.379,1.533,4.734,3.7h-2.2a2.338,2.338,0,0,0-2.492-1.841c-2.09,0-3.126,1.733-3.126,3.93,0,2.259,1.193,3.916,3.1,3.916a2.707,2.707,0,0,0,2.847-2.507v-.062h-2.662v-1.734h4.658v5.88h-1.687Z" transform="translate(-394.467 -586.832)" fill="#1a1818"/>
        <path id="Path_2372" data-name="Path 2372" d="M405.977,598.973h.743c.835,0,1.178-.433,1.178-1.083a6.918,6.918,0,0,0-.605-2.15l-2.136-5.648h2.214l1.176,3.574c.248.727.511,1.734.511,1.734h.031s.217-1.006.464-1.734l1.114-3.574h2.12l-2.769,8.139c-.605,1.764-1.193,2.4-2.8,2.4h-1.238Z" transform="translate(-394.191 -586.748)" fill="#1a1818"/>
        <path id="Path_2373" data-name="Path 2373" d="M413.285,590.1h2.026v1.068h.046a2.593,2.593,0,0,1,2.307-1.284,2.366,2.366,0,0,1,2.2,1.392h.032a2.764,2.764,0,0,1,2.382-1.392,2.5,2.5,0,0,1,2.616,2.815v5.34h-2.105v-4.983c0-.9-.448-1.362-1.223-1.362-.881,0-1.424.681-1.424,1.734v4.611h-2.105v-4.983c0-.9-.448-1.362-1.221-1.362-.85,0-1.423.681-1.423,1.734v4.611h-2.105Z" transform="translate(-393.98 -586.753)" fill="#1a1818"/>
        <path id="Path_2374" data-name="Path 2374" d="M427.918,591.18h.047a2.579,2.579,0,0,1,2.351-1.3,2.731,2.731,0,0,1,2.74,2.971v5.184h-2.105V593.16a1.322,1.322,0,0,0-1.378-1.455,1.66,1.66,0,0,0-1.609,1.826v4.5h-2.1V590.1h2.057Z" transform="translate(-393.655 -586.753)" fill="#1a1818"/>
        <path id="Path_2375" data-name="Path 2375" d="M438.9,597.153h-.03a2.435,2.435,0,0,1-2.336,1.067c-1.626,0-2.771-.851-2.771-2.429,0-1.748,1.424-2.305,3.188-2.553,1.315-.186,1.918-.294,1.918-.9,0-.572-.448-.945-1.331-.945-.99,0-1.471.356-1.532,1.114h-1.872c.061-1.393,1.1-2.615,3.419-2.615,2.383,0,3.343,1.068,3.343,2.924v4.04c0,.6.091.959.277,1.1v.077h-2.027A2.17,2.17,0,0,1,438.9,597.153Zm.017-1.92v-1.19a5.933,5.933,0,0,1-1.471.464c-1.1.248-1.639.495-1.639,1.238s.494,1.005,1.237,1.005C438.25,596.75,438.916,596.007,438.916,595.233Z" transform="translate(-393.451 -586.753)" fill="#1a1818"/>
        <path id="Path_2376" data-name="Path 2376" d="M441.526,595.466h1.95a1.527,1.527,0,0,0,1.733,1.315c.929,0,1.456-.356,1.456-.912,0-.758-1.005-.836-2.09-1.054-1.423-.279-2.816-.665-2.816-2.4,0-1.717,1.423-2.537,3.235-2.537,2.089,0,3.249,1.037,3.4,2.63h-1.9c-.091-.851-.633-1.16-1.53-1.16-.821,0-1.362.309-1.362.882,0,.681,1.05.742,2.181.974,1.332.279,2.8.649,2.8,2.506,0,1.594-1.36,2.553-3.341,2.553C442.934,598.266,441.649,597.153,441.526,595.466Z" transform="translate(-393.25 -586.753)" fill="#1a1818"/>
        <path id="Path_2377" data-name="Path 2377" d="M449.323,587.044h2.105v1.888h-2.105Zm0,3.126h2.105v7.938h-2.105Z" transform="translate(-393.048 -586.827)" fill="#1a1818"/>
        <path id="Path_2378" data-name="Path 2378" d="M452.323,594.058a3.927,3.927,0,0,1,3.916-4.178c2.553,0,3.914,1.949,3.914,4.781H454.4a1.973,1.973,0,0,0,2.027,1.981,1.482,1.482,0,0,0,1.532-.975h2.074a3.408,3.408,0,0,1-3.591,2.6A3.93,3.93,0,0,1,452.323,594.058Zm2.105-.852h3.528a1.674,1.674,0,0,0-1.686-1.7A1.766,1.766,0,0,0,454.428,593.207Z" transform="translate(-392.971 -586.753)" fill="#1a1818"/>
        <path id="Path_2379" data-name="Path 2379" d="M460.42,595.466h1.95a1.528,1.528,0,0,0,1.733,1.315c.929,0,1.456-.356,1.456-.912,0-.758-1.005-.836-2.089-1.054-1.424-.279-2.817-.665-2.817-2.4,0-1.717,1.424-2.537,3.235-2.537,2.09,0,3.25,1.037,3.4,2.63h-1.9c-.091-.851-.634-1.16-1.531-1.16-.821,0-1.362.309-1.362.882,0,.681,1.052.742,2.181.974,1.333.279,2.8.649,2.8,2.506,0,1.594-1.36,2.553-3.341,2.553C461.829,598.266,460.544,597.153,460.42,595.466Z" transform="translate(-392.761 -586.753)" fill="#1a1818"/>
        <path id="Path_2380" data-name="Path 2380" d="M471.217,594.488l-.912.943v2.677h-2.09V587.044h2.09v6.128l2.815-3h2.523l-2.924,3.017L476,598.108h-2.553Z" transform="translate(-392.56 -586.827)" fill="#1a1818"/>
        <path id="Path_2381" data-name="Path 2381" d="M475.559,594.074a4.148,4.148,0,1,1,4.147,4.193A4.035,4.035,0,0,1,475.559,594.074Zm6.159,0c0-1.548-.728-2.6-2.013-2.6-1.3,0-2.012,1.052-2.012,2.6s.712,2.583,2.012,2.583C480.99,596.657,481.718,595.621,481.718,594.074Z" transform="translate(-392.37 -586.753)" fill="#1a1818"/>
        <path id="Path_2382" data-name="Path 2382" d="M484.621,587.044h2.105v11.064h-2.105Z" transform="translate(-392.136 -586.827)" fill="#1a1818"/>
        <path id="Path_2383" data-name="Path 2383" d="M492.787,597.153h-.031a2.432,2.432,0,0,1-2.335,1.067c-1.626,0-2.771-.851-2.771-2.429,0-1.748,1.423-2.305,3.188-2.553,1.315-.186,1.917-.294,1.917-.9,0-.572-.448-.945-1.329-.945-.99,0-1.471.356-1.533,1.114h-1.871c.06-1.393,1.1-2.615,3.419-2.615,2.383,0,3.343,1.068,3.343,2.924v4.04c0,.6.091.959.276,1.1v.077h-2.026A2.17,2.17,0,0,1,492.787,597.153Zm.017-1.92v-1.19a5.946,5.946,0,0,1-1.471.464c-1.1.248-1.639.495-1.639,1.238s.494,1.005,1.236,1.005C492.139,596.75,492.8,596.007,492.8,595.233Z" transform="translate(-392.057 -586.753)" fill="#1a1818"/>
      </g>
      <g id="Group_375" data-name="Group 375" transform="translate(22.661 24.429)">
        <path id="Path_2384" data-name="Path 2384" d="M368.3,600.189V589.645c-.19-.158-.371-.319-.558-.481s-.379-.324-.557-.49v11.913c.194-.065.372-.131.557-.2S368.119,600.257,368.3,600.189Z" transform="translate(-367.181 -588.673)" fill="#1a1818"/>
      </g>
      <g id="Group_376" data-name="Group 376" transform="translate(24.706 26.161)">
        <path id="Path_2385" data-name="Path 2385" d="M369.732,599.517c.2-.093.381-.191.559-.289v-7.945c-.184-.155-.366-.31-.559-.467s-.367-.3-.558-.453v9.408l.061-.023C369.406,599.671,369.571,599.6,369.732,599.517Z" transform="translate(-369.174 -590.362)" fill="#1a1818"/>
      </g>
      <g id="Group_377" data-name="Group 377" transform="translate(26.753 27.92)">
        <path id="Path_2386" data-name="Path 2386" d="M372.02,597.769a3.643,3.643,0,0,0,.265-.375v-3.985a6.273,6.273,0,0,0-.482-.659l-.076-.082c-.171-.2-.356-.395-.557-.591v6.51a5.238,5.238,0,0,0,.557-.489A4,4,0,0,0,372.02,597.769Z" transform="translate(-371.17 -592.076)" fill="#1a1818"/>
      </g>
      <g id="Group_378" data-name="Group 378" transform="translate(30.834 17.364)">
        <path id="Path_2387" data-name="Path 2387" d="M375.148,581.788h0l.009,0-.009-.005Z" transform="translate(-375.148 -581.786)" fill="#1a1818"/>
      </g>
      <g id="Group_379" data-name="Group 379" transform="translate(20.614 21.258)">
        <path id="Path_2388" data-name="Path 2388" d="M365.579,586.789a3.182,3.182,0,0,1-.394-1.207v15.744l.559-.175c.189-.06.373-.121.558-.18V587.8a6.414,6.414,0,0,1-.558-.752Z" transform="translate(-365.185 -585.582)" fill="#1a1818"/>
      </g>
      <g id="Group_380" data-name="Group 380" transform="translate(20.614 20.767)">
        <path id="Path_2389" data-name="Path 2389" d="M365.185,585.1v.024l0-.024Z" transform="translate(-365.185 -585.104)" fill="#1a1818"/>
      </g>
      <g id="Group_381" data-name="Group 381">
        <path id="Path_2390" data-name="Path 2390" d="M366.576,564.86a21.485,21.485,0,1,0,21.485,21.485A21.485,21.485,0,0,0,366.576,564.86ZM351.47,575.642l1.261,4.792h-2.523Zm1-.579,5.417,5.37h-4Zm-2.1.382-1.313,4.989h-1.1A19.407,19.407,0,0,1,350.367,575.445Zm34.562,17.593a19.378,19.378,0,0,1-1.82,3.7c-.121.193-.243.386-.37.573s-.256.367-.388.547a9.94,9.94,0,0,0-2.31-3.619,28.525,28.525,0,0,0-4.276-3.475c-.746-.525-1.43-1.008-2.009-1.479a8.99,8.99,0,0,1-.8-.718,4.3,4.3,0,0,1-.558-.7l-.017-.024a2.162,2.162,0,0,1-.35-1.133,1.87,1.87,0,0,1,.106-.615,1.8,1.8,0,0,1,.25-.471,1.942,1.942,0,0,1,.481-.475,3.333,3.333,0,0,1,1.1-.462,8.736,8.736,0,0,1,1.1-.178c-.045-.3-.077-.6-.1-.914-.564.052-1.209.063-1.917.078-.837.016-1.77.035-2.657.128a7.76,7.76,0,0,0-2.353.557,2.431,2.431,0,0,0-.955.718,1.362,1.362,0,0,0-.272.6v.421a2.143,2.143,0,0,0,.254.69,5.265,5.265,0,0,0,.676.916l.139.155c.128.137.274.278.419.418q.266.257.558.515.448.4.929.792l.558.454.106.084c.154.123.3.246.453.368.317.259.63.517.93.778.191.168.375.336.557.508s.38.367.558.558c.125.131.255.264.372.4a5.029,5.029,0,0,1,1.331,3.293,4.75,4.75,0,0,1-.068.813,5,5,0,0,1-1.028,2.33,5.61,5.61,0,0,1-.607.634,6.767,6.767,0,0,1-.558.455c-.177.131-.363.255-.557.374l-.267.165c-.213.12-.436.236-.664.348-.181.088-.368.175-.559.258s-.368.157-.558.235c-.3.121-.607.24-.929.357-.182.065-.369.129-.558.193s-.369.126-.557.189c-.7.232-1.435.463-2.212.706-1.549.483-3.293,1.029-5.19,1.774-.265-.089-.528-.185-.788-.284s-.493-.194-.737-.3a19.579,19.579,0,0,1-6.062-4.12c-.284-.283-.556-.58-.822-.881l.05,0a2.134,2.134,0,0,1,.977.205,8.426,8.426,0,0,1,1.149.835,3.319,3.319,0,0,0,.835.447,3.373,3.373,0,0,0,1.154.187,3.257,3.257,0,0,0,1.467-.318,8.528,8.528,0,0,0,1.311-.931,2.118,2.118,0,0,1,1.341-.425,2.141,2.141,0,0,1,.977.205,8.43,8.43,0,0,1,1.15.835,3.326,3.326,0,0,0,.836.447,3.369,3.369,0,0,0,1.154.187V599.83a2.148,2.148,0,0,1-.978-.205,8.5,8.5,0,0,1-1.15-.834,3.333,3.333,0,0,0-.835-.447,3.4,3.4,0,0,0-1.154-.187,3.25,3.25,0,0,0-1.468.318,8.661,8.661,0,0,0-1.312.93,2.231,2.231,0,0,1-.558.3,2.312,2.312,0,0,1-.781.121,2.14,2.14,0,0,1-.977-.205,8.566,8.566,0,0,1-1.15-.834,3.3,3.3,0,0,0-.833-.447,3.411,3.411,0,0,0-1.155-.187,3.457,3.457,0,0,0-.884.108,19.628,19.628,0,0,1-1.734-2.661,11.271,11.271,0,0,0,1.154-.844,2.228,2.228,0,0,1,.555-.3,2.273,2.273,0,0,1,.776-.122,2.12,2.12,0,0,1,.968.2,8.416,8.416,0,0,1,1.142.835,3.192,3.192,0,0,0,1.982.635,3.222,3.222,0,0,0,1.461-.319,8.581,8.581,0,0,0,1.3-.93,2.2,2.2,0,0,1,.554-.3,2.248,2.248,0,0,1,.776-.123,2.132,2.132,0,0,1,.97.2,8.548,8.548,0,0,1,1.143.835,3.327,3.327,0,0,0,.83.447,3.371,3.371,0,0,0,1.152.188v-1.116a2.121,2.121,0,0,1-.969-.2,8.488,8.488,0,0,1-1.144-.834,3.228,3.228,0,0,0-.831-.448,3.361,3.361,0,0,0-1.151-.189,3.266,3.266,0,0,0-1.462.319,8.61,8.61,0,0,0-1.3.931,2.2,2.2,0,0,1-.555.3,2.3,2.3,0,0,1-.775.122,2.118,2.118,0,0,1-.969-.2,8.481,8.481,0,0,1-1.142-.834,3.252,3.252,0,0,0-.832-.448,3.353,3.353,0,0,0-1.149-.189,3.263,3.263,0,0,0-1.462.319,8.558,8.558,0,0,0-1.3.931l-.215.14a19.289,19.289,0,0,1-1.258-3.547l.145.01a3.249,3.249,0,0,0,1.461-.317,8.605,8.605,0,0,0,1.3-.932,2.339,2.339,0,0,1,.555-.3,2.256,2.256,0,0,1,.776-.12,2.094,2.094,0,0,1,.968.2,8.5,8.5,0,0,1,1.142.834,3.338,3.338,0,0,0,.831.448,3.388,3.388,0,0,0,1.151.187,3.249,3.249,0,0,0,1.461-.317,8.639,8.639,0,0,0,1.3-.932,2.313,2.313,0,0,1,.554-.3,2.256,2.256,0,0,1,.776-.12,2.106,2.106,0,0,1,.97.2,8.633,8.633,0,0,1,1.143.834,3.33,3.33,0,0,0,.83.448,3.4,3.4,0,0,0,1.152.187v-1.115a2.094,2.094,0,0,1-.969-.205,8.316,8.316,0,0,1-1.144-.834,3.289,3.289,0,0,0-.831-.448,3.386,3.386,0,0,0-1.151-.188,3.253,3.253,0,0,0-1.462.319,8.466,8.466,0,0,0-1.3.932,2.076,2.076,0,0,1-1.329.425,2.091,2.091,0,0,1-.969-.205,8.38,8.38,0,0,1-1.142-.833,3.282,3.282,0,0,0-.832-.449,3.378,3.378,0,0,0-1.149-.188,3.25,3.25,0,0,0-1.462.319,8.558,8.558,0,0,0-1.3.932,2.075,2.075,0,0,1-1.328.425,2.665,2.665,0,0,1-.388-.031,19.6,19.6,0,0,1-.333-3.579l.007-.264a3.616,3.616,0,0,0,.625.052,3.226,3.226,0,0,0,1.456-.319,8.544,8.544,0,0,0,1.3-.932,2.172,2.172,0,0,1,.551-.3,2.236,2.236,0,0,1,.769-.122,2.1,2.1,0,0,1,.963.205,8.675,8.675,0,0,1,1.137.834,3.256,3.256,0,0,0,.829.448,3.358,3.358,0,0,0,1.147.188,3.226,3.226,0,0,0,1.456-.319,8.614,8.614,0,0,0,1.3-.932,2.155,2.155,0,0,1,.551-.3,2.245,2.245,0,0,1,.769-.122,2.1,2.1,0,0,1,.964.205,8.608,8.608,0,0,1,1.138.834,3.256,3.256,0,0,0,.829.448,3.358,3.358,0,0,0,1.147.188v-1.116a2.09,2.09,0,0,1-.964-.205,8.351,8.351,0,0,1-1.138-.833,3.267,3.267,0,0,0-.828-.448,3.345,3.345,0,0,0-1.148-.188,3.207,3.207,0,0,0-1.458.319,8.339,8.339,0,0,0-1.3.932,2.2,2.2,0,0,1-.553.3,2.236,2.236,0,0,1-.768.121,2.079,2.079,0,0,1-.963-.205,8.415,8.415,0,0,1-1.138-.833,3.25,3.25,0,0,0-.828-.448,3.339,3.339,0,0,0-1.147-.188,3.2,3.2,0,0,0-1.457.319,8.4,8.4,0,0,0-1.3.932,2.19,2.19,0,0,1-.551.3,2.246,2.246,0,0,1-.769.121,2.424,2.424,0,0,1-.578-.065,19.544,19.544,0,0,1,.541-3.4h27.423c.043-.306.1-.608.171-.906l.054-.21a9.8,9.8,0,0,1,.318-.992l-7-6.945-8,7.937h-1.128l-7.321-7.259q.3-.326.611-.641a19.532,19.532,0,0,1,27.621,0c.35.351.683.717,1.006,1.095.128.15.256.3.381.453s.244.306.362.462a8.9,8.9,0,0,0-5.658,5.76l-.038.13c-.066.221-.122.442-.171.669-.033.147-.054.3-.078.447l-.017.115a8.913,8.913,0,0,0-.1,1.118l-.01.213c0,.13.014.258.019.387a9.164,9.164,0,0,0,.1,1.04c.03.186.062.37.1.553s.088.369.142.551a8.921,8.921,0,0,0,8.56,6.4c.1,0,.2-.013.307-.017-.056.192-.116.38-.179.568S385,592.853,384.929,593.037Zm-15.064-12.6h-2.523l1.261-4.792Zm-.26-5.37,5.417,5.37h-4Zm-3.418,5.37h-4l5.415-5.37Z" transform="translate(-345.091 -564.86)" fill="#1a1818"/>
      </g>
    </g>
    <g id="Group_392" data-name="Group 392" transform="translate(806.455 5943.274)">
      <g id="Group_383" data-name="Group 383" transform="translate(50.992 7.108)">
        <path id="Path_2391" data-name="Path 2391" d="M150.212,707.811v-7.5h2.245v7.5c0,1.145.572,1.949,2.074,1.949a1.86,1.86,0,0,0,2.089-1.98v-7.473h2.243v7.5c0,2.368-1.454,3.744-4.286,3.744C151.714,711.556,150.212,710.211,150.212,707.811Z" transform="translate(-150.212 -700.307)" fill="#1a1818"/>
        <path id="Path_2392" data-name="Path 2392" d="M159.667,707.409c0-2.476,1.407-4.194,3.388-4.194a2.519,2.519,0,0,1,2.245,1.176h.045v-4.084h2.105v11.064h-2.026v-1.037h-.031a2.644,2.644,0,0,1-2.369,1.269C161.029,711.6,159.667,709.978,159.667,707.409Zm5.726.047c0-1.517-.5-2.538-1.841-2.538-1.162,0-1.75,1.021-1.75,2.491,0,1.533.6,2.429,1.687,2.429C164.743,709.838,165.393,708.91,165.393,707.456Z" transform="translate(-149.968 -700.307)" fill="#1a1818"/>
        <path id="Path_2393" data-name="Path 2393" d="M168.2,707.409c0-2.476,1.409-4.194,3.389-4.194a2.517,2.517,0,0,1,2.244,1.176h.046v-4.084h2.105v11.064h-2.027v-1.037h-.03a2.644,2.644,0,0,1-2.369,1.269C169.563,711.6,168.2,709.978,168.2,707.409Zm5.727.047c0-1.517-.5-2.538-1.841-2.538-1.162,0-1.75,1.021-1.75,2.491,0,1.533.6,2.429,1.687,2.429C173.276,709.838,173.927,708.91,173.927,707.456Z" transform="translate(-149.747 -700.307)" fill="#1a1818"/>
        <path id="Path_2394" data-name="Path 2394" d="M176.736,707.32a3.927,3.927,0,0,1,3.916-4.178c2.553,0,3.914,1.949,3.914,4.781H178.81a1.974,1.974,0,0,0,2.027,1.981,1.481,1.481,0,0,0,1.532-.976h2.074a3.408,3.408,0,0,1-3.59,2.6A3.931,3.931,0,0,1,176.736,707.32Zm2.105-.852h3.528a1.674,1.674,0,0,0-1.687-1.7A1.766,1.766,0,0,0,178.841,706.469Z" transform="translate(-149.526 -700.234)" fill="#1a1818"/>
        <path id="Path_2395" data-name="Path 2395" d="M184.546,703.353h2.136l1.269,4.117c.233.758.357,1.269.357,1.269h.031s.109-.511.34-1.269l1.3-4.117h2.1l-2.769,7.939H187.3Z" transform="translate(-149.324 -700.228)" fill="#1a1818"/>
        <path id="Path_2396" data-name="Path 2396" d="M197.133,710.415h-.03a2.435,2.435,0,0,1-2.336,1.067c-1.626,0-2.771-.851-2.771-2.429,0-1.748,1.424-2.305,3.188-2.553,1.315-.185,1.918-.293,1.918-.9,0-.572-.448-.945-1.331-.945-.99,0-1.471.356-1.532,1.114h-1.872c.061-1.392,1.1-2.615,3.419-2.615,2.383,0,3.341,1.068,3.341,2.925v4.04c0,.6.093.958.279,1.1v.078h-2.027A2.181,2.181,0,0,1,197.133,710.415Zm.015-1.919V707.3a5.882,5.882,0,0,1-1.469.464c-1.1.248-1.639.5-1.639,1.238s.494,1.006,1.237,1.006A1.657,1.657,0,0,0,197.148,708.5Z" transform="translate(-149.131 -700.233)" fill="#1a1818"/>
        <path id="Path_2397" data-name="Path 2397" d="M200.273,700.307h2.105v11.064h-2.105Z" transform="translate(-148.917 -700.307)" fill="#1a1818"/>
        <path id="Path_2398" data-name="Path 2398" d="M203.71,700.307h2.105v11.064H203.71Z" transform="translate(-148.829 -700.307)" fill="#1a1818"/>
        <path id="Path_2399" data-name="Path 2399" d="M211.88,710.415h-.031a2.435,2.435,0,0,1-2.336,1.067c-1.626,0-2.771-.851-2.771-2.429,0-1.748,1.424-2.305,3.189-2.553,1.314-.185,1.917-.293,1.917-.9,0-.572-.448-.945-1.33-.945-.991,0-1.472.356-1.533,1.114h-1.872c.062-1.392,1.1-2.615,3.419-2.615,2.384,0,3.341,1.068,3.341,2.925v4.04c0,.6.094.958.279,1.1v.078h-2.026A2.165,2.165,0,0,1,211.88,710.415Zm.015-1.919V707.3a5.9,5.9,0,0,1-1.47.464c-1.1.248-1.638.5-1.638,1.238s.493,1.006,1.236,1.006A1.658,1.658,0,0,0,211.895,708.5Z" transform="translate(-148.75 -700.233)" fill="#1a1818"/>
      </g>
      <g id="Group_384" data-name="Group 384" transform="translate(50.653 22.54)">
        <path id="Path_2400" data-name="Path 2400" d="M158.346,725.146h-.031a3.309,3.309,0,0,1-3.11,1.717,5.051,5.051,0,0,1-3.886-1.61,6.574,6.574,0,0,1,.372-8.635,5.073,5.073,0,0,1,3.559-1.269c2.786,0,4.379,1.533,4.734,3.7h-2.2a2.338,2.338,0,0,0-2.492-1.841c-2.09,0-3.126,1.733-3.126,3.93,0,2.259,1.193,3.916,3.1,3.916a2.708,2.708,0,0,0,2.848-2.507v-.062h-2.662v-1.734h4.657v5.88h-1.687Z" transform="translate(-149.881 -715.35)" fill="#1a1818"/>
        <path id="Path_2401" data-name="Path 2401" d="M161.391,727.491h.743c.836,0,1.178-.433,1.178-1.083a6.91,6.91,0,0,0-.605-2.15l-2.136-5.648h2.214l1.176,3.574c.248.727.512,1.734.512,1.734h.03s.219-1.006.464-1.734l1.115-3.574H168.2l-2.769,8.139c-.6,1.765-1.192,2.4-2.8,2.4h-1.239Z" transform="translate(-149.605 -715.266)" fill="#1a1818"/>
        <path id="Path_2402" data-name="Path 2402" d="M168.7,718.614h2.026v1.068h.046a2.593,2.593,0,0,1,2.307-1.284,2.365,2.365,0,0,1,2.2,1.392h.033a2.763,2.763,0,0,1,2.381-1.392,2.5,2.5,0,0,1,2.616,2.815v5.34H178.2V721.57c0-.9-.448-1.362-1.223-1.362-.881,0-1.424.681-1.424,1.734v4.611h-2.1V721.57c0-.9-.448-1.362-1.222-1.362-.85,0-1.423.681-1.423,1.734v4.611H168.7Z" transform="translate(-149.394 -715.271)" fill="#1a1818"/>
        <path id="Path_2403" data-name="Path 2403" d="M183.332,719.7h.047a2.579,2.579,0,0,1,2.351-1.3,2.731,2.731,0,0,1,2.74,2.971v5.184h-2.1v-4.875a1.323,1.323,0,0,0-1.379-1.455,1.66,1.66,0,0,0-1.609,1.826v4.5h-2.1v-7.938h2.057Z" transform="translate(-149.069 -715.271)" fill="#1a1818"/>
        <path id="Path_2404" data-name="Path 2404" d="M194.314,725.671h-.031a2.437,2.437,0,0,1-2.336,1.066c-1.626,0-2.771-.85-2.771-2.428,0-1.748,1.424-2.305,3.189-2.553,1.314-.186,1.917-.294,1.917-.9,0-.574-.448-.945-1.331-.945-.99,0-1.471.356-1.532,1.114h-1.872c.061-1.393,1.1-2.615,3.419-2.615,2.384,0,3.343,1.067,3.343,2.924v4.04c0,.6.091.959.277,1.1v.077h-2.027A2.162,2.162,0,0,1,194.314,725.671Zm.017-1.92v-1.19a5.945,5.945,0,0,1-1.472.464c-1.1.248-1.638.495-1.638,1.238s.493,1.005,1.236,1.005C193.664,725.268,194.331,724.525,194.331,723.751Z" transform="translate(-148.865 -715.271)" fill="#1a1818"/>
        <path id="Path_2405" data-name="Path 2405" d="M196.94,723.984h1.95a1.528,1.528,0,0,0,1.733,1.315c.929,0,1.456-.356,1.456-.912,0-.759-1.005-.836-2.09-1.054-1.423-.279-2.816-.665-2.816-2.4,0-1.717,1.423-2.537,3.235-2.537,2.09,0,3.25,1.037,3.4,2.63h-1.9c-.091-.851-.634-1.16-1.531-1.16-.821,0-1.362.309-1.362.881,0,.682,1.052.743,2.181.976,1.332.279,2.8.649,2.8,2.506,0,1.594-1.361,2.553-3.341,2.553C198.349,726.784,197.064,725.671,196.94,723.984Z" transform="translate(-148.664 -715.271)" fill="#1a1818"/>
        <path id="Path_2406" data-name="Path 2406" d="M204.737,715.562h2.105v1.888h-2.105Zm0,3.126h2.105v7.938h-2.105Z" transform="translate(-148.462 -715.345)" fill="#1a1818"/>
        <path id="Path_2407" data-name="Path 2407" d="M207.737,722.576a3.928,3.928,0,0,1,3.916-4.178c2.553,0,3.914,1.949,3.914,4.78h-5.755a1.973,1.973,0,0,0,2.027,1.981,1.483,1.483,0,0,0,1.533-.975h2.074a3.41,3.41,0,0,1-3.592,2.6A3.93,3.93,0,0,1,207.737,722.576Zm2.105-.852h3.529a1.676,1.676,0,0,0-1.688-1.7A1.767,1.767,0,0,0,209.842,721.725Z" transform="translate(-148.385 -715.271)" fill="#1a1818"/>
        <path id="Path_2408" data-name="Path 2408" d="M215.834,723.984h1.95a1.528,1.528,0,0,0,1.733,1.315c.929,0,1.457-.356,1.457-.912,0-.759-1.006-.836-2.09-1.054-1.424-.279-2.817-.665-2.817-2.4,0-1.717,1.424-2.537,3.235-2.537,2.09,0,3.25,1.037,3.4,2.63H220.8c-.091-.851-.633-1.16-1.531-1.16-.821,0-1.362.309-1.362.881,0,.682,1.052.743,2.181.976,1.333.279,2.8.649,2.8,2.506,0,1.594-1.36,2.553-3.341,2.553C217.243,726.784,215.958,725.671,215.834,723.984Z" transform="translate(-148.175 -715.271)" fill="#1a1818"/>
        <path id="Path_2409" data-name="Path 2409" d="M226.631,723.006l-.912.943v2.677h-2.09V715.562h2.09v6.127l2.815-3h2.523l-2.924,3.017,3.281,4.921H228.86Z" transform="translate(-147.974 -715.345)" fill="#1a1818"/>
        <path id="Path_2410" data-name="Path 2410" d="M230.973,722.591a4.148,4.148,0,1,1,4.146,4.194A4.035,4.035,0,0,1,230.973,722.591Zm6.16,0c0-1.547-.729-2.6-2.014-2.6-1.3,0-2.012,1.053-2.012,2.6s.712,2.584,2.012,2.584C236.4,725.175,237.133,724.139,237.133,722.591Z" transform="translate(-147.784 -715.271)" fill="#1a1818"/>
        <path id="Path_2411" data-name="Path 2411" d="M240.035,715.562h2.105v11.064h-2.105Z" transform="translate(-147.55 -715.345)" fill="#1a1818"/>
        <path id="Path_2412" data-name="Path 2412" d="M248.2,725.671h-.03a2.437,2.437,0,0,1-2.336,1.066c-1.626,0-2.771-.85-2.771-2.428,0-1.748,1.424-2.305,3.188-2.553,1.315-.186,1.918-.294,1.918-.9,0-.574-.448-.945-1.331-.945-.99,0-1.471.356-1.533,1.114h-1.871c.061-1.393,1.1-2.615,3.419-2.615,2.383,0,3.343,1.067,3.343,2.924v4.04c0,.6.091.959.277,1.1v.077H248.45A2.177,2.177,0,0,1,248.2,725.671Zm.017-1.92v-1.19a5.95,5.95,0,0,1-1.471.464c-1.1.248-1.639.495-1.639,1.238s.494,1.005,1.236,1.005C247.553,725.268,248.219,724.525,248.219,723.751Z" transform="translate(-147.471 -715.271)" fill="#1a1818"/>
      </g>
      <g id="Group_385" data-name="Group 385" transform="translate(22.661 24.429)">
        <path id="Path_2413" data-name="Path 2413" d="M123.71,728.707V718.163c-.19-.158-.37-.319-.558-.481s-.379-.324-.557-.49V729.1c.194-.066.372-.131.557-.2S123.533,728.775,123.71,728.707Z" transform="translate(-122.595 -717.191)" fill="#1a1818"/>
      </g>
      <g id="Group_386" data-name="Group 386" transform="translate(24.706 26.161)">
        <path id="Path_2414" data-name="Path 2414" d="M125.147,728.035c.2-.094.38-.191.558-.29V719.8c-.183-.155-.366-.31-.558-.467s-.368-.3-.559-.453v9.408l.061-.023C124.82,728.189,124.986,728.114,125.147,728.035Z" transform="translate(-124.588 -718.88)" fill="#1a1818"/>
      </g>
      <g id="Group_387" data-name="Group 387" transform="translate(26.753 27.92)">
        <path id="Path_2415" data-name="Path 2415" d="M127.435,726.286a3.8,3.8,0,0,0,.264-.375v-3.985a6,6,0,0,0-.482-.659l-.076-.082q-.255-.3-.557-.591v6.51a5.227,5.227,0,0,0,.557-.489A4.207,4.207,0,0,0,127.435,726.286Z" transform="translate(-126.584 -720.594)" fill="#1a1818"/>
      </g>
      <g id="Group_388" data-name="Group 388" transform="translate(30.835 17.364)">
        <path id="Path_2416" data-name="Path 2416" d="M130.562,710.305h0l.009,0-.009-.005Z" transform="translate(-130.562 -710.304)" fill="#1a1818"/>
      </g>
      <g id="Group_389" data-name="Group 389" transform="translate(20.614 21.258)">
        <path id="Path_2417" data-name="Path 2417" d="M120.994,715.307a3.171,3.171,0,0,1-.395-1.207v15.744l.559-.175c.189-.06.374-.121.558-.18V716.317a6.426,6.426,0,0,1-.558-.752Z" transform="translate(-120.599 -714.1)" fill="#1a1818"/>
      </g>
      <g id="Group_390" data-name="Group 390" transform="translate(20.614 20.767)">
        <path id="Path_2418" data-name="Path 2418" d="M120.6,713.622v.024l0-.024Z" transform="translate(-120.599 -713.622)" fill="#1a1818"/>
      </g>
      <g id="Group_391" data-name="Group 391">
        <path id="Path_2419" data-name="Path 2419" d="M121.99,693.378a21.485,21.485,0,1,0,21.485,21.485A21.485,21.485,0,0,0,121.99,693.378ZM106.884,704.16l1.262,4.792h-2.523Zm1-.579,5.417,5.37h-4Zm-2.1.382-1.313,4.989h-1.1A19.371,19.371,0,0,1,105.781,703.963Zm34.562,17.592a19.409,19.409,0,0,1-1.82,3.7c-.121.193-.242.386-.37.573s-.256.367-.388.547a9.951,9.951,0,0,0-2.309-3.619,28.582,28.582,0,0,0-4.277-3.475c-.745-.525-1.43-1.008-2.009-1.479a8.967,8.967,0,0,1-.8-.718,4.293,4.293,0,0,1-.558-.7l-.017-.024a2.161,2.161,0,0,1-.349-1.134,1.894,1.894,0,0,1,.1-.613,1.8,1.8,0,0,1,.25-.471,1.941,1.941,0,0,1,.481-.475,3.342,3.342,0,0,1,1.1-.462,8.71,8.71,0,0,1,1.1-.179c-.046-.3-.078-.6-.1-.914-.563.052-1.208.063-1.917.078-.837.016-1.77.035-2.657.128a7.746,7.746,0,0,0-2.352.557,2.428,2.428,0,0,0-.956.718,1.364,1.364,0,0,0-.272.6v.422a2.143,2.143,0,0,0,.254.69,5.264,5.264,0,0,0,.676.916l.138.155c.128.137.274.278.419.419.177.171.364.343.558.515q.448.4.929.792l.559.453.106.085c.153.123.3.246.452.368.318.259.63.517.93.778.192.168.375.336.557.508s.38.367.558.558c.125.131.256.264.372.4a5.035,5.035,0,0,1,1.332,3.293,4.866,4.866,0,0,1-.069.814,4.994,4.994,0,0,1-1.028,2.33,5.522,5.522,0,0,1-.607.634,6.586,6.586,0,0,1-.558.454c-.177.131-.363.255-.557.375l-.267.164q-.32.182-.664.349c-.181.088-.368.175-.558.258s-.369.157-.559.235c-.3.121-.607.24-.929.356-.182.066-.369.13-.558.194s-.368.126-.557.189c-.7.232-1.435.463-2.212.706-1.548.483-3.293,1.029-5.19,1.774-.265-.089-.528-.185-.788-.284s-.493-.194-.736-.3a19.541,19.541,0,0,1-6.062-4.121c-.284-.282-.557-.579-.822-.88l.049,0a2.133,2.133,0,0,1,.977.205,8.437,8.437,0,0,1,1.149.835,3.319,3.319,0,0,0,.835.447,3.376,3.376,0,0,0,1.155.187,3.261,3.261,0,0,0,1.467-.318,8.513,8.513,0,0,0,1.31-.932,2.117,2.117,0,0,1,1.341-.425,2.141,2.141,0,0,1,.978.205,8.437,8.437,0,0,1,1.149.835,3.327,3.327,0,0,0,.836.447,3.375,3.375,0,0,0,1.154.187v-1.116a2.141,2.141,0,0,1-.977-.205,8.509,8.509,0,0,1-1.151-.834,3.343,3.343,0,0,0-.834-.447,3.41,3.41,0,0,0-1.155-.187,3.265,3.265,0,0,0-1.468.317,8.742,8.742,0,0,0-1.312.932,2.194,2.194,0,0,1-.558.3,2.277,2.277,0,0,1-.78.122,2.142,2.142,0,0,1-.978-.205,8.571,8.571,0,0,1-1.149-.834,3.326,3.326,0,0,0-.834-.447,3.406,3.406,0,0,0-1.155-.187,3.459,3.459,0,0,0-.884.108,19.63,19.63,0,0,1-1.734-2.661,11.141,11.141,0,0,0,1.154-.844,2.188,2.188,0,0,1,.556-.3,2.269,2.269,0,0,1,.775-.122,2.12,2.12,0,0,1,.968.2,8.415,8.415,0,0,1,1.142.835,3.184,3.184,0,0,0,1.982.634,3.228,3.228,0,0,0,1.462-.318,8.752,8.752,0,0,0,1.3-.93,2.153,2.153,0,0,1,.554-.3,2.241,2.241,0,0,1,.775-.123,2.133,2.133,0,0,1,.97.2,8.548,8.548,0,0,1,1.143.835,3.184,3.184,0,0,0,1.982.634V723.41a2.125,2.125,0,0,1-.969-.2,8.553,8.553,0,0,1-1.144-.834,3.23,3.23,0,0,0-.831-.448,3.358,3.358,0,0,0-1.151-.189,3.252,3.252,0,0,0-1.462.319,8.6,8.6,0,0,0-1.3.932,2.186,2.186,0,0,1-.555.3,2.3,2.3,0,0,1-.775.122,2.113,2.113,0,0,1-.968-.2,8.422,8.422,0,0,1-1.143-.834,3.237,3.237,0,0,0-.832-.448,3.355,3.355,0,0,0-1.149-.189,3.249,3.249,0,0,0-1.462.319,8.545,8.545,0,0,0-1.3.932l-.215.139a19.363,19.363,0,0,1-1.258-3.547l.145.01a3.241,3.241,0,0,0,1.462-.318,8.578,8.578,0,0,0,1.3-.932,2.326,2.326,0,0,1,.556-.3,2.248,2.248,0,0,1,.775-.12,2.094,2.094,0,0,1,.968.2,8.494,8.494,0,0,1,1.142.834,3.341,3.341,0,0,0,.831.448,3.388,3.388,0,0,0,1.151.187,3.24,3.24,0,0,0,1.462-.318,8.678,8.678,0,0,0,1.3-.932,2.293,2.293,0,0,1,.554-.3,2.248,2.248,0,0,1,.775-.12,2.106,2.106,0,0,1,.97.2,8.63,8.63,0,0,1,1.143.834,3.323,3.323,0,0,0,.831.448,3.389,3.389,0,0,0,1.151.187v-1.115a2.1,2.1,0,0,1-.969-.205,8.477,8.477,0,0,1-1.144-.834,3.286,3.286,0,0,0-.831-.448,3.381,3.381,0,0,0-1.151-.188,3.254,3.254,0,0,0-1.462.319,8.466,8.466,0,0,0-1.3.932,2.076,2.076,0,0,1-1.329.425,2.087,2.087,0,0,1-.968-.205,8.411,8.411,0,0,1-1.143-.833,3.267,3.267,0,0,0-.832-.449,3.378,3.378,0,0,0-1.149-.188,3.25,3.25,0,0,0-1.462.319,8.558,8.558,0,0,0-1.3.932,2.075,2.075,0,0,1-1.328.425,2.69,2.69,0,0,1-.388-.031,19.6,19.6,0,0,1-.332-3.579l.006-.264a3.616,3.616,0,0,0,.625.052,3.219,3.219,0,0,0,1.456-.319,8.546,8.546,0,0,0,1.3-.931,2.168,2.168,0,0,1,.551-.3,2.239,2.239,0,0,1,.769-.122,2.083,2.083,0,0,1,.963.205,8.681,8.681,0,0,1,1.137.833,3.225,3.225,0,0,0,.829.449,3.357,3.357,0,0,0,1.147.188,3.219,3.219,0,0,0,1.456-.319,8.615,8.615,0,0,0,1.3-.931,2.168,2.168,0,0,1,.551-.3,2.244,2.244,0,0,1,.769-.122,2.091,2.091,0,0,1,.964.205,8.686,8.686,0,0,1,1.139.833,3.218,3.218,0,0,0,.828.449,3.357,3.357,0,0,0,1.147.188v-1.116a2.1,2.1,0,0,1-.964-.205,8.282,8.282,0,0,1-1.137-.833,3.289,3.289,0,0,0-.829-.449,3.365,3.365,0,0,0-1.148-.187,3.207,3.207,0,0,0-1.458.319,8.389,8.389,0,0,0-1.3.932,2.2,2.2,0,0,1-.553.3,2.23,2.23,0,0,1-.768.121,2.1,2.1,0,0,1-.963-.205,8.41,8.41,0,0,1-1.138-.833,3.263,3.263,0,0,0-.828-.449,3.364,3.364,0,0,0-1.147-.187,3.2,3.2,0,0,0-1.457.319,8.455,8.455,0,0,0-1.3.932,2.188,2.188,0,0,1-.551.3,2.241,2.241,0,0,1-.769.121,2.413,2.413,0,0,1-.577-.065,19.453,19.453,0,0,1,.54-3.4h27.423c.043-.306.1-.608.172-.906l.054-.21a10.055,10.055,0,0,1,.317-.992l-7-6.945-8,7.937h-1.128l-7.321-7.259q.3-.326.612-.641a19.531,19.531,0,0,1,27.62,0c.35.351.683.717,1.006,1.094.128.151.256.3.381.454s.244.306.363.462a8.9,8.9,0,0,0-5.659,5.76l-.038.13c-.066.221-.122.442-.171.669-.032.147-.054.3-.078.447l-.017.115a8.727,8.727,0,0,0-.1,1.118l-.011.213c0,.13.014.258.02.387a9.158,9.158,0,0,0,.1,1.04c.031.186.062.37.1.553s.088.369.142.551a8.917,8.917,0,0,0,8.559,6.4c.1,0,.2-.013.308-.017-.057.192-.117.38-.178.568S140.411,721.371,140.343,721.555Zm-15.064-12.6h-2.523l1.262-4.792Zm-.26-5.37,5.417,5.37h-4Zm-3.417,5.37h-4l5.416-5.37Z" transform="translate(-100.505 -693.378)" fill="#1a1818"/>
      </g>
    </g>
    <g id="Group_402" data-name="Group 402" transform="translate(1057.365 5943.274)">
      <g id="Group_393" data-name="Group 393" transform="translate(50.992 7.108)">
        <path id="Path_2420" data-name="Path 2420" d="M394.8,707.811v-7.5h2.244v7.5c0,1.145.572,1.949,2.074,1.949a1.861,1.861,0,0,0,2.09-1.98v-7.473h2.243v7.5c0,2.368-1.455,3.744-4.286,3.744C396.3,711.556,394.8,710.211,394.8,707.811Z" transform="translate(-394.798 -700.307)" fill="#1a1818"/>
        <path id="Path_2421" data-name="Path 2421" d="M404.252,707.409c0-2.476,1.409-4.194,3.389-4.194a2.52,2.52,0,0,1,2.245,1.176h.045v-4.084h2.105v11.064h-2.027v-1.037h-.03a2.644,2.644,0,0,1-2.369,1.269C405.615,711.6,404.252,709.978,404.252,707.409Zm5.727.047c0-1.517-.5-2.538-1.841-2.538-1.162,0-1.75,1.021-1.75,2.491,0,1.533.6,2.429,1.687,2.429C409.328,709.838,409.979,708.91,409.979,707.456Z" transform="translate(-394.554 -700.307)" fill="#1a1818"/>
        <path id="Path_2422" data-name="Path 2422" d="M412.786,707.409c0-2.476,1.408-4.194,3.389-4.194a2.517,2.517,0,0,1,2.244,1.176h.046v-4.084h2.105v11.064h-2.027v-1.037h-.03a2.646,2.646,0,0,1-2.369,1.269C414.148,711.6,412.786,709.978,412.786,707.409Zm5.727.047c0-1.517-.5-2.538-1.841-2.538-1.163,0-1.75,1.021-1.75,2.491,0,1.533.6,2.429,1.686,2.429C417.862,709.838,418.513,708.91,418.513,707.456Z" transform="translate(-394.333 -700.307)" fill="#1a1818"/>
        <path id="Path_2423" data-name="Path 2423" d="M421.322,707.32a3.927,3.927,0,0,1,3.916-4.178c2.553,0,3.914,1.949,3.914,4.781H423.4a1.973,1.973,0,0,0,2.026,1.981,1.483,1.483,0,0,0,1.533-.976h2.074a3.408,3.408,0,0,1-3.591,2.6A3.93,3.93,0,0,1,421.322,707.32Zm2.105-.852h3.528a1.674,1.674,0,0,0-1.687-1.7A1.766,1.766,0,0,0,423.427,706.469Z" transform="translate(-394.112 -700.234)" fill="#1a1818"/>
        <path id="Path_2424" data-name="Path 2424" d="M429.132,703.353h2.136l1.269,4.117c.233.758.357,1.269.357,1.269h.03s.11-.511.34-1.269l1.3-4.117h2.1l-2.769,7.939h-2.012Z" transform="translate(-393.91 -700.228)" fill="#1a1818"/>
        <path id="Path_2425" data-name="Path 2425" d="M441.719,710.415h-.03a2.435,2.435,0,0,1-2.336,1.067c-1.626,0-2.771-.851-2.771-2.429,0-1.748,1.423-2.305,3.188-2.553,1.315-.185,1.918-.293,1.918-.9,0-.572-.449-.945-1.331-.945-.99,0-1.471.356-1.533,1.114h-1.871c.061-1.392,1.1-2.615,3.419-2.615,2.383,0,3.341,1.068,3.341,2.925v4.04c0,.6.093.958.278,1.1v.078h-2.026A2.181,2.181,0,0,1,441.719,710.415Zm.015-1.919V707.3a5.91,5.91,0,0,1-1.469.464c-1.1.248-1.639.5-1.639,1.238s.494,1.006,1.236,1.006C441.07,710.013,441.734,709.269,441.734,708.5Z" transform="translate(-393.717 -700.233)" fill="#1a1818"/>
        <path id="Path_2426" data-name="Path 2426" d="M444.859,700.307h2.105v11.064h-2.105Z" transform="translate(-393.504 -700.307)" fill="#1a1818"/>
        <path id="Path_2427" data-name="Path 2427" d="M448.3,700.307H450.4v11.064H448.3Z" transform="translate(-393.415 -700.307)" fill="#1a1818"/>
        <path id="Path_2428" data-name="Path 2428" d="M456.466,710.415h-.031a2.435,2.435,0,0,1-2.336,1.067c-1.626,0-2.771-.851-2.771-2.429,0-1.748,1.424-2.305,3.189-2.553,1.314-.185,1.917-.293,1.917-.9,0-.572-.448-.945-1.331-.945-.99,0-1.471.356-1.532,1.114H451.7c.06-1.392,1.1-2.615,3.419-2.615,2.384,0,3.341,1.068,3.341,2.925v4.04c0,.6.093.958.279,1.1v.078h-2.027A2.166,2.166,0,0,1,456.466,710.415Zm.014-1.919V707.3a5.883,5.883,0,0,1-1.469.464c-1.1.248-1.639.5-1.639,1.238s.494,1.006,1.237,1.006A1.657,1.657,0,0,0,456.48,708.5Z" transform="translate(-393.336 -700.233)" fill="#1a1818"/>
      </g>
      <g id="Group_394" data-name="Group 394" transform="translate(50.653 22.54)">
        <path id="Path_2429" data-name="Path 2429" d="M402.931,725.146h-.03a3.309,3.309,0,0,1-3.11,1.717,5.049,5.049,0,0,1-3.886-1.61,6.574,6.574,0,0,1,.372-8.635,5.073,5.073,0,0,1,3.559-1.269c2.786,0,4.379,1.533,4.734,3.7h-2.2a2.338,2.338,0,0,0-2.492-1.841c-2.09,0-3.126,1.733-3.126,3.93,0,2.259,1.193,3.916,3.1,3.916a2.707,2.707,0,0,0,2.847-2.507v-.062h-2.662v-1.734h4.658v5.88h-1.687Z" transform="translate(-394.467 -715.35)" fill="#1a1818"/>
        <path id="Path_2430" data-name="Path 2430" d="M405.977,727.491h.743c.835,0,1.178-.433,1.178-1.083a6.91,6.91,0,0,0-.605-2.15l-2.136-5.648h2.214l1.176,3.574c.248.727.511,1.734.511,1.734h.031s.217-1.006.464-1.734l1.114-3.574h2.12l-2.769,8.139c-.605,1.765-1.193,2.4-2.8,2.4h-1.238Z" transform="translate(-394.191 -715.266)" fill="#1a1818"/>
        <path id="Path_2431" data-name="Path 2431" d="M413.285,718.614h2.026v1.068h.046a2.593,2.593,0,0,1,2.307-1.284,2.365,2.365,0,0,1,2.2,1.392h.032a2.764,2.764,0,0,1,2.382-1.392,2.5,2.5,0,0,1,2.616,2.815v5.34h-2.105V721.57c0-.9-.448-1.362-1.223-1.362-.881,0-1.424.681-1.424,1.734v4.611h-2.105V721.57c0-.9-.448-1.362-1.221-1.362-.85,0-1.423.681-1.423,1.734v4.611h-2.105Z" transform="translate(-393.98 -715.271)" fill="#1a1818"/>
        <path id="Path_2432" data-name="Path 2432" d="M427.918,719.7h.047a2.579,2.579,0,0,1,2.351-1.3,2.731,2.731,0,0,1,2.74,2.971v5.184h-2.105v-4.875a1.322,1.322,0,0,0-1.378-1.455,1.66,1.66,0,0,0-1.609,1.826v4.5h-2.1v-7.938h2.057Z" transform="translate(-393.655 -715.271)" fill="#1a1818"/>
        <path id="Path_2433" data-name="Path 2433" d="M438.9,725.671h-.03a2.437,2.437,0,0,1-2.336,1.066c-1.626,0-2.771-.85-2.771-2.428,0-1.748,1.424-2.305,3.188-2.553,1.315-.186,1.918-.294,1.918-.9,0-.574-.448-.945-1.331-.945-.99,0-1.471.356-1.532,1.114h-1.872c.061-1.393,1.1-2.615,3.419-2.615,2.383,0,3.343,1.067,3.343,2.924v4.04c0,.6.091.959.277,1.1v.077h-2.027A2.177,2.177,0,0,1,438.9,725.671Zm.017-1.92v-1.19a5.936,5.936,0,0,1-1.471.464c-1.1.248-1.639.495-1.639,1.238s.494,1.005,1.237,1.005C438.25,725.268,438.916,724.525,438.916,723.751Z" transform="translate(-393.451 -715.271)" fill="#1a1818"/>
        <path id="Path_2434" data-name="Path 2434" d="M441.526,723.984h1.95a1.527,1.527,0,0,0,1.733,1.315c.929,0,1.456-.356,1.456-.912,0-.759-1.005-.836-2.09-1.054-1.423-.279-2.816-.665-2.816-2.4,0-1.717,1.423-2.537,3.235-2.537,2.089,0,3.249,1.037,3.4,2.63h-1.9c-.091-.851-.633-1.16-1.53-1.16-.821,0-1.362.309-1.362.881,0,.682,1.05.743,2.181.976,1.332.279,2.8.649,2.8,2.506,0,1.594-1.36,2.553-3.341,2.553C442.934,726.784,441.649,725.671,441.526,723.984Z" transform="translate(-393.25 -715.271)" fill="#1a1818"/>
        <path id="Path_2435" data-name="Path 2435" d="M449.323,715.562h2.105v1.888h-2.105Zm0,3.126h2.105v7.938h-2.105Z" transform="translate(-393.048 -715.345)" fill="#1a1818"/>
        <path id="Path_2436" data-name="Path 2436" d="M452.323,722.576a3.927,3.927,0,0,1,3.916-4.178c2.553,0,3.914,1.949,3.914,4.78H454.4a1.973,1.973,0,0,0,2.027,1.981,1.482,1.482,0,0,0,1.532-.975h2.074a3.408,3.408,0,0,1-3.591,2.6A3.93,3.93,0,0,1,452.323,722.576Zm2.105-.852h3.528a1.674,1.674,0,0,0-1.686-1.7A1.766,1.766,0,0,0,454.428,721.725Z" transform="translate(-392.971 -715.271)" fill="#1a1818"/>
        <path id="Path_2437" data-name="Path 2437" d="M460.42,723.984h1.95A1.528,1.528,0,0,0,464.1,725.3c.929,0,1.456-.356,1.456-.912,0-.759-1.005-.836-2.089-1.054-1.424-.279-2.817-.665-2.817-2.4,0-1.717,1.424-2.537,3.235-2.537,2.09,0,3.25,1.037,3.4,2.63h-1.9c-.091-.851-.634-1.16-1.531-1.16-.821,0-1.362.309-1.362.881,0,.682,1.052.743,2.181.976,1.333.279,2.8.649,2.8,2.506,0,1.594-1.36,2.553-3.341,2.553C461.829,726.784,460.544,725.671,460.42,723.984Z" transform="translate(-392.761 -715.271)" fill="#1a1818"/>
        <path id="Path_2438" data-name="Path 2438" d="M471.217,723.006l-.912.943v2.677h-2.09V715.562h2.09v6.127l2.815-3h2.523l-2.924,3.017L476,726.626h-2.553Z" transform="translate(-392.56 -715.345)" fill="#1a1818"/>
        <path id="Path_2439" data-name="Path 2439" d="M475.559,722.591a4.148,4.148,0,1,1,4.147,4.194A4.035,4.035,0,0,1,475.559,722.591Zm6.159,0c0-1.547-.728-2.6-2.013-2.6-1.3,0-2.012,1.053-2.012,2.6s.712,2.584,2.012,2.584C480.99,725.175,481.718,724.139,481.718,722.591Z" transform="translate(-392.37 -715.271)" fill="#1a1818"/>
        <path id="Path_2440" data-name="Path 2440" d="M484.621,715.562h2.105v11.064h-2.105Z" transform="translate(-392.136 -715.345)" fill="#1a1818"/>
        <path id="Path_2441" data-name="Path 2441" d="M492.787,725.671h-.031a2.434,2.434,0,0,1-2.335,1.066c-1.626,0-2.771-.85-2.771-2.428,0-1.748,1.423-2.305,3.188-2.553,1.315-.186,1.917-.294,1.917-.9,0-.574-.448-.945-1.329-.945-.99,0-1.471.356-1.533,1.114h-1.871c.06-1.393,1.1-2.615,3.419-2.615,2.383,0,3.343,1.067,3.343,2.924v4.04c0,.6.091.959.276,1.1v.077h-2.026A2.177,2.177,0,0,1,492.787,725.671Zm.017-1.92v-1.19a5.949,5.949,0,0,1-1.471.464c-1.1.248-1.639.495-1.639,1.238s.494,1.005,1.236,1.005C492.139,725.268,492.8,724.525,492.8,723.751Z" transform="translate(-392.057 -715.271)" fill="#1a1818"/>
      </g>
      <g id="Group_395" data-name="Group 395" transform="translate(22.661 24.429)">
        <path id="Path_2442" data-name="Path 2442" d="M368.3,728.707V718.163c-.19-.158-.371-.319-.558-.481s-.379-.324-.557-.49V729.1c.194-.066.372-.131.557-.2S368.119,728.775,368.3,728.707Z" transform="translate(-367.181 -717.191)" fill="#1a1818"/>
      </g>
      <g id="Group_396" data-name="Group 396" transform="translate(24.706 26.161)">
        <path id="Path_2443" data-name="Path 2443" d="M369.732,728.035c.2-.094.381-.191.559-.29V719.8c-.184-.155-.366-.31-.559-.467s-.367-.3-.558-.453v9.408l.061-.023C369.406,728.189,369.571,728.114,369.732,728.035Z" transform="translate(-369.174 -718.88)" fill="#1a1818"/>
      </g>
      <g id="Group_397" data-name="Group 397" transform="translate(26.753 27.92)">
        <path id="Path_2444" data-name="Path 2444" d="M372.02,726.286a3.643,3.643,0,0,0,.265-.375v-3.985a6.281,6.281,0,0,0-.482-.659l-.076-.082c-.171-.2-.356-.4-.557-.591v6.51a5.232,5.232,0,0,0,.557-.489A3.989,3.989,0,0,0,372.02,726.286Z" transform="translate(-371.17 -720.594)" fill="#1a1818"/>
      </g>
      <g id="Group_398" data-name="Group 398" transform="translate(30.834 17.364)">
        <path id="Path_2445" data-name="Path 2445" d="M375.148,710.305h0l.009,0-.009-.005Z" transform="translate(-375.148 -710.304)" fill="#1a1818"/>
      </g>
      <g id="Group_399" data-name="Group 399" transform="translate(20.614 21.258)">
        <path id="Path_2446" data-name="Path 2446" d="M365.579,715.307a3.187,3.187,0,0,1-.394-1.207v15.744l.559-.175c.189-.06.373-.121.558-.18V716.317a6.424,6.424,0,0,1-.558-.752Z" transform="translate(-365.185 -714.1)" fill="#1a1818"/>
      </g>
      <g id="Group_400" data-name="Group 400" transform="translate(20.614 20.767)">
        <path id="Path_2447" data-name="Path 2447" d="M365.185,713.622v.024l0-.024Z" transform="translate(-365.185 -713.622)" fill="#1a1818"/>
      </g>
      <g id="Group_401" data-name="Group 401">
        <path id="Path_2448" data-name="Path 2448" d="M366.576,693.378a21.485,21.485,0,1,0,21.485,21.485A21.485,21.485,0,0,0,366.576,693.378ZM351.47,704.16l1.261,4.792h-2.523Zm1-.579,5.417,5.37h-4Zm-2.1.382-1.313,4.989h-1.1A19.406,19.406,0,0,1,350.367,703.963Zm34.562,17.592a19.408,19.408,0,0,1-1.82,3.7c-.121.193-.243.386-.37.573s-.256.367-.388.547a9.94,9.94,0,0,0-2.31-3.619,28.525,28.525,0,0,0-4.276-3.475c-.746-.525-1.43-1.008-2.009-1.479a8.971,8.971,0,0,1-.8-.718,4.3,4.3,0,0,1-.558-.7l-.017-.024a2.162,2.162,0,0,1-.35-1.134,1.868,1.868,0,0,1,.106-.613,1.8,1.8,0,0,1,.25-.471,1.942,1.942,0,0,1,.481-.475,3.333,3.333,0,0,1,1.1-.462,8.724,8.724,0,0,1,1.1-.179c-.045-.3-.077-.6-.1-.914-.564.052-1.209.063-1.917.078-.837.016-1.77.035-2.657.128a7.76,7.76,0,0,0-2.353.557,2.431,2.431,0,0,0-.955.718,1.364,1.364,0,0,0-.272.6v.422a2.143,2.143,0,0,0,.254.69,5.267,5.267,0,0,0,.676.916l.139.155c.128.137.274.278.419.419q.266.257.558.515.448.4.929.792l.558.453.106.085c.154.123.3.246.453.368.317.259.63.517.93.778.191.168.375.336.557.508s.38.367.558.558c.125.131.255.264.372.4a5.029,5.029,0,0,1,1.331,3.293,4.76,4.76,0,0,1-.068.814,5,5,0,0,1-1.028,2.33,5.6,5.6,0,0,1-.607.634,6.754,6.754,0,0,1-.558.454c-.177.131-.363.255-.557.375l-.267.164c-.213.121-.436.237-.664.349-.181.088-.368.175-.559.258s-.368.157-.558.235c-.3.121-.607.24-.929.356-.182.066-.369.13-.558.194s-.369.126-.557.189c-.7.232-1.435.463-2.212.706-1.549.483-3.293,1.029-5.19,1.774-.265-.089-.528-.185-.788-.284s-.493-.194-.737-.3a19.564,19.564,0,0,1-6.062-4.121c-.284-.282-.556-.579-.822-.88l.05,0a2.133,2.133,0,0,1,.977.205,8.436,8.436,0,0,1,1.149.835,3.319,3.319,0,0,0,.835.447,3.374,3.374,0,0,0,1.154.187,3.258,3.258,0,0,0,1.467-.318,8.528,8.528,0,0,0,1.311-.932,2.117,2.117,0,0,1,1.341-.425,2.14,2.14,0,0,1,.977.205,8.441,8.441,0,0,1,1.15.835,3.326,3.326,0,0,0,.836.447,3.37,3.37,0,0,0,1.154.187v-1.116a2.148,2.148,0,0,1-.978-.205,8.5,8.5,0,0,1-1.15-.834,3.333,3.333,0,0,0-.835-.447,3.4,3.4,0,0,0-1.154-.187,3.265,3.265,0,0,0-1.468.317,8.74,8.74,0,0,0-1.312.932,2.195,2.195,0,0,1-.558.3,2.283,2.283,0,0,1-.781.122,2.141,2.141,0,0,1-.977-.205,8.571,8.571,0,0,1-1.15-.834,3.3,3.3,0,0,0-.833-.447,3.411,3.411,0,0,0-1.155-.187,3.46,3.46,0,0,0-.884.108,19.628,19.628,0,0,1-1.734-2.661,11.252,11.252,0,0,0,1.154-.844,2.2,2.2,0,0,1,.555-.3,2.275,2.275,0,0,1,.776-.122,2.12,2.12,0,0,1,.968.2,8.416,8.416,0,0,1,1.142.835,3.184,3.184,0,0,0,1.982.634,3.223,3.223,0,0,0,1.461-.318,8.646,8.646,0,0,0,1.3-.93,2.17,2.17,0,0,1,.554-.3,2.248,2.248,0,0,1,.776-.123,2.132,2.132,0,0,1,.97.2,8.548,8.548,0,0,1,1.143.835,3.177,3.177,0,0,0,1.982.634V723.41a2.121,2.121,0,0,1-.969-.2,8.488,8.488,0,0,1-1.144-.834,3.23,3.23,0,0,0-.831-.448,3.363,3.363,0,0,0-1.151-.189,3.252,3.252,0,0,0-1.462.319,8.6,8.6,0,0,0-1.3.932,2.2,2.2,0,0,1-.555.3,2.3,2.3,0,0,1-.775.122,2.118,2.118,0,0,1-.969-.2,8.481,8.481,0,0,1-1.142-.834,3.254,3.254,0,0,0-.832-.448,3.355,3.355,0,0,0-1.149-.189,3.249,3.249,0,0,0-1.462.319,8.545,8.545,0,0,0-1.3.932l-.215.139a19.287,19.287,0,0,1-1.258-3.547l.145.01a3.236,3.236,0,0,0,1.461-.318,8.54,8.54,0,0,0,1.3-.932,2.339,2.339,0,0,1,.555-.3,2.254,2.254,0,0,1,.776-.12,2.094,2.094,0,0,1,.968.2,8.5,8.5,0,0,1,1.142.834,3.342,3.342,0,0,0,.831.448,3.388,3.388,0,0,0,1.151.187,3.236,3.236,0,0,0,1.461-.318,8.574,8.574,0,0,0,1.3-.932,2.313,2.313,0,0,1,.554-.3,2.255,2.255,0,0,1,.776-.12,2.106,2.106,0,0,1,.97.2,8.629,8.629,0,0,1,1.143.834,3.334,3.334,0,0,0,.83.448,3.4,3.4,0,0,0,1.152.187v-1.115a2.094,2.094,0,0,1-.969-.205,8.414,8.414,0,0,1-1.144-.834,3.287,3.287,0,0,0-.831-.448,3.386,3.386,0,0,0-1.151-.188,3.254,3.254,0,0,0-1.462.319,8.466,8.466,0,0,0-1.3.932,2.076,2.076,0,0,1-1.329.425,2.091,2.091,0,0,1-.969-.205,8.471,8.471,0,0,1-1.142-.833,3.284,3.284,0,0,0-.832-.449,3.378,3.378,0,0,0-1.149-.188,3.25,3.25,0,0,0-1.462.319,8.558,8.558,0,0,0-1.3.932,2.075,2.075,0,0,1-1.328.425,2.665,2.665,0,0,1-.388-.031,19.6,19.6,0,0,1-.333-3.579l.007-.264a3.616,3.616,0,0,0,.625.052,3.225,3.225,0,0,0,1.456-.319,8.544,8.544,0,0,0,1.3-.931,2.169,2.169,0,0,1,.551-.3,2.235,2.235,0,0,1,.769-.122,2.083,2.083,0,0,1,.963.205,8.753,8.753,0,0,1,1.137.833,3.225,3.225,0,0,0,.829.449,3.357,3.357,0,0,0,1.147.188,3.225,3.225,0,0,0,1.456-.319,8.614,8.614,0,0,0,1.3-.931,2.152,2.152,0,0,1,.551-.3,2.244,2.244,0,0,1,.769-.122,2.091,2.091,0,0,1,.964.205,8.685,8.685,0,0,1,1.138.833,3.226,3.226,0,0,0,.829.449,3.357,3.357,0,0,0,1.147.188v-1.116a2.1,2.1,0,0,1-.964-.205,8.345,8.345,0,0,1-1.138-.833,3.3,3.3,0,0,0-.828-.449,3.37,3.37,0,0,0-1.148-.187,3.207,3.207,0,0,0-1.458.319,8.339,8.339,0,0,0-1.3.932,2.2,2.2,0,0,1-.553.3,2.234,2.234,0,0,1-.768.121,2.092,2.092,0,0,1-.963-.205,8.409,8.409,0,0,1-1.138-.833,3.281,3.281,0,0,0-.828-.449,3.363,3.363,0,0,0-1.147-.187,3.2,3.2,0,0,0-1.457.319,8.4,8.4,0,0,0-1.3.932,2.188,2.188,0,0,1-.551.3,2.245,2.245,0,0,1-.769.121,2.421,2.421,0,0,1-.578-.065,19.544,19.544,0,0,1,.541-3.4h27.423c.043-.306.1-.608.171-.906l.054-.21a9.8,9.8,0,0,1,.318-.992l-7-6.945-8,7.937h-1.128l-7.321-7.259q.3-.326.611-.641a19.532,19.532,0,0,1,27.621,0c.35.351.683.717,1.006,1.094.128.151.256.3.381.454s.244.306.362.462a8.9,8.9,0,0,0-5.658,5.76l-.038.13c-.066.221-.122.442-.171.669-.033.147-.054.3-.078.447l-.017.115a8.915,8.915,0,0,0-.1,1.118l-.01.213c0,.13.014.258.019.387a9.161,9.161,0,0,0,.1,1.04c.03.186.062.37.1.553s.088.369.142.551a8.921,8.921,0,0,0,8.56,6.4c.1,0,.2-.013.307-.017-.056.192-.116.38-.179.568S385,721.371,384.929,721.555Zm-15.064-12.6h-2.523l1.261-4.792Zm-.26-5.37,5.417,5.37h-4Zm-3.418,5.37h-4l5.415-5.37Z" transform="translate(-345.091 -693.378)" fill="#1a1818"/>
      </g>
    </g>
    <rect id="Rectangle_5651" data-name="Rectangle 5651" width="611" height="710" transform="translate(704 5338)" fill="none"/>
  </g>
</svg>
