<svg xmlns="http://www.w3.org/2000/svg" width="2560" height="1920" viewBox="0 0 2560 1920">
  <g id="Group_903" data-name="Group 903" transform="translate(-10056 -4314)">
    <rect id="Rectangle_5654" data-name="Rectangle 5654" width="2560" height="1920" transform="translate(10056 4314)" fill="none"/>
    <g id="Group_902" data-name="Group 902" transform="translate(9883.854 4040.684)">
      <g id="Group_339" data-name="Group 339" transform="translate(300.146 911.316)">
        <g id="Group_330" data-name="Group 330" transform="translate(764.6 106.667)">
          <path id="Path_2249" data-name="Path 2249" d="M253.856,713.3V600.827h33.621V713.3c0,17.154,8.578,29.209,31.076,29.209,21.33,0,31.285-12.517,31.285-29.68v-112h33.638V713.3c0,35.477-21.8,56.109-64.235,56.109C276.329,769.408,253.856,749.237,253.856,713.3Z" transform="translate(-253.856 -600.827)"/>
          <path id="Path_2250" data-name="Path 2250" d="M271.166,707.267c0-37.1,21.1-62.847,50.785-62.847,16.684,0,27.127,7.662,33.621,17.625h.689V600.827H387.8v165.8H357.428V751.094h-.462c-6.956,11.358-18.785,19.012-35.494,19.012C291.564,770.106,271.166,745.759,271.166,707.267Zm85.8.7c0-22.724-7.435-38.031-27.6-38.031-17.39,0-26.2,15.307-26.2,37.334,0,22.952,9.04,36.409,25.271,36.409C347.221,743.675,356.967,729.765,356.967,707.964Z" transform="translate(-125.743 -600.827)"/>
          <path id="Path_2251" data-name="Path 2251" d="M286.793,707.267c0-37.1,21.1-62.847,50.785-62.847,16.684,0,27.127,7.662,33.621,17.625h.689V600.827h31.538v165.8h-30.37V751.094h-.462c-6.956,11.358-18.785,19.012-35.495,19.012C307.191,770.106,286.793,745.759,286.793,707.267Zm85.8.7c0-22.724-7.435-38.031-27.6-38.031-17.39,0-26.2,15.307-26.2,37.334,0,22.952,9.04,36.409,25.263,36.409C362.848,743.675,372.593,729.765,372.593,707.964Z" transform="translate(-10.086 -600.827)"/>
          <path id="Path_2252" data-name="Path 2252" d="M302.42,668.636c0-35.258,23.876-62.62,58.657-62.62,38.267,0,58.681,29.227,58.681,71.66H333.479c2.336,18.314,12.526,29.68,30.387,29.68,12.291,0,19.482-5.561,22.96-14.608H417.9c-4.411,21.1-23.2,38.954-53.8,38.954C324.666,731.7,302.42,704.106,302.42,668.636Zm31.538-12.76h52.868c-.933-15.071-10.9-25.505-25.287-25.505C344.854,630.37,336.73,640.334,333.958,655.875Z" transform="translate(105.571 -562.424)"/>
          <path id="Path_2253" data-name="Path 2253" d="M316.721,606.4h32.008l19,61.68c3.478,11.374,5.352,19.019,5.352,19.019h.454s1.63-7.645,5.108-19.019l19.474-61.68h31.537L388.147,725.36H358Z" transform="translate(211.414 -559.559)"/>
          <path id="Path_2254" data-name="Path 2254" d="M407.321,714.8h-.47c-6.023,9.039-14.61,16-35.016,16-24.355,0-41.5-12.752-41.5-36.4,0-26.2,21.33-34.553,47.768-38.258,19.7-2.789,28.748-4.419,28.748-13.458,0-8.578-6.712-14.14-19.944-14.14-14.845,0-22.036,5.327-22.952,16.692H335.9c.924-20.876,16.458-39.19,51.247-39.19,35.721,0,50.1,16,50.1,43.828V710.4c0,9.039,1.395,14.373,4.167,16.465v1.151h-30.37C409.178,725.7,408.01,720.137,407.321,714.8Zm.235-28.756V668.194c-5.57,3.243-14.147,5.1-22.044,6.957-16.458,3.712-24.573,7.418-24.573,18.549s7.41,15.071,18.558,15.071C397.576,708.77,407.557,697.64,407.557,686.046Z" transform="translate(312.165 -562.217)"/>
          <path id="Path_2255" data-name="Path 2255" d="M345.49,600.827h31.538v165.8H345.49Z" transform="translate(424.336 -600.827)"/>
          <path id="Path_2256" data-name="Path 2256" d="M351.783,600.827h31.538v165.8H351.783Z" transform="translate(470.911 -600.827)"/>
          <path id="Path_2257" data-name="Path 2257" d="M434.321,714.8h-.47c-6.023,9.039-14.609,16-35.016,16-24.355,0-41.5-12.752-41.5-36.4,0-26.2,21.33-34.553,47.768-38.258,19.7-2.789,28.749-4.419,28.749-13.458,0-8.578-6.712-14.14-19.944-14.14-14.845,0-22.036,5.327-22.952,16.692H362.9c.924-20.876,16.457-39.19,51.246-39.19,35.721,0,50.1,16,50.1,43.828V710.4c0,9.039,1.395,14.373,4.167,16.465v1.151h-30.37C436.178,725.7,435.01,720.137,434.321,714.8Zm.235-28.756V668.194c-5.57,3.243-14.147,5.1-22.044,6.957-16.458,3.712-24.574,7.418-24.574,18.549s7.41,15.071,18.558,15.071C424.576,708.77,434.556,697.64,434.556,686.046Z" transform="translate(511.994 -562.217)"/>
        </g>
        <g id="Group_331" data-name="Group 331" transform="translate(759.493 338.078)">
          <path id="Path_2258" data-name="Path 2258" d="M380.088,775.17h-.462c-11.367,19-26.892,25.732-46.617,25.732-25.035,0-44.518-9.047-58.194-24.119-13.685-15.3-21.566-36.628-21.566-61.68,0-27.6,9.729-51.708,27.127-67.711,13.45-12.291,31.076-19.02,53.339-19.02,41.745,0,65.621,22.959,70.956,55.429H371.737c-3.713-16.011-16-27.605-37.334-27.605-31.3,0-46.845,25.975-46.845,58.907,0,33.856,17.852,58.673,46.391,58.673,25.741,0,42.661-19.247,42.661-37.57v-.924H336.721V709.308h69.8v88.117H381.247Z" transform="translate(-253.248 -628.373)"/>
          <path id="Path_2259" data-name="Path 2259" d="M285.113,767.44h11.14c12.526,0,17.626-6.495,17.626-16.238,0-6.494-2.327-14.147-9.04-32.226l-32.016-84.639h33.167L323.607,687.9c3.713,10.9,7.662,25.976,7.662,25.976h.462s3.251-15.081,6.956-25.976l16.71-53.564h31.765L345.643,756.3c-9.039,26.445-17.853,35.955-41.972,35.955H285.113Z" transform="translate(-108.379 -584.241)"/>
          <path id="Path_2260" data-name="Path 2260" d="M287.7,637.2h30.37v16h.706c6.486-10.9,18.087-19.246,34.545-19.246a35.488,35.488,0,0,1,32.932,20.867h.471c8.107-12.979,20.625-20.867,35.7-20.867,25.044,0,39.183,16.24,39.183,42.206v80H430.085V681.489c0-13.449-6.713-20.405-18.315-20.405-13.223,0-21.33,10.2-21.33,25.967v69.106H358.9V681.489c0-13.449-6.73-20.405-18.332-20.405-12.744,0-21.331,10.2-21.331,25.967v69.106H287.7Z" transform="translate(1.757 -587.106)"/>
          <path id="Path_2261" data-name="Path 2261" d="M341.572,653.423h.689c8.124-12.744,19.02-19.473,35.251-19.473,24.582,0,41.056,18.549,41.056,44.525v77.683H387.03V683.112c0-12.752-7.435-21.8-20.641-21.8-13.921,0-24.128,11.131-24.128,27.37v67.477h-31.53V637.2h30.841Z" transform="translate(172.189 -587.106)"/>
          <path id="Path_2262" data-name="Path 2262" d="M402.185,742.742h-.47c-6.024,9.04-14.6,16-35.016,16-24.355,0-41.5-12.753-41.5-36.41,0-26.2,21.331-34.544,47.769-38.258,19.709-2.781,28.748-4.4,28.748-13.45,0-8.578-6.712-14.147-19.936-14.147-14.853,0-22.036,5.335-22.96,16.692h-28.06c.924-20.868,16.458-39.19,51.247-39.19,35.721,0,50.1,16.012,50.1,43.836v60.52c0,9.039,1.395,14.374,4.167,16.465v1.159H405.9C404.041,753.639,402.874,748.077,402.185,742.742Zm.235-28.756V696.126c-5.562,3.251-14.148,5.1-22.036,6.956C363.926,706.8,355.8,710.508,355.8,721.64s7.418,15.071,18.558,15.071C392.439,736.711,402.42,725.579,402.42,713.987Z" transform="translate(279.253 -586.905)"/>
          <path id="Path_2263" data-name="Path 2263" d="M339.416,717.665h29.211c2.1,13.676,11.828,19.716,25.968,19.716,13.92,0,21.809-5.334,21.809-13.685,0-11.366-15.08-12.526-31.3-15.768-21.331-4.176-42.208-9.982-42.208-35.957,0-25.732,21.33-38.022,48.458-38.022,31.3,0,48.7,15.541,51.028,39.417H413.85c-1.4-12.744-9.5-17.39-22.961-17.39-12.291,0-20.415,4.646-20.415,13.224,0,10.2,15.769,11.13,32.705,14.609,19.953,4.175,41.972,9.737,41.972,37.56,0,23.884-20.415,38.267-50.1,38.267C360.52,759.635,341.273,742.943,339.416,717.665Z" transform="translate(384.489 -587.106)"/>
          <path id="Path_2264" data-name="Path 2264" d="M353.69,628.76h31.529v28.294H353.69Zm0,46.844h31.529V794.56H353.69Z" transform="translate(490.132 -625.508)"/>
          <path id="Path_2265" data-name="Path 2265" d="M359.186,696.561c0-35.25,23.867-62.612,58.656-62.612,38.267,0,58.674,29.218,58.674,71.652H390.245c2.327,18.322,12.517,29.688,30.387,29.688,12.291,0,19.474-5.57,22.961-14.618h31.075c-4.419,21.1-23.2,38.964-53.809,38.964C381.432,759.635,359.186,732.047,359.186,696.561Zm31.538-12.753h52.868c-.941-15.071-10.9-25.5-25.288-25.5C401.611,658.3,393.5,668.267,390.724,683.809Z" transform="translate(530.809 -587.106)"/>
          <path id="Path_2266" data-name="Path 2266" d="M374.01,717.665h29.2c2.1,13.676,11.837,19.716,25.976,19.716,13.913,0,21.81-5.334,21.81-13.685,0-11.366-15.08-12.526-31.311-15.768-21.331-4.176-42.2-9.982-42.2-35.957,0-25.732,21.33-38.022,48.457-38.022,31.3,0,48.692,15.541,51.028,39.417H448.435c-1.394-12.744-9.5-17.39-22.952-17.39-12.291,0-20.415,4.646-20.415,13.224,0,10.2,15.769,11.13,32.706,14.609,19.952,4.175,41.971,9.737,41.971,37.56,0,23.884-20.415,38.267-50.1,38.267C395.113,759.635,375.867,742.943,374.01,717.665Z" transform="translate(640.523 -587.106)"/>
          <path id="Path_2267" data-name="Path 2267" d="M433.279,740.3l-13.685,14.147V794.56H388.283V628.76h31.311v91.822l42.2-44.978H499.6L455.76,720.817l49.172,73.743H466.665Z" transform="translate(746.158 -625.508)"/>
          <path id="Path_2268" data-name="Path 2268" d="M401.731,696.8c0-35.485,25.262-62.847,62.135-62.847s62.159,27.362,62.159,62.847-25.287,62.839-62.159,62.839S401.731,732.274,401.731,696.8Zm92.277,0c0-23.194-10.9-38.964-30.142-38.964-19.474,0-30.144,15.77-30.144,38.964s10.67,38.72,30.144,38.72C483.112,735.517,494.008,719.983,494.008,696.8Z" transform="translate(845.688 -587.106)"/>
          <path id="Path_2269" data-name="Path 2269" d="M418.322,628.76h31.537v165.8H418.322Z" transform="translate(968.48 -625.508)"/>
          <path id="Path_2270" data-name="Path 2270" d="M500.861,742.742h-.47c-6.024,9.04-14.61,16-35.017,16-24.354,0-41.5-12.753-41.5-36.41,0-26.2,21.331-34.544,47.769-38.258,19.7-2.781,28.749-4.4,28.749-13.45,0-8.578-6.713-14.147-19.936-14.147-14.853,0-22.045,5.335-22.96,16.692h-28.06c.924-20.868,16.458-39.19,51.247-39.19,35.721,0,50.1,16.012,50.1,43.836v60.52c0,9.039,1.394,14.374,4.166,16.465v1.159h-30.37C502.717,753.639,501.55,748.077,500.861,742.742Zm.235-28.756V696.126c-5.57,3.251-14.148,5.1-22.036,6.956-16.458,3.713-24.582,7.426-24.582,18.558s7.418,15.071,18.558,15.071C491.116,736.711,501.1,725.579,501.1,713.987Z" transform="translate(1009.563 -586.905)"/>
        </g>
        <g id="Group_332" data-name="Group 332" transform="translate(339.791 366.28)">
          <path id="Path_2271" data-name="Path 2271" d="M220.025,804.428V646.314c-2.857-2.377-5.578-4.789-8.367-7.216-2.823-2.453-5.688-4.873-8.368-7.368V810.376c2.907-.983,5.578-1.974,8.368-2.973S217.354,805.428,220.025,804.428Z" transform="translate(-203.29 -631.73)"/>
        </g>
        <g id="Group_333" data-name="Group 333" transform="translate(370.463 392.256)">
          <path id="Path_2272" data-name="Path 2272" d="M215.308,772.118c2.932-1.411,5.688-2.872,8.368-4.351V648.641c-2.722-2.319-5.486-4.653-8.368-7.006-2.747-2.259-5.511-4.5-8.367-6.813V775.915l.891-.353C210.419,774.428,212.906,773.3,215.308,772.118Z" transform="translate(-206.941 -634.822)"/>
        </g>
        <g id="Group_334" data-name="Group 334" transform="translate(401.152 418.634)">
          <path id="Path_2273" data-name="Path 2273" d="M223.364,723.333a61.814,61.814,0,0,0,3.965-5.638V657.931a93.584,93.584,0,0,0-7.233-9.878l-1.134-1.236c-2.562-2.949-5.351-5.914-8.367-8.854v97.627a76.406,76.406,0,0,0,8.367-7.351A63.08,63.08,0,0,0,223.364,723.333Z" transform="translate(-210.594 -637.962)"/>
        </g>
        <g id="Group_335" data-name="Group 335" transform="translate(462.346 260.353)">
          <path id="Path_2274" data-name="Path 2274" d="M217.878,619.146l.008.016.123.049-.123-.09Z" transform="translate(-217.878 -619.121)"/>
        </g>
        <g id="Group_336" data-name="Group 336" transform="translate(309.101 318.756)">
          <path id="Path_2275" data-name="Path 2275" d="M205.543,644.152a47.114,47.114,0,0,1-5.906-18.079V862.139c2.815-.89,5.637-1.764,8.367-2.637,2.848-.891,5.612-1.8,8.368-2.68V659.308A98.663,98.663,0,0,1,208,648.034C207.181,646.748,206.283,645.471,205.543,644.152Z" transform="translate(-199.637 -626.073)"/>
        </g>
        <g id="Group_337" data-name="Group 337" transform="translate(309.1 311.382)">
          <path id="Path_2276" data-name="Path 2276" d="M199.637,625.2v.369l.041-.369Z" transform="translate(-199.637 -625.195)"/>
        </g>
        <g id="Group_338" data-name="Group 338" transform="translate(0 0)">
          <path id="Path_2277" data-name="Path 2277" d="M485,588.13c-177.927,0-322.148,144.219-322.157,322.141.009,177.924,144.23,322.143,322.157,322.143s322.14-144.219,322.148-322.143C807.141,732.349,662.919,588.13,485,588.13ZM258.482,749.789,277.4,821.65H239.58Zm15.021-8.678,81.222,80.54H294.7Zm-31.546,5.721L222.265,821.65H205.816A291.362,291.362,0,0,1,241.957,746.831ZM760.2,1010.645a290.94,290.94,0,0,1-27.287,55.438c-1.815,2.9-3.63,5.78-5.545,8.595-1.882,2.772-3.856,5.5-5.822,8.19-6.973-20.481-19.5-38.375-34.638-54.261-19.785-20.742-43.787-37.753-64.109-52.094-11.182-7.872-21.457-15.13-30.135-22.17a140.331,140.331,0,0,1-11.938-10.778,64.379,64.379,0,0,1-8.368-10.426l-.269-.37a32.379,32.379,0,0,1-5.234-16.97,28.41,28.41,0,0,1,1.571-9.216,27.245,27.245,0,0,1,3.747-7.073A29.3,29.3,0,0,1,579.4,892.4a49.7,49.7,0,0,1,16.5-6.922,125.344,125.344,0,0,1,16.508-2.663q-1.033-6.78-1.436-13.719c-8.452.782-18.147.925-28.766,1.16-12.543.253-26.523.521-39.83,1.933-13.282,1.394-25.867,3.981-35.293,8.341-6.293,2.9-11.106,6.486-14.332,10.779a20.51,20.51,0,0,0-4.075,8.922v6.326a32.515,32.515,0,0,0,3.831,10.334,77.969,77.969,0,0,0,10.123,13.752l2.075,2.319c1.932,2.075,4.108,4.175,6.292,6.284q3.982,3.831,8.367,7.721,6.717,5.923,13.937,11.871c2.781,2.267,5.578,4.536,8.367,6.8l1.588,1.285c2.293,1.832,4.528,3.672,6.78,5.512,4.772,3.873,9.451,7.754,13.954,11.669,2.881,2.495,5.646,5.041,8.367,7.595q4.373,4.1,8.368,8.367c1.874,1.991,3.839,3.956,5.578,6.015,11.745,13.921,20,30.1,19.961,49.355a72.183,72.183,0,0,1-1.042,12.207,74.618,74.618,0,0,1-15.4,34.948,85.844,85.844,0,0,1-9.1,9.5,104.139,104.139,0,0,1-8.368,6.813q-4.007,2.937-8.367,5.611c-1.336.824-2.621,1.68-4,2.47-3.192,1.815-6.528,3.536-9.955,5.217-2.714,1.327-5.511,2.621-8.367,3.89-2.714,1.185-5.528,2.352-8.367,3.5-4.52,1.823-9.115,3.612-13.937,5.36-2.722.966-5.553,1.932-8.367,2.906q-4.134,1.411-8.368,2.823c-10.5,3.469-21.523,6.93-33.159,10.577-23.221,7.248-49.373,15.423-77.82,26.587q-5.961-2.016-11.829-4.258c-3.7-1.421-7.393-2.9-11.022-4.471a293.231,293.231,0,0,1-90.9-61.771c-4.259-4.259-8.334-8.7-12.333-13.215l.756-.025a32.191,32.191,0,0,1,14.651,3.066c5.62,2.672,10.275,7.427,17.222,12.526a48.048,48.048,0,0,0,29.832,9.5,48.908,48.908,0,0,0,21.994-4.756c8.847-4.394,14.316-10.232,19.659-13.971a33.5,33.5,0,0,1,8.384-4.536,34.039,34.039,0,0,1,11.719-1.832,32.258,32.258,0,0,1,14.66,3.066c5.62,2.672,10.283,7.427,17.231,12.526a48.149,48.149,0,0,0,29.849,9.5v-16.727a32.16,32.16,0,0,1-14.66-3.083c-5.637-2.672-10.291-7.427-17.248-12.509a49.5,49.5,0,0,0-12.517-6.713,51.25,51.25,0,0,0-17.315-2.8,48.881,48.881,0,0,0-22.019,4.764c-8.838,4.394-14.315,10.24-19.65,13.962a33.889,33.889,0,0,1-8.376,4.554,34.74,34.74,0,0,1-11.711,1.823,32.052,32.052,0,0,1-14.643-3.083c-5.62-2.672-10.291-7.427-17.239-12.509a49.31,49.31,0,0,0-12.509-6.713,51.288,51.288,0,0,0-17.315-2.8A51.947,51.947,0,0,0,253.072,1089a292.691,292.691,0,0,1-25.993-39.9c7.443-4.2,12.5-9.275,17.315-12.66a33.2,33.2,0,0,1,8.309-4.545,33.959,33.959,0,0,1,11.619-1.823,31.627,31.627,0,0,1,14.525,3.067c5.587,2.671,10.216,7.418,17.13,12.517a49.885,49.885,0,0,0,12.459,6.72,50.672,50.672,0,0,0,17.256,2.8,48.346,48.346,0,0,0,21.91-4.78c8.813-4.386,14.248-10.232,19.566-13.954a32.723,32.723,0,0,1,8.309-4.528,33.558,33.558,0,0,1,11.627-1.841,31.747,31.747,0,0,1,14.551,3.067c5.578,2.671,10.207,7.418,17.13,12.517a49.733,49.733,0,0,0,12.459,6.72,50.809,50.809,0,0,0,17.273,2.8v-16.735a31.71,31.71,0,0,1-14.551-3.058c-5.586-2.663-10.216-7.425-17.147-12.5a48.684,48.684,0,0,0-12.451-6.73,50.581,50.581,0,0,0-17.264-2.813,48.556,48.556,0,0,0-21.91,4.779c-8.813,4.411-14.248,10.215-19.566,13.954a33.086,33.086,0,0,1-8.326,4.553,34.723,34.723,0,0,1-11.61,1.815,31.631,31.631,0,0,1-14.534-3.058c-5.578-2.663-10.216-7.425-17.13-12.5a48.6,48.6,0,0,0-12.459-6.73,50.41,50.41,0,0,0-17.247-2.813,48.543,48.543,0,0,0-21.9,4.779c-8.813,4.411-14.257,10.233-19.566,13.962l-3.226,2.085a288.5,288.5,0,0,1-18.852-53.2l2.159.168a48.633,48.633,0,0,0,21.91-4.771c8.813-4.4,14.24-10.241,19.549-13.962a30.938,30.938,0,0,1,19.927-6.369,31.533,31.533,0,0,1,14.525,3.067c5.587,2.663,10.216,7.427,17.13,12.509a50.174,50.174,0,0,0,12.459,6.721,50.838,50.838,0,0,0,17.256,2.806,48.579,48.579,0,0,0,21.91-4.771c8.813-4.4,14.248-10.241,19.566-13.962a33.59,33.59,0,0,1,8.309-4.545,34.006,34.006,0,0,1,11.627-1.824,31.652,31.652,0,0,1,14.551,3.067c5.578,2.663,10.207,7.427,17.13,12.509a50.02,50.02,0,0,0,12.459,6.721,50.975,50.975,0,0,0,17.273,2.806V964.407a31.72,31.72,0,0,1-14.551-3.067c-5.586-2.671-10.216-7.426-17.147-12.525a49.669,49.669,0,0,0-12.451-6.712A50.969,50.969,0,0,0,387.1,939.3a48.44,48.44,0,0,0-21.91,4.78c-8.813,4.395-14.248,10.216-19.566,13.962a33.237,33.237,0,0,1-8.326,4.528,33.844,33.844,0,0,1-11.61,1.84,31.64,31.64,0,0,1-14.534-3.067c-5.578-2.671-10.216-7.426-17.13-12.517a49.335,49.335,0,0,0-12.459-6.72,50.8,50.8,0,0,0-17.247-2.807,48.427,48.427,0,0,0-21.9,4.78c-8.813,4.395-14.257,10.241-19.566,13.962a33.274,33.274,0,0,1-8.309,4.528,33.88,33.88,0,0,1-11.61,1.84,43.357,43.357,0,0,1-5.814-.453,294.341,294.341,0,0,1-4.99-53.683c0-1.326.084-2.612.1-3.948a55.514,55.514,0,0,0,9.359.781,48.355,48.355,0,0,0,21.851-4.787c8.77-4.4,14.189-10.241,19.474-13.962a30.731,30.731,0,0,1,19.8-6.361,31.306,31.306,0,0,1,14.441,3.058c5.545,2.672,10.149,7.426,17.054,12.51a48.493,48.493,0,0,0,12.408,6.72,50.188,50.188,0,0,0,17.205,2.822,48.353,48.353,0,0,0,21.851-4.787c8.771-4.4,14.19-10.241,19.483-13.962a32.734,32.734,0,0,1,8.267-4.537,33.444,33.444,0,0,1,11.535-1.823,31.323,31.323,0,0,1,14.458,3.066c5.553,2.663,10.174,7.418,17.063,12.5a48.47,48.47,0,0,0,12.425,6.72,50.15,50.15,0,0,0,17.205,2.822V890.361a31.212,31.212,0,0,1-14.458-3.067c-5.553-2.638-10.165-7.4-17.054-12.492a48.909,48.909,0,0,0-12.425-6.721,49.68,49.68,0,0,0-17.214-2.813,48.082,48.082,0,0,0-21.843,4.772c-8.779,4.41-14.206,10.241-19.49,13.979a33.07,33.07,0,0,1-8.267,4.536,33.681,33.681,0,0,1-11.535,1.806,31.186,31.186,0,0,1-14.441-3.067c-5.553-2.638-10.157-7.4-17.054-12.492a48.561,48.561,0,0,0-12.417-6.721,49.582,49.582,0,0,0-17.2-2.813,48.109,48.109,0,0,0-21.843,4.772c-8.779,4.41-14.189,10.241-19.474,13.979a33.119,33.119,0,0,1-8.275,4.536,33.643,33.643,0,0,1-11.535,1.806,36.027,36.027,0,0,1-8.636-.966,291.893,291.893,0,0,1,8.1-51.011h411.2c.664-4.6,1.512-9.124,2.579-13.576l.806-3.159a150.117,150.117,0,0,1,4.772-14.895L515.421,702.643,395.411,821.65H378.5L268.732,712.808q4.486-4.915,9.174-9.618a292.857,292.857,0,0,1,414.174,0c5.251,5.25,10.249,10.744,15.1,16.4,1.924,2.252,3.839,4.495,5.7,6.813,1.831,2.269,3.655,4.578,5.427,6.906a133.611,133.611,0,0,0-84.851,86.385l-.555,1.958q-1.474,4.928-2.579,10.021c-.471,2.2-.8,4.453-1.16,6.713l-.269,1.722a132.427,132.427,0,0,0-1.478,16.76l-.168,3.193c0,1.965.218,3.864.294,5.8a134.81,134.81,0,0,0,1.571,15.609c.454,2.782.924,5.545,1.546,8.284.638,2.772,1.319,5.535,2.117,8.258a133.781,133.781,0,0,0,128.352,95.938c1.554,0,3.066-.185,4.612-.252-.857,2.874-1.747,5.688-2.688,8.511C762.128,1005.034,761.212,1007.865,760.2,1010.645Zm-225.872-189H496.51l18.911-71.861Zm-3.89-80.54,81.213,80.54H551.63ZM479.2,821.65H419.187l81.213-80.54Z" transform="translate(-162.844 -588.13)"/>
        </g>
      </g>
    </g>
  </g>
</svg>
