<svg xmlns="http://www.w3.org/2000/svg" width="611" height="710" viewBox="0 0 611 710">
  <g id="Group_892" data-name="Group 892" transform="translate(-50 -6476)">
    <g id="Group_891" data-name="Group 891">
      <rect id="Rectangle_5570" data-name="Rectangle 5570" width="611" height="710" transform="translate(50 6476)" fill="#e4e4e4"/>
      <rect id="Rectangle_5578" data-name="Rectangle 5578" width="101.738" height="43" transform="translate(457.246 7143)" fill="#e4e4e4"/>
      <rect id="Rectangle_5575" data-name="Rectangle 5575" width="42.977" height="101.977" transform="translate(254.365 7185.977) rotate(-90)" fill="#a14444"/>
      <rect id="Rectangle_5579" data-name="Rectangle 5579" width="101.738" height="43" transform="translate(355.984 7143)" fill="#fff"/>
      <rect id="Rectangle_5580" data-name="Rectangle 5580" width="101.738" height="43" transform="translate(559.262 7143)"/>
      <rect id="Rectangle_5576" data-name="Rectangle 5576" width="42.977" height="101.977" transform="translate(152.388 7185.977) rotate(-90)" fill="#891515"/>
      <rect id="Rectangle_5587" data-name="Rectangle 5587" width="42.977" height="103.977" transform="translate(50 7185.977) rotate(-90)" fill="#781518"/>
      <g id="Group_540" data-name="Group 540" transform="translate(52.373 6376.101)">
        <path id="Path_3011" data-name="Path 3011" d="M126.834,510.86q-23.355-26.374-23.351-81.817V305.731L79.627,301.7V284.9h89.711v16.8l-28.558,4.367V432.739q0,45.7,16.295,65.856t46.873,20.16q30.568,0,45.863-21.5t15.287-62.5V306.067L236.875,301.7V284.9h78.288v16.8l-24.528,4.031V433.076q0,52.415-24.865,78.288t-66.191,25.871Q150.187,537.235,126.834,510.86Z" fill="none" stroke="#000" stroke-width="2"/>
        <path id="Path_3012" data-name="Path 3012" d="M353.3,611.66q-19.323-13.609-19.32-37.464a44.6,44.6,0,0,1,9.24-27.217,61.643,61.643,0,0,1,22.008-18.815q-15.457-8.734-15.455-28.224a40.951,40.951,0,0,1,7.055-22.849,46.807,46.807,0,0,1,18.48-16.464q-16.8-7.386-25.7-21.168t-8.9-32.591q0-19.484,10.92-33.937a70.118,70.118,0,0,1,28.9-22.176,95.555,95.555,0,0,1,38.135-7.727q33.934,0,53.088,14.111,5.042-5.039,15.457-9.744a53.256,53.256,0,0,1,22.176-4.7h11.423v29.567H483.833q8.063,12.435,8.062,28.9,0,19.83-9.912,35.112a65.549,65.549,0,0,1-27.551,23.689q-17.64,8.4-39.816,8.4a101.294,101.294,0,0,1-25.871-3.024,43.329,43.329,0,0,0-7.729,10.416,23.658,23.658,0,0,0-3.023,11.087q0,12.1,8.062,16.632t28.9,4.536H452.92q32.587,0,48.383,12.432t15.793,35.28q0,19.152-13.777,35.113t-37.127,25.2a136.262,136.262,0,0,1-50.568,9.239Q372.61,625.267,353.3,611.66Zm96.432-10.752q14.616-4.875,23.689-14.449a31.472,31.472,0,0,0,9.071-22.343q0-15.12-8.063-22.008t-31.248-6.889H403.528q-13.442,0-21.168-1.679-13.782,15.12-13.776,33.935t11.424,28.561q11.418,9.741,38.639,9.744A97.777,97.777,0,0,0,449.727,600.908Zm6.553-196.393q0-22.508-9.912-33.1t-29.737-10.584q-18.483,0-29.232,10.248t-10.752,32.76q0,21.17,10.248,33.6t31.08,12.431Q456.28,449.875,456.28,404.515Z" fill="none" stroke="#000" stroke-width="2"/>
      </g>
      <g id="Group_541" data-name="Group 541" transform="translate(52.373 6376.101)">
        <path id="Path_3013" data-name="Path 3013" d="M90.043,456.932V294.308h30.241v159.6c0,40.991,23.183,58.464,62.83,58.464,37.969,0,60.816-17.473,60.816-58.464v-159.6h30.24V456.932c0,58.127-40.656,81.312-92.064,81.312C129.69,538.244,90.043,515.059,90.043,456.932Z" fill="none" stroke="#000" stroke-width="2"/>
      </g>
      <g id="Group_542" data-name="Group 542" transform="translate(52.373 6376.101)">
        <path id="Path_3014" data-name="Path 3014" d="M313.479,544.292h25.2c2.688,19.152,20.832,26.543,47.711,26.543,31.92,0,49.729-14.448,49.729-44.688V501.62h-.672c-12.77,16.463-26.545,26.88-51.408,26.88-45.024,0-75.936-35.953-75.936-86.016,0-54.1,33.936-85.68,74.256-85.68,25.2,0,41.328,9.744,53.088,26.208h.672V360.836h27.214v164.3c0,45.7-30.24,67.2-76.271,67.2C342.04,592.339,316.5,574.2,313.479,544.292ZM438.135,441.139c0-37.967-16.129-61.487-53.088-61.487-32.591,0-49.056,25.536-49.056,63.168,0,37.968,17.136,62.831,49.392,62.831C425.368,505.651,438.135,477.764,438.135,441.139Z" fill="none" stroke="#000" stroke-width="2"/>
      </g>
    </g>
  </g>
</svg>
