<svg xmlns="http://www.w3.org/2000/svg" width="43.877" height="46.173" viewBox="0 0 43.877 46.173">
  <defs>
    <style>
      .cls-1 {
        fill: none;
        stroke: #fff;
        stroke-miterlimit: 10;
        stroke-width: 2px;
      }
    </style>
  </defs>
  <path id="Path_3399" data-name="Path 3399" class="cls-1" d="M405.791,395.639l-.061-.047c-.4-.314-.757-.635-1.134-.976q-.731-.662-1.459-1.327-1.833-1.674-3.644-3.372a6.533,6.533,0,0,0-2.922-1.783,2.344,2.344,0,0,0-2.659,1.234,3.1,3.1,0,0,0,.242,2.64,9.016,9.016,0,0,0,1.232,1.763,68.5,68.5,0,0,0,6.352,5.939l6.747,6.2a15.429,15.429,0,0,0,6.389,3.972c6.366,1.754,13.3-1.6,16.381-7.368,2.151-4.035,1.441-8.663.9-13a28.45,28.45,0,0,1-.241-6.411c.252-2.434,1.372-4.16,2.234-6.362a2.992,2.992,0,0,0,.1-2.2c-1.032-2.518-4.228-1.022-5.643.25a10.567,10.567,0,0,0-2.874,4.307c-.509,1.435-.266,3.583-1.863,4.359a3.311,3.311,0,0,1-3.338-.538,16.832,16.832,0,0,1-3.043-3.631c-1.585-2.2-3.207-4.371-4.725-6.608a35.341,35.341,0,0,0-3.3-4.35c-1.152-1.234-2.616-2.833-4.453-1.891-1.793.919-1.73,3.489-.629,4.865q2.291,2.864,4.582,5.728c.716.9,1.424,1.793,2.112,2.712q.544.726,1.083,1.457c.2.268,1.017,1.063,1.017,1.38a1.363,1.363,0,0,1,.3.577.467.467,0,0,1-.283.528c-.246.068-.472-.147-.638-.341-3.648-4.275-7.356-8.5-10.993-12.784l-.046-.054a6.232,6.232,0,0,0-1.894-1.682,3.246,3.246,0,0,0-2.111-.307,2.782,2.782,0,0,0-1.955,1.65c-.668,1.659.558,3.537,1.642,4.715l11.287,12.784s1.152,1.152.806,1.555-1.152-.518-1.152-.518l-9.5-10.135s-3.052-3.628-5.586-.518c0,0-1.555,1.9,1.958,5.356l2.559,2.612,5,5.107,2.116,2.159a23.537,23.537,0,0,1,1.727,1.8.569.569,0,0,1,.172.521.382.382,0,0,1-.411.206A.838.838,0,0,1,405.791,395.639Z" transform="translate(-391.546 -365.2)"/>
</svg>
