<svg xmlns="http://www.w3.org/2000/svg" viewBox="0 0 200.35 99.32">
  <title>om-dvd_02</title>
  <g>
    <path d="M96.87,71.87C43.37,71.87,0,78,0,85.59H0c0,7.59,43.37,13.73,96.87,13.73s96.86-6.14,96.86-13.73S150.36,71.87,96.87,71.87ZM93.36,90.44c-12.21,0-22.12-2-22.12-4.58s9.9-4.57,22.12-4.57,22.12,2,22.12,4.57S105.58,90.44,93.36,90.44Z" style="fill: #fff"/>
    <path d="M164,0,136.8,29.39,143.17,0H106.82L81.52,27.36,85.75,8.83,87.48,0H11.85L10.12,8.83l-.86,4.4L1.73,51.52,0,60.35H75.63l44.85-47.12-9.25,47.12h21.58l44.86-47.12-9.26,47.12H188.5L200.35,0ZM23.1,45,29,15H66.09L60.2,45Z" style="fill: #fff"/>
  </g>
</svg>
