<?xml version="1.0" encoding="utf-8"?>
<!-- Generator: Adobe Illustrator 23.0.3, SVG Export Plug-In . SVG Version: 6.00 Build 0)  -->
<svg version="1.1" id="Layer_1" xmlns="http://www.w3.org/2000/svg" xmlns:xlink="http://www.w3.org/1999/xlink" x="0px" y="0px"
	 viewBox="0 0 200.4 99.3" style="enable-background:new 0 0 200.4 99.3;" xml:space="preserve">
<style type="text/css">
	.st0{fill:#FFFFFF;}
</style>
<title>om-dvd_02</title>
<g>
	<path class="st0" d="M96.9,71.9C43.4,71.9,0,78,0,85.6l0,0c0,7.6,43.4,13.7,96.9,13.7s96.9-6.1,96.9-13.7S150.4,71.9,96.9,71.9z
		 M93.4,90.4c-12.2,0-22.1-2-22.1-4.6s9.9-4.6,22.1-4.6s22.1,2,22.1,4.6S105.6,90.4,93.4,90.4z"/>
	<path class="st0" d="M164,0l-27.2,29.4L143.2,0h-36.3L81.5,27.4l4.2-18.5L87.5,0H11.9l-1.7,8.8l-0.9,4.4L1.7,51.5L0,60.3h75.6
		l44.8-47.1l-9.2,47.1h21.6l44.9-47.1l-9.3,47.1h20.1L200.4,0H164z M23.1,45L29,15h37.1l-5.9,30H23.1z"/>
</g>
</svg>
